M48
; DRILL file {KiCad 8.0.2} date 2024-06-01T13:45:25-0300
; FORMAT={-:-/ absolute / inch / decimal}
; #@! TF.CreationDate,2024-06-01T13:45:25-03:00
; #@! TF.GenerationSoftware,Kicad,Pcbnew,8.0.2
; #@! TF.FileFunction,Plated,1,2,PTH
FMAT,2
INCH
; #@! TA.AperFunction,Plated,PTH,ComponentDrill
T1C0.0276
; #@! TA.AperFunction,Plated,PTH,ComponentDrill
T2C0.0310
; #@! TA.AperFunction,Plated,PTH,ComponentDrill
T3C0.0315
; #@! TA.AperFunction,Plated,PTH,ComponentDrill
T4C0.0335
; #@! TA.AperFunction,Plated,PTH,ComponentDrill
T5C0.0394
; #@! TA.AperFunction,Plated,PTH,ComponentDrill
T6C0.0598
%
G90
G05
T1
X6.0008Y-4.7606
X6.0008Y-4.9606
X6.0071Y-3.5433
X6.0071Y-3.7433
X6.6929Y-4.7606
X6.6929Y-4.9606
X6.6961Y-3.5433
X6.6961Y-3.7433
T2
X5.8961Y-4.1339
X5.8961Y-4.4339
X5.9961Y-4.1339
X5.9961Y-4.4339
X6.0961Y-4.1339
X6.0961Y-4.4339
X6.1961Y-4.1339
X6.1961Y-4.4339
X6.2961Y-4.1339
X6.2961Y-4.4339
X6.3961Y-4.1339
X6.3961Y-4.4339
X6.4961Y-4.1339
X6.4961Y-4.4339
T3
X5.7087Y-4.8622
X5.8071Y-4.8622
X6.2008Y-3.6417
X6.2992Y-3.6417
X6.3976Y-4.8622
X6.4961Y-4.8622
X6.6929Y-4.2323
X6.6929Y-4.3307
X6.8929Y-3.6417
X6.9913Y-3.6417
T4
X6.981Y-3.9944
X6.981Y-4.5944
X7.081Y-3.9944
X7.081Y-4.5944
X7.181Y-3.9944
X7.181Y-4.5944
X7.281Y-3.9944
X7.281Y-4.5944
X7.381Y-3.9944
X7.381Y-4.5944
X7.481Y-3.9944
X7.481Y-4.5944
X7.581Y-3.9944
X7.581Y-4.5944
T5
X7.2315Y-3.5925
X7.2315Y-3.6925
X7.2315Y-3.8002
X7.3315Y-3.5925
X7.3315Y-3.6925
X7.3315Y-3.8002
X7.4315Y-3.5925
X7.4315Y-3.6925
X7.4315Y-3.8002
X7.4787Y-5.0181
X7.4787Y-5.1181
X7.4787Y-5.2181
X7.5315Y-3.5925
X7.5315Y-3.6925
X7.5315Y-3.8002
X7.5787Y-5.0181
X7.5787Y-5.1181
X7.5787Y-5.2181
T6
X5.8039Y-3.248
X5.8039Y-5.2559
X6.0039Y-3.248
X6.0039Y-5.2559
X6.2039Y-3.248
X6.2039Y-5.2559
X6.4929Y-3.248
X6.4929Y-5.2559
X6.6929Y-3.248
X6.6929Y-5.2559
X6.8929Y-3.248
X6.8929Y-5.2559
X7.2803Y-3.248
X7.4803Y-3.248
M30
