%TF.GenerationSoftware,KiCad,Pcbnew,8.0.2*%
%TF.CreationDate,2024-06-01T13:45:06-03:00*%
%TF.ProjectId,Porthole Controller,506f7274-686f-46c6-9520-436f6e74726f,1*%
%TF.SameCoordinates,Original*%
%TF.FileFunction,Copper,L2,Bot*%
%TF.FilePolarity,Positive*%
%FSLAX46Y46*%
G04 Gerber Fmt 4.6, Leading zero omitted, Abs format (unit mm)*
G04 Created by KiCad (PCBNEW 8.0.2) date 2024-06-01 13:45:06*
%MOMM*%
%LPD*%
G01*
G04 APERTURE LIST*
%TA.AperFunction,ComponentPad*%
%ADD10R,3.000000X3.000000*%
%TD*%
%TA.AperFunction,ComponentPad*%
%ADD11C,3.000000*%
%TD*%
%TA.AperFunction,ComponentPad*%
%ADD12R,1.700000X1.700000*%
%TD*%
%TA.AperFunction,ComponentPad*%
%ADD13O,1.700000X1.700000*%
%TD*%
%TA.AperFunction,ComponentPad*%
%ADD14R,1.600000X1.600000*%
%TD*%
%TA.AperFunction,ComponentPad*%
%ADD15C,1.600000*%
%TD*%
%TA.AperFunction,ComponentPad*%
%ADD16C,1.400000*%
%TD*%
%TA.AperFunction,ComponentPad*%
%ADD17O,1.400000X1.400000*%
%TD*%
%TA.AperFunction,ComponentPad*%
%ADD18R,1.295400X1.295400*%
%TD*%
%TA.AperFunction,ComponentPad*%
%ADD19C,1.295400*%
%TD*%
%TA.AperFunction,ComponentPad*%
%ADD20R,1.358000X1.358000*%
%TD*%
%TA.AperFunction,ComponentPad*%
%ADD21C,1.358000*%
%TD*%
%TA.AperFunction,Conductor*%
%ADD22C,0.200000*%
%TD*%
G04 APERTURE END LIST*
D10*
%TO.P,J4,1,Pin_1*%
%TO.N,5V*%
X164920000Y-133500000D03*
D11*
%TO.P,J4,2,Pin_2*%
%TO.N,STRIP4*%
X170000000Y-133500000D03*
%TO.P,J4,3,Pin_3*%
%TO.N,GND*%
X175080000Y-133500000D03*
%TD*%
D12*
%TO.P,J8,1,Pin_1*%
%TO.N,D0*%
X191300000Y-96525000D03*
D13*
%TO.P,J8,2,Pin_2*%
%TO.N,D1*%
X188760000Y-96525000D03*
%TO.P,J8,3,Pin_3*%
%TO.N,D4*%
X186220000Y-96525000D03*
%TO.P,J8,4,Pin_4*%
%TO.N,D5*%
X183680000Y-96525000D03*
%TD*%
D14*
%TO.P,C2,1*%
%TO.N,5V*%
X175080000Y-92500000D03*
D15*
%TO.P,C2,2*%
%TO.N,GND*%
X177580000Y-92500000D03*
%TD*%
D10*
%TO.P,J1,1,Pin_1*%
%TO.N,5V*%
X175080000Y-82500000D03*
D11*
%TO.P,J1,2,Pin_2*%
%TO.N,STRIP1*%
X170000000Y-82500000D03*
%TO.P,J1,3,Pin_3*%
%TO.N,GND*%
X164920000Y-82500000D03*
%TD*%
D10*
%TO.P,J3,1,Pin_1*%
%TO.N,5V*%
X147420000Y-133500000D03*
D11*
%TO.P,J3,2,Pin_2*%
%TO.N,STRIP3*%
X152500000Y-133500000D03*
%TO.P,J3,3,Pin_3*%
%TO.N,GND*%
X157580000Y-133500000D03*
%TD*%
D14*
%TO.P,C3,1*%
%TO.N,5V*%
X157500000Y-92500000D03*
D15*
%TO.P,C3,2*%
%TO.N,GND*%
X160000000Y-92500000D03*
%TD*%
D12*
%TO.P,J6,1,Pin_1*%
%TO.N,3.3V*%
X191300000Y-93790000D03*
D13*
%TO.P,J6,2,Pin_2*%
%TO.N,GND*%
X191300000Y-91250000D03*
%TO.P,J6,3,Pin_3*%
%TO.N,3.3V*%
X188760000Y-93790000D03*
%TO.P,J6,4,Pin_4*%
%TO.N,GND*%
X188760000Y-91250000D03*
%TO.P,J6,5,Pin_5*%
%TO.N,3.3V*%
X186220000Y-93790000D03*
%TO.P,J6,6,Pin_6*%
%TO.N,GND*%
X186220000Y-91250000D03*
%TO.P,J6,7,Pin_7*%
%TO.N,3.3V*%
X183680000Y-93790000D03*
%TO.P,J6,8,Pin_8*%
%TO.N,GND*%
X183680000Y-91250000D03*
%TD*%
D14*
%TO.P,C5,1*%
%TO.N,5V*%
X165000000Y-123500000D03*
D15*
%TO.P,C5,2*%
%TO.N,GND*%
X162500000Y-123500000D03*
%TD*%
D16*
%TO.P,R1,1*%
%TO.N,STRIP1*%
X170080000Y-90000000D03*
D17*
%TO.P,R1,2*%
%TO.N,Net-(U2-1Y)*%
X170080000Y-95080000D03*
%TD*%
D12*
%TO.P,J5,1,Pin_1*%
%TO.N,GND*%
X189960000Y-132540000D03*
D13*
%TO.P,J5,2,Pin_2*%
X192500000Y-132540000D03*
%TO.P,J5,3,Pin_3*%
%TO.N,WS*%
X189960000Y-130000000D03*
%TO.P,J5,4,Pin_4*%
%TO.N,3.3V*%
X192500000Y-130000000D03*
%TO.P,J5,5,Pin_5*%
%TO.N,SCK*%
X189960000Y-127460000D03*
%TO.P,J5,6,Pin_6*%
%TO.N,SD*%
X192500000Y-127460000D03*
%TD*%
D16*
%TO.P,R3,1*%
%TO.N,STRIP3*%
X152420000Y-126000000D03*
D17*
%TO.P,R3,2*%
%TO.N,Net-(U2-3Y)*%
X152420000Y-120920000D03*
%TD*%
D18*
%TO.P,U2,1,1~{OE}*%
%TO.N,GND*%
X165000000Y-105000000D03*
D19*
%TO.P,U2,2,1A*%
%TO.N,D2*%
X162460000Y-105000000D03*
%TO.P,U2,3,1Y*%
%TO.N,Net-(U2-1Y)*%
X159920000Y-105000000D03*
%TO.P,U2,4,2~{OE}*%
%TO.N,GND*%
X157380000Y-105000000D03*
%TO.P,U2,5,2A*%
%TO.N,D3*%
X154840000Y-105000000D03*
%TO.P,U2,6,2Y*%
%TO.N,Net-(U2-2Y)*%
X152300000Y-105000000D03*
%TO.P,U2,7,GND*%
%TO.N,GND*%
X149760000Y-105000000D03*
%TO.P,U2,8,3Y*%
%TO.N,Net-(U2-3Y)*%
X149760000Y-112620000D03*
%TO.P,U2,9,3A*%
%TO.N,D6*%
X152300000Y-112620000D03*
%TO.P,U2,10,3~{OE}*%
%TO.N,GND*%
X154840000Y-112620000D03*
%TO.P,U2,11,4Y*%
%TO.N,Net-(U2-4Y)*%
X157380000Y-112620000D03*
%TO.P,U2,12,4A*%
%TO.N,D7*%
X159920000Y-112620000D03*
%TO.P,U2,13,4~{OE}*%
%TO.N,GND*%
X162460000Y-112620000D03*
%TO.P,U2,14,VCC*%
%TO.N,5V*%
X165000000Y-112620000D03*
%TD*%
D10*
%TO.P,J7,1,Pin_1*%
%TO.N,5V*%
X190000000Y-82500000D03*
D11*
%TO.P,J7,2,Pin_2*%
%TO.N,GND*%
X184920000Y-82500000D03*
%TD*%
D15*
%TO.P,C1,1*%
%TO.N,5V*%
X170000000Y-110000000D03*
%TO.P,C1,2*%
%TO.N,GND*%
X170000000Y-107500000D03*
%TD*%
D14*
%TO.P,C4,1*%
%TO.N,5V*%
X147500000Y-123500000D03*
D15*
%TO.P,C4,2*%
%TO.N,GND*%
X145000000Y-123500000D03*
%TD*%
D16*
%TO.P,R4,1*%
%TO.N,STRIP4*%
X170000000Y-126000000D03*
D17*
%TO.P,R4,2*%
%TO.N,Net-(U2-4Y)*%
X170000000Y-120920000D03*
%TD*%
D16*
%TO.P,R2,1*%
%TO.N,STRIP2*%
X152580000Y-90000000D03*
D17*
%TO.P,R2,2*%
%TO.N,Net-(U2-2Y)*%
X152580000Y-95080000D03*
%TD*%
D20*
%TO.P,U1,1,D0*%
%TO.N,D0*%
X192556500Y-101457500D03*
D21*
%TO.P,U1,2,D1*%
%TO.N,D1*%
X190016500Y-101457500D03*
%TO.P,U1,3,D2*%
%TO.N,D2*%
X187476500Y-101457500D03*
%TO.P,U1,4,D3*%
%TO.N,D3*%
X184936500Y-101457500D03*
%TO.P,U1,5,D4*%
%TO.N,D4*%
X182396500Y-101457500D03*
%TO.P,U1,6,D5*%
%TO.N,D5*%
X179856500Y-101457500D03*
%TO.P,U1,7,TX_D6*%
%TO.N,D6*%
X177316500Y-101457500D03*
%TO.P,U1,8,RX_D7*%
%TO.N,D7*%
X177316500Y-116697500D03*
%TO.P,U1,9,D8*%
%TO.N,WS*%
X179856500Y-116697500D03*
%TO.P,U1,10,D9*%
%TO.N,SCK*%
X182396500Y-116697500D03*
%TO.P,U1,11,D10*%
%TO.N,SD*%
X184936500Y-116697500D03*
%TO.P,U1,12,VCC_3V3*%
%TO.N,3.3V*%
X187476500Y-116697500D03*
%TO.P,U1,13,GND*%
%TO.N,GND*%
X190016500Y-116697500D03*
%TO.P,U1,14,VUSB*%
%TO.N,5V*%
X192556500Y-116697500D03*
%TD*%
D10*
%TO.P,J2,1,Pin_1*%
%TO.N,5V*%
X157580000Y-82500000D03*
D11*
%TO.P,J2,2,Pin_2*%
%TO.N,STRIP2*%
X152500000Y-82500000D03*
%TO.P,J2,3,Pin_3*%
%TO.N,GND*%
X147420000Y-82500000D03*
%TD*%
D22*
%TO.N,SD*%
X192500000Y-127460000D02*
X192500000Y-124261000D01*
X192500000Y-124261000D02*
X184936500Y-116697500D01*
%TO.N,SCK*%
X189960000Y-127460000D02*
X182396500Y-119896500D01*
X182396500Y-119896500D02*
X182396500Y-116697500D01*
%TO.N,WS*%
X179856500Y-119896500D02*
X179856500Y-116697500D01*
X189960000Y-130000000D02*
X179856500Y-119896500D01*
%TO.N,3.3V*%
X193535500Y-117103016D02*
X192778016Y-117860500D01*
X193535500Y-96025500D02*
X193535500Y-117103016D01*
X183680000Y-93790000D02*
X186220000Y-93790000D01*
X186220000Y-93790000D02*
X188760000Y-93790000D01*
X188760000Y-93790000D02*
X191300000Y-93790000D01*
X193650000Y-128850000D02*
X193650000Y-122871000D01*
X192500000Y-130000000D02*
X193650000Y-128850000D01*
X193650000Y-122871000D02*
X187476500Y-116697500D01*
X192778016Y-117860500D02*
X188639500Y-117860500D01*
X191300000Y-93790000D02*
X193535500Y-96025500D01*
%TO.N,D0*%
X191300000Y-96525000D02*
X191300000Y-100201000D01*
X191300000Y-100201000D02*
X192556500Y-101457500D01*
%TO.N,D4*%
X182396500Y-100348500D02*
X182396500Y-101457500D01*
X186220000Y-96525000D02*
X182396500Y-100348500D01*
%TO.N,D1*%
X188760000Y-96525000D02*
X190016500Y-97781500D01*
X190016500Y-97781500D02*
X190016500Y-101457500D01*
%TO.N,D5*%
X179856500Y-100348500D02*
X179856500Y-101457500D01*
X183680000Y-96525000D02*
X179856500Y-100348500D01*
%TO.N,Net-(U2-4Y)*%
X170000000Y-120920000D02*
X165680000Y-120920000D01*
X165680000Y-120920000D02*
X157380000Y-112620000D01*
%TO.N,D3*%
X178295500Y-101795500D02*
X178295500Y-100795500D01*
X178295500Y-100795500D02*
X177978500Y-100478500D01*
X159361500Y-100478500D02*
X154840000Y-105000000D01*
X184936500Y-101457500D02*
X183957500Y-102436500D01*
X177978500Y-100478500D02*
X159361500Y-100478500D01*
X178936500Y-102436500D02*
X178295500Y-101795500D01*
X183957500Y-102436500D02*
X178936500Y-102436500D01*
%TO.N,D7*%
X177316500Y-116697500D02*
X163997500Y-116697500D01*
X163997500Y-116697500D02*
X159920000Y-112620000D01*
%TO.N,D6*%
X172826300Y-105947700D02*
X158972300Y-105947700D01*
X158972300Y-105947700D02*
X152300000Y-112620000D01*
X177316500Y-101457500D02*
X172826300Y-105947700D01*
%TD*%
%TA.AperFunction,Conductor*%
%TO.N,GND*%
G36*
X192034075Y-132347007D02*
G01*
X192000000Y-132474174D01*
X192000000Y-132605826D01*
X192034075Y-132732993D01*
X192066988Y-132790000D01*
X190393012Y-132790000D01*
X190425925Y-132732993D01*
X190460000Y-132605826D01*
X190460000Y-132474174D01*
X190425925Y-132347007D01*
X190393012Y-132290000D01*
X192066988Y-132290000D01*
X192034075Y-132347007D01*
G37*
%TD.AperFunction*%
%TA.AperFunction,Conductor*%
G36*
X176100715Y-101098685D02*
G01*
X176146470Y-101151489D01*
X176156414Y-101220647D01*
X176152944Y-101236929D01*
X176152115Y-101239839D01*
X176131947Y-101457499D01*
X176131947Y-101457500D01*
X176152116Y-101675160D01*
X176153768Y-101680967D01*
X176153180Y-101750834D01*
X176122182Y-101802580D01*
X172613884Y-105310881D01*
X172552561Y-105344366D01*
X172526203Y-105347200D01*
X166271700Y-105347200D01*
X166204661Y-105327515D01*
X166158906Y-105274711D01*
X166155151Y-105257451D01*
X166147700Y-105250000D01*
X165306775Y-105250000D01*
X165315038Y-105241737D01*
X165366870Y-105151962D01*
X165393700Y-105051832D01*
X165393700Y-104948168D01*
X165366870Y-104848038D01*
X165315038Y-104758263D01*
X165306775Y-104750000D01*
X166147700Y-104750000D01*
X166147700Y-104304472D01*
X166147699Y-104304455D01*
X166141298Y-104244927D01*
X166141296Y-104244920D01*
X166091054Y-104110213D01*
X166091050Y-104110206D01*
X166004890Y-103995112D01*
X166004887Y-103995109D01*
X165889793Y-103908949D01*
X165889786Y-103908945D01*
X165755079Y-103858703D01*
X165755072Y-103858701D01*
X165695544Y-103852300D01*
X165250000Y-103852300D01*
X165250000Y-104693225D01*
X165241737Y-104684962D01*
X165151962Y-104633130D01*
X165051832Y-104606300D01*
X164948168Y-104606300D01*
X164848038Y-104633130D01*
X164758263Y-104684962D01*
X164750000Y-104693225D01*
X164750000Y-103852300D01*
X164304455Y-103852300D01*
X164244927Y-103858701D01*
X164244920Y-103858703D01*
X164110213Y-103908945D01*
X164110206Y-103908949D01*
X163995112Y-103995109D01*
X163995109Y-103995112D01*
X163908949Y-104110206D01*
X163908945Y-104110213D01*
X163858703Y-104244920D01*
X163858701Y-104244927D01*
X163852300Y-104304455D01*
X163852300Y-104750000D01*
X164693225Y-104750000D01*
X164684962Y-104758263D01*
X164633130Y-104848038D01*
X164606300Y-104948168D01*
X164606300Y-105051832D01*
X164633130Y-105151962D01*
X164684962Y-105241737D01*
X164693225Y-105250000D01*
X163852300Y-105250000D01*
X163841159Y-105261140D01*
X163832615Y-105290239D01*
X163779811Y-105335994D01*
X163728300Y-105347200D01*
X163716968Y-105347200D01*
X163649929Y-105327515D01*
X163604174Y-105274711D01*
X163593497Y-105211759D01*
X163613119Y-105000000D01*
X163613119Y-104999999D01*
X163593485Y-104788115D01*
X163564135Y-104684962D01*
X163535251Y-104583445D01*
X163535249Y-104583440D01*
X163535249Y-104583439D01*
X163440403Y-104392962D01*
X163328611Y-104244927D01*
X163312165Y-104223149D01*
X163154909Y-104079791D01*
X163154907Y-104079789D01*
X162973992Y-103967771D01*
X162973986Y-103967768D01*
X162776810Y-103891383D01*
X162775566Y-103890901D01*
X162566396Y-103851800D01*
X162353604Y-103851800D01*
X162144434Y-103890901D01*
X162144431Y-103890901D01*
X162144431Y-103890902D01*
X161946013Y-103967768D01*
X161946007Y-103967771D01*
X161765092Y-104079789D01*
X161765090Y-104079791D01*
X161607836Y-104223147D01*
X161479596Y-104392962D01*
X161384750Y-104583439D01*
X161384750Y-104583440D01*
X161326514Y-104788115D01*
X161313471Y-104928881D01*
X161287685Y-104993819D01*
X161230884Y-105034506D01*
X161161103Y-105038026D01*
X161100497Y-105003261D01*
X161068307Y-104941248D01*
X161066529Y-104928881D01*
X161053485Y-104788115D01*
X161024135Y-104684962D01*
X160995251Y-104583445D01*
X160995249Y-104583440D01*
X160995249Y-104583439D01*
X160900403Y-104392962D01*
X160788611Y-104244927D01*
X160772165Y-104223149D01*
X160614909Y-104079791D01*
X160614907Y-104079789D01*
X160433992Y-103967771D01*
X160433986Y-103967768D01*
X160236810Y-103891383D01*
X160235566Y-103890901D01*
X160026396Y-103851800D01*
X159813604Y-103851800D01*
X159604434Y-103890901D01*
X159604431Y-103890901D01*
X159604431Y-103890902D01*
X159406013Y-103967768D01*
X159406007Y-103967771D01*
X159225092Y-104079789D01*
X159225090Y-104079791D01*
X159067836Y-104223147D01*
X158939596Y-104392962D01*
X158844750Y-104583439D01*
X158844750Y-104583440D01*
X158786514Y-104788115D01*
X158773220Y-104931589D01*
X158747434Y-104996527D01*
X158690633Y-105037214D01*
X158620852Y-105040734D01*
X158560246Y-105005969D01*
X158528056Y-104943956D01*
X158526278Y-104931589D01*
X158512991Y-104788206D01*
X158454781Y-104583623D01*
X158454781Y-104583621D01*
X158359976Y-104393226D01*
X158359975Y-104393224D01*
X158351522Y-104382031D01*
X158351521Y-104382031D01*
X157773700Y-104959852D01*
X157773700Y-104948168D01*
X157746870Y-104848038D01*
X157695038Y-104758263D01*
X157621737Y-104684962D01*
X157531962Y-104633130D01*
X157431832Y-104606300D01*
X157420147Y-104606300D01*
X157995336Y-104031109D01*
X157995335Y-104031108D01*
X157893769Y-103968221D01*
X157893763Y-103968218D01*
X157695427Y-103891383D01*
X157486347Y-103852300D01*
X157273652Y-103852300D01*
X157130143Y-103879125D01*
X157060628Y-103872093D01*
X157005950Y-103828595D01*
X156983468Y-103762441D01*
X157000321Y-103694635D01*
X157019672Y-103669561D01*
X159573917Y-101115319D01*
X159635240Y-101081834D01*
X159661598Y-101079000D01*
X176033676Y-101079000D01*
X176100715Y-101098685D01*
G37*
%TD.AperFunction*%
%TA.AperFunction,Conductor*%
G36*
X185754075Y-91057007D02*
G01*
X185720000Y-91184174D01*
X185720000Y-91315826D01*
X185754075Y-91442993D01*
X185786988Y-91500000D01*
X184113012Y-91500000D01*
X184145925Y-91442993D01*
X184180000Y-91315826D01*
X184180000Y-91184174D01*
X184145925Y-91057007D01*
X184113012Y-91000000D01*
X185786988Y-91000000D01*
X185754075Y-91057007D01*
G37*
%TD.AperFunction*%
%TA.AperFunction,Conductor*%
G36*
X188294075Y-91057007D02*
G01*
X188260000Y-91184174D01*
X188260000Y-91315826D01*
X188294075Y-91442993D01*
X188326988Y-91500000D01*
X186653012Y-91500000D01*
X186685925Y-91442993D01*
X186720000Y-91315826D01*
X186720000Y-91184174D01*
X186685925Y-91057007D01*
X186653012Y-91000000D01*
X188326988Y-91000000D01*
X188294075Y-91057007D01*
G37*
%TD.AperFunction*%
%TA.AperFunction,Conductor*%
G36*
X190834075Y-91057007D02*
G01*
X190800000Y-91184174D01*
X190800000Y-91315826D01*
X190834075Y-91442993D01*
X190866988Y-91500000D01*
X189193012Y-91500000D01*
X189225925Y-91442993D01*
X189260000Y-91315826D01*
X189260000Y-91184174D01*
X189225925Y-91057007D01*
X189193012Y-91000000D01*
X190866988Y-91000000D01*
X190834075Y-91057007D01*
G37*
%TD.AperFunction*%
%TA.AperFunction,Conductor*%
G36*
X198693243Y-75500669D02*
G01*
X199029450Y-75518290D01*
X199042358Y-75519647D01*
X199371677Y-75571806D01*
X199384342Y-75574497D01*
X199706422Y-75660798D01*
X199718749Y-75664803D01*
X200030038Y-75784296D01*
X200041873Y-75789565D01*
X200338976Y-75940947D01*
X200350191Y-75947423D01*
X200629832Y-76129023D01*
X200640313Y-76136638D01*
X200810559Y-76274500D01*
X200899441Y-76346475D01*
X200909086Y-76355160D01*
X201144839Y-76590913D01*
X201153524Y-76600558D01*
X201363359Y-76859683D01*
X201370978Y-76870171D01*
X201552573Y-77149802D01*
X201559055Y-77161029D01*
X201640761Y-77321384D01*
X201710429Y-77458115D01*
X201715708Y-77469972D01*
X201835193Y-77781241D01*
X201839204Y-77793586D01*
X201925498Y-78115642D01*
X201928196Y-78128337D01*
X201980352Y-78457641D01*
X201981709Y-78470549D01*
X201999330Y-78806756D01*
X201999500Y-78813246D01*
X201999500Y-136186753D01*
X201999330Y-136193243D01*
X201981709Y-136529450D01*
X201980352Y-136542358D01*
X201928196Y-136871662D01*
X201925498Y-136884357D01*
X201839204Y-137206413D01*
X201835193Y-137218758D01*
X201715708Y-137530027D01*
X201710429Y-137541884D01*
X201559059Y-137838964D01*
X201552569Y-137850204D01*
X201370983Y-138129822D01*
X201363354Y-138140323D01*
X201153524Y-138399441D01*
X201144839Y-138409086D01*
X200909086Y-138644839D01*
X200899441Y-138653524D01*
X200640323Y-138863354D01*
X200629822Y-138870983D01*
X200350204Y-139052569D01*
X200338964Y-139059059D01*
X200041884Y-139210429D01*
X200030027Y-139215708D01*
X199718758Y-139335193D01*
X199706413Y-139339204D01*
X199384357Y-139425498D01*
X199371662Y-139428196D01*
X199042358Y-139480352D01*
X199029450Y-139481709D01*
X198693244Y-139499330D01*
X198686754Y-139499500D01*
X141313246Y-139499500D01*
X141306756Y-139499330D01*
X140970549Y-139481709D01*
X140957641Y-139480352D01*
X140628337Y-139428196D01*
X140615642Y-139425498D01*
X140293586Y-139339204D01*
X140281241Y-139335193D01*
X139969972Y-139215708D01*
X139958115Y-139210429D01*
X139661029Y-139059055D01*
X139649802Y-139052573D01*
X139370171Y-138870978D01*
X139359683Y-138863359D01*
X139100558Y-138653524D01*
X139090913Y-138644839D01*
X138855160Y-138409086D01*
X138846475Y-138399441D01*
X138636638Y-138140313D01*
X138629023Y-138129832D01*
X138447423Y-137850191D01*
X138440947Y-137838976D01*
X138289565Y-137541873D01*
X138284296Y-137530038D01*
X138164803Y-137218749D01*
X138160798Y-137206422D01*
X138074497Y-136884342D01*
X138071806Y-136871677D01*
X138019647Y-136542358D01*
X138018290Y-136529450D01*
X138002334Y-136224994D01*
X138769556Y-136224994D01*
X138769556Y-136225005D01*
X138789310Y-136539004D01*
X138789311Y-136539011D01*
X138848270Y-136848083D01*
X138945497Y-137147316D01*
X138945499Y-137147321D01*
X139079461Y-137432003D01*
X139079464Y-137432009D01*
X139248051Y-137697661D01*
X139248054Y-137697665D01*
X139448606Y-137940090D01*
X139448608Y-137940092D01*
X139677968Y-138155476D01*
X139677978Y-138155484D01*
X139932504Y-138340408D01*
X139932509Y-138340410D01*
X139932516Y-138340416D01*
X140208234Y-138491994D01*
X140208239Y-138491996D01*
X140208241Y-138491997D01*
X140208242Y-138491998D01*
X140500771Y-138607818D01*
X140500774Y-138607819D01*
X140581797Y-138628622D01*
X140805527Y-138686066D01*
X140871010Y-138694338D01*
X141117670Y-138725499D01*
X141117679Y-138725499D01*
X141117682Y-138725500D01*
X141117684Y-138725500D01*
X141432316Y-138725500D01*
X141432318Y-138725500D01*
X141432321Y-138725499D01*
X141432329Y-138725499D01*
X141618593Y-138701968D01*
X141744473Y-138686066D01*
X142049225Y-138607819D01*
X142049228Y-138607818D01*
X142341757Y-138491998D01*
X142341758Y-138491997D01*
X142341756Y-138491997D01*
X142341766Y-138491994D01*
X142617484Y-138340416D01*
X142872030Y-138155478D01*
X143101390Y-137940094D01*
X143301947Y-137697663D01*
X143470537Y-137432007D01*
X143604503Y-137147315D01*
X143701731Y-136848079D01*
X143760688Y-136539015D01*
X143780444Y-136225000D01*
X143780444Y-136224994D01*
X196219556Y-136224994D01*
X196219556Y-136225005D01*
X196239310Y-136539004D01*
X196239311Y-136539011D01*
X196298270Y-136848083D01*
X196395497Y-137147316D01*
X196395499Y-137147321D01*
X196529461Y-137432003D01*
X196529464Y-137432009D01*
X196698051Y-137697661D01*
X196698054Y-137697665D01*
X196898606Y-137940090D01*
X196898608Y-137940092D01*
X197127968Y-138155476D01*
X197127978Y-138155484D01*
X197382504Y-138340408D01*
X197382509Y-138340410D01*
X197382516Y-138340416D01*
X197658234Y-138491994D01*
X197658239Y-138491996D01*
X197658241Y-138491997D01*
X197658242Y-138491998D01*
X197950771Y-138607818D01*
X197950774Y-138607819D01*
X198031797Y-138628622D01*
X198255527Y-138686066D01*
X198321010Y-138694338D01*
X198567670Y-138725499D01*
X198567679Y-138725499D01*
X198567682Y-138725500D01*
X198567684Y-138725500D01*
X198882316Y-138725500D01*
X198882318Y-138725500D01*
X198882321Y-138725499D01*
X198882329Y-138725499D01*
X199068593Y-138701968D01*
X199194473Y-138686066D01*
X199499225Y-138607819D01*
X199499228Y-138607818D01*
X199791757Y-138491998D01*
X199791758Y-138491997D01*
X199791756Y-138491997D01*
X199791766Y-138491994D01*
X200067484Y-138340416D01*
X200322030Y-138155478D01*
X200551390Y-137940094D01*
X200751947Y-137697663D01*
X200920537Y-137432007D01*
X201054503Y-137147315D01*
X201151731Y-136848079D01*
X201210688Y-136539015D01*
X201230444Y-136225000D01*
X201224096Y-136124108D01*
X201210689Y-135910995D01*
X201210688Y-135910988D01*
X201210688Y-135910985D01*
X201151731Y-135601921D01*
X201054503Y-135302685D01*
X201026104Y-135242335D01*
X200920538Y-135017996D01*
X200920537Y-135017993D01*
X200790702Y-134813405D01*
X200751948Y-134752338D01*
X200751945Y-134752334D01*
X200551393Y-134509909D01*
X200551391Y-134509907D01*
X200363182Y-134333166D01*
X200322030Y-134294522D01*
X200322027Y-134294520D01*
X200322021Y-134294515D01*
X200067495Y-134109591D01*
X200067488Y-134109586D01*
X200067484Y-134109584D01*
X199791766Y-133958006D01*
X199791763Y-133958004D01*
X199791758Y-133958002D01*
X199791757Y-133958001D01*
X199499228Y-133842181D01*
X199499225Y-133842180D01*
X199194476Y-133763934D01*
X199194463Y-133763932D01*
X198882329Y-133724500D01*
X198882318Y-133724500D01*
X198567682Y-133724500D01*
X198567670Y-133724500D01*
X198255536Y-133763932D01*
X198255523Y-133763934D01*
X197950774Y-133842180D01*
X197950771Y-133842181D01*
X197658242Y-133958001D01*
X197658241Y-133958002D01*
X197382516Y-134109584D01*
X197382504Y-134109591D01*
X197127978Y-134294515D01*
X197127968Y-134294523D01*
X196898608Y-134509907D01*
X196898606Y-134509909D01*
X196698054Y-134752334D01*
X196698051Y-134752338D01*
X196529464Y-135017990D01*
X196529461Y-135017996D01*
X196395499Y-135302678D01*
X196395497Y-135302683D01*
X196298270Y-135601916D01*
X196239311Y-135910988D01*
X196239310Y-135910995D01*
X196219556Y-136224994D01*
X143780444Y-136224994D01*
X143774096Y-136124108D01*
X143760689Y-135910995D01*
X143760688Y-135910988D01*
X143760688Y-135910985D01*
X143701731Y-135601921D01*
X143604503Y-135302685D01*
X143576104Y-135242335D01*
X143470538Y-135017996D01*
X143470537Y-135017993D01*
X143340702Y-134813405D01*
X143301948Y-134752338D01*
X143301945Y-134752334D01*
X143101393Y-134509909D01*
X143101391Y-134509907D01*
X142913182Y-134333166D01*
X142872030Y-134294522D01*
X142872027Y-134294520D01*
X142872021Y-134294515D01*
X142617495Y-134109591D01*
X142617488Y-134109586D01*
X142617484Y-134109584D01*
X142341766Y-133958006D01*
X142341763Y-133958004D01*
X142341758Y-133958002D01*
X142341757Y-133958001D01*
X142049228Y-133842181D01*
X142049225Y-133842180D01*
X141744476Y-133763934D01*
X141744463Y-133763932D01*
X141432329Y-133724500D01*
X141432318Y-133724500D01*
X141117682Y-133724500D01*
X141117670Y-133724500D01*
X140805536Y-133763932D01*
X140805523Y-133763934D01*
X140500774Y-133842180D01*
X140500771Y-133842181D01*
X140208242Y-133958001D01*
X140208241Y-133958002D01*
X139932516Y-134109584D01*
X139932504Y-134109591D01*
X139677978Y-134294515D01*
X139677968Y-134294523D01*
X139448608Y-134509907D01*
X139448606Y-134509909D01*
X139248054Y-134752334D01*
X139248051Y-134752338D01*
X139079464Y-135017990D01*
X139079461Y-135017996D01*
X138945499Y-135302678D01*
X138945497Y-135302683D01*
X138848270Y-135601916D01*
X138789311Y-135910988D01*
X138789310Y-135910995D01*
X138769556Y-136224994D01*
X138002334Y-136224994D01*
X138000670Y-136193243D01*
X138000500Y-136186753D01*
X138000500Y-131952135D01*
X145419500Y-131952135D01*
X145419500Y-135047870D01*
X145419501Y-135047876D01*
X145425908Y-135107483D01*
X145476202Y-135242328D01*
X145476206Y-135242335D01*
X145562452Y-135357544D01*
X145562455Y-135357547D01*
X145677664Y-135443793D01*
X145677671Y-135443797D01*
X145812517Y-135494091D01*
X145812516Y-135494091D01*
X145819444Y-135494835D01*
X145872127Y-135500500D01*
X148967872Y-135500499D01*
X149027483Y-135494091D01*
X149162331Y-135443796D01*
X149277546Y-135357546D01*
X149363796Y-135242331D01*
X149414091Y-135107483D01*
X149420500Y-135047873D01*
X149420499Y-133499998D01*
X150494390Y-133499998D01*
X150494390Y-133500001D01*
X150514804Y-133785433D01*
X150575628Y-134065037D01*
X150575630Y-134065043D01*
X150575631Y-134065046D01*
X150661222Y-134294523D01*
X150675635Y-134333166D01*
X150812770Y-134584309D01*
X150812775Y-134584317D01*
X150984254Y-134813387D01*
X150984270Y-134813405D01*
X151186594Y-135015729D01*
X151186612Y-135015745D01*
X151415682Y-135187224D01*
X151415690Y-135187229D01*
X151666833Y-135324364D01*
X151666832Y-135324364D01*
X151666836Y-135324365D01*
X151666839Y-135324367D01*
X151934954Y-135424369D01*
X151934960Y-135424370D01*
X151934962Y-135424371D01*
X152214566Y-135485195D01*
X152214568Y-135485195D01*
X152214572Y-135485196D01*
X152468220Y-135503337D01*
X152499999Y-135505610D01*
X152500000Y-135505610D01*
X152500001Y-135505610D01*
X152528595Y-135503564D01*
X152785428Y-135485196D01*
X152975742Y-135443796D01*
X153065037Y-135424371D01*
X153065037Y-135424370D01*
X153065046Y-135424369D01*
X153333161Y-135324367D01*
X153584315Y-135187226D01*
X153813395Y-135015739D01*
X154015739Y-134813395D01*
X154187226Y-134584315D01*
X154324367Y-134333161D01*
X154424369Y-134065046D01*
X154462448Y-133889999D01*
X154485195Y-133785433D01*
X154485195Y-133785432D01*
X154485196Y-133785428D01*
X154505610Y-133500000D01*
X154505610Y-133499998D01*
X155574891Y-133499998D01*
X155574891Y-133500001D01*
X155595300Y-133785362D01*
X155656109Y-134064895D01*
X155756091Y-134332958D01*
X155893191Y-134584038D01*
X155893196Y-134584046D01*
X155999882Y-134726561D01*
X155999883Y-134726562D01*
X156894767Y-133831677D01*
X156906497Y-133859995D01*
X156989670Y-133984472D01*
X157095528Y-134090330D01*
X157220005Y-134173503D01*
X157248320Y-134185231D01*
X156353436Y-135080115D01*
X156495960Y-135186807D01*
X156495961Y-135186808D01*
X156747042Y-135323908D01*
X156747041Y-135323908D01*
X157015104Y-135423890D01*
X157294637Y-135484699D01*
X157579999Y-135505109D01*
X157580001Y-135505109D01*
X157865362Y-135484699D01*
X158144895Y-135423890D01*
X158412958Y-135323908D01*
X158664047Y-135186803D01*
X158806561Y-135080116D01*
X158806562Y-135080115D01*
X157911679Y-134185231D01*
X157939995Y-134173503D01*
X158064472Y-134090330D01*
X158170330Y-133984472D01*
X158253503Y-133859995D01*
X158265231Y-133831678D01*
X159160115Y-134726562D01*
X159160116Y-134726561D01*
X159266803Y-134584047D01*
X159403908Y-134332958D01*
X159503890Y-134064895D01*
X159564699Y-133785362D01*
X159585109Y-133500001D01*
X159585109Y-133499998D01*
X159564699Y-133214637D01*
X159503890Y-132935104D01*
X159403908Y-132667041D01*
X159266808Y-132415961D01*
X159266807Y-132415960D01*
X159160115Y-132273436D01*
X158265231Y-133168320D01*
X158253503Y-133140005D01*
X158170330Y-133015528D01*
X158064472Y-132909670D01*
X157939995Y-132826497D01*
X157911678Y-132814767D01*
X158774310Y-131952135D01*
X162919500Y-131952135D01*
X162919500Y-135047870D01*
X162919501Y-135047876D01*
X162925908Y-135107483D01*
X162976202Y-135242328D01*
X162976206Y-135242335D01*
X163062452Y-135357544D01*
X163062455Y-135357547D01*
X163177664Y-135443793D01*
X163177671Y-135443797D01*
X163312517Y-135494091D01*
X163312516Y-135494091D01*
X163319444Y-135494835D01*
X163372127Y-135500500D01*
X166467872Y-135500499D01*
X166527483Y-135494091D01*
X166662331Y-135443796D01*
X166777546Y-135357546D01*
X166863796Y-135242331D01*
X166914091Y-135107483D01*
X166920500Y-135047873D01*
X166920499Y-133499998D01*
X167994390Y-133499998D01*
X167994390Y-133500001D01*
X168014804Y-133785433D01*
X168075628Y-134065037D01*
X168075630Y-134065043D01*
X168075631Y-134065046D01*
X168161222Y-134294523D01*
X168175635Y-134333166D01*
X168312770Y-134584309D01*
X168312775Y-134584317D01*
X168484254Y-134813387D01*
X168484270Y-134813405D01*
X168686594Y-135015729D01*
X168686612Y-135015745D01*
X168915682Y-135187224D01*
X168915690Y-135187229D01*
X169166833Y-135324364D01*
X169166832Y-135324364D01*
X169166836Y-135324365D01*
X169166839Y-135324367D01*
X169434954Y-135424369D01*
X169434960Y-135424370D01*
X169434962Y-135424371D01*
X169714566Y-135485195D01*
X169714568Y-135485195D01*
X169714572Y-135485196D01*
X169968220Y-135503337D01*
X169999999Y-135505610D01*
X170000000Y-135505610D01*
X170000001Y-135505610D01*
X170028595Y-135503564D01*
X170285428Y-135485196D01*
X170475742Y-135443796D01*
X170565037Y-135424371D01*
X170565037Y-135424370D01*
X170565046Y-135424369D01*
X170833161Y-135324367D01*
X171084315Y-135187226D01*
X171313395Y-135015739D01*
X171515739Y-134813395D01*
X171687226Y-134584315D01*
X171824367Y-134333161D01*
X171924369Y-134065046D01*
X171962448Y-133889999D01*
X171985195Y-133785433D01*
X171985195Y-133785432D01*
X171985196Y-133785428D01*
X172005610Y-133500000D01*
X172005610Y-133499998D01*
X173074891Y-133499998D01*
X173074891Y-133500001D01*
X173095300Y-133785362D01*
X173156109Y-134064895D01*
X173256091Y-134332958D01*
X173393191Y-134584038D01*
X173393196Y-134584046D01*
X173499882Y-134726561D01*
X173499883Y-134726562D01*
X174394767Y-133831677D01*
X174406497Y-133859995D01*
X174489670Y-133984472D01*
X174595528Y-134090330D01*
X174720005Y-134173503D01*
X174748320Y-134185231D01*
X173853436Y-135080115D01*
X173995960Y-135186807D01*
X173995961Y-135186808D01*
X174247042Y-135323908D01*
X174247041Y-135323908D01*
X174515104Y-135423890D01*
X174794637Y-135484699D01*
X175079999Y-135505109D01*
X175080001Y-135505109D01*
X175365362Y-135484699D01*
X175644895Y-135423890D01*
X175912958Y-135323908D01*
X176164047Y-135186803D01*
X176306561Y-135080116D01*
X176306562Y-135080115D01*
X175411679Y-134185231D01*
X175439995Y-134173503D01*
X175564472Y-134090330D01*
X175670330Y-133984472D01*
X175753503Y-133859995D01*
X175765231Y-133831678D01*
X176660115Y-134726562D01*
X176660116Y-134726561D01*
X176766803Y-134584047D01*
X176903908Y-134332958D01*
X177003890Y-134064895D01*
X177064699Y-133785362D01*
X177085109Y-133500001D01*
X177085109Y-133499998D01*
X177064699Y-133214637D01*
X177003890Y-132935104D01*
X176903908Y-132667041D01*
X176766808Y-132415961D01*
X176766807Y-132415960D01*
X176660115Y-132273436D01*
X175765231Y-133168320D01*
X175753503Y-133140005D01*
X175670330Y-133015528D01*
X175564472Y-132909670D01*
X175439995Y-132826497D01*
X175411678Y-132814767D01*
X176306562Y-131919883D01*
X176306561Y-131919882D01*
X176164046Y-131813196D01*
X176164038Y-131813191D01*
X175912957Y-131676091D01*
X175912958Y-131676091D01*
X175644895Y-131576109D01*
X175365362Y-131515300D01*
X175080001Y-131494891D01*
X175079999Y-131494891D01*
X174794637Y-131515300D01*
X174515104Y-131576109D01*
X174247041Y-131676091D01*
X173995961Y-131813191D01*
X173995953Y-131813196D01*
X173853437Y-131919882D01*
X173853436Y-131919883D01*
X174748321Y-132814767D01*
X174720005Y-132826497D01*
X174595528Y-132909670D01*
X174489670Y-133015528D01*
X174406497Y-133140005D01*
X174394768Y-133168321D01*
X173499883Y-132273436D01*
X173499882Y-132273437D01*
X173393196Y-132415953D01*
X173393191Y-132415961D01*
X173256091Y-132667041D01*
X173156109Y-132935104D01*
X173095300Y-133214637D01*
X173074891Y-133499998D01*
X172005610Y-133499998D01*
X171985196Y-133214572D01*
X171947220Y-133040000D01*
X171924371Y-132934962D01*
X171924370Y-132934960D01*
X171924369Y-132934954D01*
X171824367Y-132666839D01*
X171791051Y-132605826D01*
X171687229Y-132415690D01*
X171687224Y-132415682D01*
X171515745Y-132186612D01*
X171515729Y-132186594D01*
X171313405Y-131984270D01*
X171313387Y-131984254D01*
X171084317Y-131812775D01*
X171084309Y-131812770D01*
X170833166Y-131675635D01*
X170833167Y-131675635D01*
X170659774Y-131610963D01*
X170565046Y-131575631D01*
X170565043Y-131575630D01*
X170565037Y-131575628D01*
X170285433Y-131514804D01*
X170000001Y-131494390D01*
X169999999Y-131494390D01*
X169714566Y-131514804D01*
X169434962Y-131575628D01*
X169166833Y-131675635D01*
X168915690Y-131812770D01*
X168915682Y-131812775D01*
X168686612Y-131984254D01*
X168686594Y-131984270D01*
X168484270Y-132186594D01*
X168484254Y-132186612D01*
X168312775Y-132415682D01*
X168312770Y-132415690D01*
X168175635Y-132666833D01*
X168075628Y-132934962D01*
X168014804Y-133214566D01*
X167994390Y-133499998D01*
X166920499Y-133499998D01*
X166920499Y-131952128D01*
X166914091Y-131892517D01*
X166902866Y-131862422D01*
X166863797Y-131757671D01*
X166863793Y-131757664D01*
X166777547Y-131642455D01*
X166777544Y-131642452D01*
X166662335Y-131556206D01*
X166662328Y-131556202D01*
X166527482Y-131505908D01*
X166527483Y-131505908D01*
X166467883Y-131499501D01*
X166467881Y-131499500D01*
X166467873Y-131499500D01*
X166467864Y-131499500D01*
X163372129Y-131499500D01*
X163372123Y-131499501D01*
X163312516Y-131505908D01*
X163177671Y-131556202D01*
X163177664Y-131556206D01*
X163062455Y-131642452D01*
X163062452Y-131642455D01*
X162976206Y-131757664D01*
X162976202Y-131757671D01*
X162925908Y-131892517D01*
X162919501Y-131952116D01*
X162919501Y-131952123D01*
X162919500Y-131952135D01*
X158774310Y-131952135D01*
X158806562Y-131919883D01*
X158806561Y-131919882D01*
X158664046Y-131813196D01*
X158664038Y-131813191D01*
X158412957Y-131676091D01*
X158412958Y-131676091D01*
X158144895Y-131576109D01*
X157865362Y-131515300D01*
X157580001Y-131494891D01*
X157579999Y-131494891D01*
X157294637Y-131515300D01*
X157015104Y-131576109D01*
X156747041Y-131676091D01*
X156495961Y-131813191D01*
X156495953Y-131813196D01*
X156353437Y-131919882D01*
X156353436Y-131919883D01*
X157248321Y-132814767D01*
X157220005Y-132826497D01*
X157095528Y-132909670D01*
X156989670Y-133015528D01*
X156906497Y-133140005D01*
X156894768Y-133168321D01*
X155999883Y-132273436D01*
X155999882Y-132273437D01*
X155893196Y-132415953D01*
X155893191Y-132415961D01*
X155756091Y-132667041D01*
X155656109Y-132935104D01*
X155595300Y-133214637D01*
X155574891Y-133499998D01*
X154505610Y-133499998D01*
X154485196Y-133214572D01*
X154447220Y-133040000D01*
X154424371Y-132934962D01*
X154424370Y-132934960D01*
X154424369Y-132934954D01*
X154324367Y-132666839D01*
X154291051Y-132605826D01*
X154187229Y-132415690D01*
X154187224Y-132415682D01*
X154015745Y-132186612D01*
X154015729Y-132186594D01*
X153813405Y-131984270D01*
X153813387Y-131984254D01*
X153584317Y-131812775D01*
X153584309Y-131812770D01*
X153333166Y-131675635D01*
X153333167Y-131675635D01*
X153159774Y-131610963D01*
X153065046Y-131575631D01*
X153065043Y-131575630D01*
X153065037Y-131575628D01*
X152785433Y-131514804D01*
X152500001Y-131494390D01*
X152499999Y-131494390D01*
X152214566Y-131514804D01*
X151934962Y-131575628D01*
X151666833Y-131675635D01*
X151415690Y-131812770D01*
X151415682Y-131812775D01*
X151186612Y-131984254D01*
X151186594Y-131984270D01*
X150984270Y-132186594D01*
X150984254Y-132186612D01*
X150812775Y-132415682D01*
X150812770Y-132415690D01*
X150675635Y-132666833D01*
X150575628Y-132934962D01*
X150514804Y-133214566D01*
X150494390Y-133499998D01*
X149420499Y-133499998D01*
X149420499Y-131952128D01*
X149414091Y-131892517D01*
X149402866Y-131862422D01*
X149363797Y-131757671D01*
X149363793Y-131757664D01*
X149277547Y-131642455D01*
X149277544Y-131642452D01*
X149162335Y-131556206D01*
X149162328Y-131556202D01*
X149027482Y-131505908D01*
X149027483Y-131505908D01*
X148967883Y-131499501D01*
X148967881Y-131499500D01*
X148967873Y-131499500D01*
X148967864Y-131499500D01*
X145872129Y-131499500D01*
X145872123Y-131499501D01*
X145812516Y-131505908D01*
X145677671Y-131556202D01*
X145677664Y-131556206D01*
X145562455Y-131642452D01*
X145562452Y-131642455D01*
X145476206Y-131757664D01*
X145476202Y-131757671D01*
X145425908Y-131892517D01*
X145419501Y-131952116D01*
X145419501Y-131952123D01*
X145419500Y-131952135D01*
X138000500Y-131952135D01*
X138000500Y-125999999D01*
X151214357Y-125999999D01*
X151214357Y-126000000D01*
X151234884Y-126221535D01*
X151234885Y-126221537D01*
X151295769Y-126435523D01*
X151295775Y-126435538D01*
X151394938Y-126634683D01*
X151394943Y-126634691D01*
X151529020Y-126812238D01*
X151693437Y-126962123D01*
X151693439Y-126962125D01*
X151882595Y-127079245D01*
X151882596Y-127079245D01*
X151882599Y-127079247D01*
X152090060Y-127159618D01*
X152308757Y-127200500D01*
X152308759Y-127200500D01*
X152531241Y-127200500D01*
X152531243Y-127200500D01*
X152749940Y-127159618D01*
X152957401Y-127079247D01*
X153146562Y-126962124D01*
X153310981Y-126812236D01*
X153445058Y-126634689D01*
X153544229Y-126435528D01*
X153605115Y-126221536D01*
X153625643Y-126000000D01*
X153625643Y-125999999D01*
X168794357Y-125999999D01*
X168794357Y-126000000D01*
X168814884Y-126221535D01*
X168814885Y-126221537D01*
X168875769Y-126435523D01*
X168875775Y-126435538D01*
X168974938Y-126634683D01*
X168974943Y-126634691D01*
X169109020Y-126812238D01*
X169273437Y-126962123D01*
X169273439Y-126962125D01*
X169462595Y-127079245D01*
X169462596Y-127079245D01*
X169462599Y-127079247D01*
X169670060Y-127159618D01*
X169888757Y-127200500D01*
X169888759Y-127200500D01*
X170111241Y-127200500D01*
X170111243Y-127200500D01*
X170329940Y-127159618D01*
X170537401Y-127079247D01*
X170726562Y-126962124D01*
X170890981Y-126812236D01*
X171025058Y-126634689D01*
X171124229Y-126435528D01*
X171185115Y-126221536D01*
X171205643Y-126000000D01*
X171185115Y-125778464D01*
X171124229Y-125564472D01*
X171124224Y-125564461D01*
X171025061Y-125365316D01*
X171025056Y-125365308D01*
X170890979Y-125187761D01*
X170726562Y-125037876D01*
X170726560Y-125037874D01*
X170537404Y-124920754D01*
X170537398Y-124920752D01*
X170329940Y-124840382D01*
X170111243Y-124799500D01*
X169888757Y-124799500D01*
X169670060Y-124840382D01*
X169538864Y-124891207D01*
X169462601Y-124920752D01*
X169462595Y-124920754D01*
X169273439Y-125037874D01*
X169273437Y-125037876D01*
X169109020Y-125187761D01*
X168974943Y-125365308D01*
X168974938Y-125365316D01*
X168875775Y-125564461D01*
X168875769Y-125564476D01*
X168814885Y-125778462D01*
X168814884Y-125778464D01*
X168794357Y-125999999D01*
X153625643Y-125999999D01*
X153605115Y-125778464D01*
X153544229Y-125564472D01*
X153544224Y-125564461D01*
X153445061Y-125365316D01*
X153445056Y-125365308D01*
X153310979Y-125187761D01*
X153146562Y-125037876D01*
X153146560Y-125037874D01*
X152957404Y-124920754D01*
X152957398Y-124920752D01*
X152749940Y-124840382D01*
X152531243Y-124799500D01*
X152308757Y-124799500D01*
X152090060Y-124840382D01*
X151958864Y-124891207D01*
X151882601Y-124920752D01*
X151882595Y-124920754D01*
X151693439Y-125037874D01*
X151693437Y-125037876D01*
X151529020Y-125187761D01*
X151394943Y-125365308D01*
X151394938Y-125365316D01*
X151295775Y-125564461D01*
X151295769Y-125564476D01*
X151234885Y-125778462D01*
X151234884Y-125778464D01*
X151214357Y-125999999D01*
X138000500Y-125999999D01*
X138000500Y-123499997D01*
X143695034Y-123499997D01*
X143695034Y-123500002D01*
X143714858Y-123726599D01*
X143714860Y-123726610D01*
X143773730Y-123946317D01*
X143773735Y-123946331D01*
X143869863Y-124152478D01*
X143920974Y-124225472D01*
X144600000Y-123546446D01*
X144600000Y-123552661D01*
X144627259Y-123654394D01*
X144679920Y-123745606D01*
X144754394Y-123820080D01*
X144845606Y-123872741D01*
X144947339Y-123900000D01*
X144953553Y-123900000D01*
X144274526Y-124579025D01*
X144347513Y-124630132D01*
X144347521Y-124630136D01*
X144553668Y-124726264D01*
X144553682Y-124726269D01*
X144773389Y-124785139D01*
X144773400Y-124785141D01*
X144999998Y-124804966D01*
X145000002Y-124804966D01*
X145226599Y-124785141D01*
X145226610Y-124785139D01*
X145446317Y-124726269D01*
X145446331Y-124726264D01*
X145652478Y-124630136D01*
X145725471Y-124579024D01*
X145046447Y-123900000D01*
X145052661Y-123900000D01*
X145154394Y-123872741D01*
X145245606Y-123820080D01*
X145320080Y-123745606D01*
X145372741Y-123654394D01*
X145400000Y-123552661D01*
X145400000Y-123546447D01*
X146084197Y-124230644D01*
X146133192Y-124240491D01*
X146183375Y-124289106D01*
X146198049Y-124344632D01*
X146199099Y-124344576D01*
X146199146Y-124344571D01*
X146199146Y-124344573D01*
X146199324Y-124344564D01*
X146199501Y-124347876D01*
X146205908Y-124407483D01*
X146256202Y-124542328D01*
X146256206Y-124542335D01*
X146342452Y-124657544D01*
X146342455Y-124657547D01*
X146457664Y-124743793D01*
X146457671Y-124743797D01*
X146592517Y-124794091D01*
X146592516Y-124794091D01*
X146599444Y-124794835D01*
X146652127Y-124800500D01*
X148347872Y-124800499D01*
X148407483Y-124794091D01*
X148542331Y-124743796D01*
X148657546Y-124657546D01*
X148743796Y-124542331D01*
X148794091Y-124407483D01*
X148800500Y-124347873D01*
X148800499Y-123499997D01*
X161195034Y-123499997D01*
X161195034Y-123500002D01*
X161214858Y-123726599D01*
X161214860Y-123726610D01*
X161273730Y-123946317D01*
X161273735Y-123946331D01*
X161369863Y-124152478D01*
X161420974Y-124225472D01*
X162100000Y-123546446D01*
X162100000Y-123552661D01*
X162127259Y-123654394D01*
X162179920Y-123745606D01*
X162254394Y-123820080D01*
X162345606Y-123872741D01*
X162447339Y-123900000D01*
X162453553Y-123900000D01*
X161774526Y-124579025D01*
X161847513Y-124630132D01*
X161847521Y-124630136D01*
X162053668Y-124726264D01*
X162053682Y-124726269D01*
X162273389Y-124785139D01*
X162273400Y-124785141D01*
X162499998Y-124804966D01*
X162500002Y-124804966D01*
X162726599Y-124785141D01*
X162726610Y-124785139D01*
X162946317Y-124726269D01*
X162946331Y-124726264D01*
X163152478Y-124630136D01*
X163225471Y-124579024D01*
X162546447Y-123900000D01*
X162552661Y-123900000D01*
X162654394Y-123872741D01*
X162745606Y-123820080D01*
X162820080Y-123745606D01*
X162872741Y-123654394D01*
X162900000Y-123552661D01*
X162900000Y-123546447D01*
X163584197Y-124230644D01*
X163633192Y-124240491D01*
X163683375Y-124289106D01*
X163698049Y-124344632D01*
X163699099Y-124344576D01*
X163699146Y-124344571D01*
X163699146Y-124344573D01*
X163699324Y-124344564D01*
X163699501Y-124347876D01*
X163705908Y-124407483D01*
X163756202Y-124542328D01*
X163756206Y-124542335D01*
X163842452Y-124657544D01*
X163842455Y-124657547D01*
X163957664Y-124743793D01*
X163957671Y-124743797D01*
X164092517Y-124794091D01*
X164092516Y-124794091D01*
X164099444Y-124794835D01*
X164152127Y-124800500D01*
X165847872Y-124800499D01*
X165907483Y-124794091D01*
X166042331Y-124743796D01*
X166157546Y-124657546D01*
X166243796Y-124542331D01*
X166294091Y-124407483D01*
X166300500Y-124347873D01*
X166300499Y-122652128D01*
X166294091Y-122592517D01*
X166260436Y-122502284D01*
X166243797Y-122457671D01*
X166243793Y-122457664D01*
X166157547Y-122342455D01*
X166157544Y-122342452D01*
X166042335Y-122256206D01*
X166042328Y-122256202D01*
X165907482Y-122205908D01*
X165907483Y-122205908D01*
X165847883Y-122199501D01*
X165847881Y-122199500D01*
X165847873Y-122199500D01*
X165847864Y-122199500D01*
X164152129Y-122199500D01*
X164152123Y-122199501D01*
X164092516Y-122205908D01*
X163957671Y-122256202D01*
X163957664Y-122256206D01*
X163842455Y-122342452D01*
X163842452Y-122342455D01*
X163756206Y-122457664D01*
X163756202Y-122457671D01*
X163705908Y-122592517D01*
X163700889Y-122639209D01*
X163699501Y-122652123D01*
X163699322Y-122655452D01*
X163697847Y-122655372D01*
X163679815Y-122716784D01*
X163627011Y-122762539D01*
X163583522Y-122770029D01*
X162900000Y-123453551D01*
X162900000Y-123447339D01*
X162872741Y-123345606D01*
X162820080Y-123254394D01*
X162745606Y-123179920D01*
X162654394Y-123127259D01*
X162552661Y-123100000D01*
X162546448Y-123100000D01*
X163225472Y-122420974D01*
X163152478Y-122369863D01*
X162946331Y-122273735D01*
X162946317Y-122273730D01*
X162726610Y-122214860D01*
X162726599Y-122214858D01*
X162500002Y-122195034D01*
X162499998Y-122195034D01*
X162273400Y-122214858D01*
X162273389Y-122214860D01*
X162053682Y-122273730D01*
X162053673Y-122273734D01*
X161847516Y-122369866D01*
X161847512Y-122369868D01*
X161774526Y-122420973D01*
X161774526Y-122420974D01*
X162453553Y-123100000D01*
X162447339Y-123100000D01*
X162345606Y-123127259D01*
X162254394Y-123179920D01*
X162179920Y-123254394D01*
X162127259Y-123345606D01*
X162100000Y-123447339D01*
X162100000Y-123453552D01*
X161420974Y-122774526D01*
X161420973Y-122774526D01*
X161369868Y-122847512D01*
X161369866Y-122847516D01*
X161273734Y-123053673D01*
X161273730Y-123053682D01*
X161214860Y-123273389D01*
X161214858Y-123273400D01*
X161195034Y-123499997D01*
X148800499Y-123499997D01*
X148800499Y-122652128D01*
X148794091Y-122592517D01*
X148760436Y-122502284D01*
X148743797Y-122457671D01*
X148743793Y-122457664D01*
X148657547Y-122342455D01*
X148657544Y-122342452D01*
X148542335Y-122256206D01*
X148542328Y-122256202D01*
X148407482Y-122205908D01*
X148407483Y-122205908D01*
X148347883Y-122199501D01*
X148347881Y-122199500D01*
X148347873Y-122199500D01*
X148347864Y-122199500D01*
X146652129Y-122199500D01*
X146652123Y-122199501D01*
X146592516Y-122205908D01*
X146457671Y-122256202D01*
X146457664Y-122256206D01*
X146342455Y-122342452D01*
X146342452Y-122342455D01*
X146256206Y-122457664D01*
X146256202Y-122457671D01*
X146205908Y-122592517D01*
X146200889Y-122639209D01*
X146199501Y-122652123D01*
X146199322Y-122655452D01*
X146197847Y-122655372D01*
X146179815Y-122716784D01*
X146127011Y-122762539D01*
X146083522Y-122770029D01*
X145400000Y-123453551D01*
X145400000Y-123447339D01*
X145372741Y-123345606D01*
X145320080Y-123254394D01*
X145245606Y-123179920D01*
X145154394Y-123127259D01*
X145052661Y-123100000D01*
X145046448Y-123100000D01*
X145725472Y-122420974D01*
X145652478Y-122369863D01*
X145446331Y-122273735D01*
X145446317Y-122273730D01*
X145226610Y-122214860D01*
X145226599Y-122214858D01*
X145000002Y-122195034D01*
X144999998Y-122195034D01*
X144773400Y-122214858D01*
X144773389Y-122214860D01*
X144553682Y-122273730D01*
X144553673Y-122273734D01*
X144347516Y-122369866D01*
X144347512Y-122369868D01*
X144274526Y-122420973D01*
X144274526Y-122420974D01*
X144953553Y-123100000D01*
X144947339Y-123100000D01*
X144845606Y-123127259D01*
X144754394Y-123179920D01*
X144679920Y-123254394D01*
X144627259Y-123345606D01*
X144600000Y-123447339D01*
X144600000Y-123453552D01*
X143920974Y-122774526D01*
X143920973Y-122774526D01*
X143869868Y-122847512D01*
X143869866Y-122847516D01*
X143773734Y-123053673D01*
X143773730Y-123053682D01*
X143714860Y-123273389D01*
X143714858Y-123273400D01*
X143695034Y-123499997D01*
X138000500Y-123499997D01*
X138000500Y-120919999D01*
X151214357Y-120919999D01*
X151214357Y-120920000D01*
X151234884Y-121141535D01*
X151234885Y-121141537D01*
X151295769Y-121355523D01*
X151295775Y-121355538D01*
X151394938Y-121554683D01*
X151394943Y-121554691D01*
X151529020Y-121732238D01*
X151693437Y-121882123D01*
X151693439Y-121882125D01*
X151882595Y-121999245D01*
X151882596Y-121999245D01*
X151882599Y-121999247D01*
X152090060Y-122079618D01*
X152308757Y-122120500D01*
X152308759Y-122120500D01*
X152531241Y-122120500D01*
X152531243Y-122120500D01*
X152749940Y-122079618D01*
X152957401Y-121999247D01*
X153146562Y-121882124D01*
X153310981Y-121732236D01*
X153445058Y-121554689D01*
X153544229Y-121355528D01*
X153605115Y-121141536D01*
X153625643Y-120920000D01*
X153605115Y-120698464D01*
X153544229Y-120484472D01*
X153544224Y-120484461D01*
X153445061Y-120285316D01*
X153445056Y-120285308D01*
X153310979Y-120107761D01*
X153146562Y-119957876D01*
X153146560Y-119957874D01*
X152957404Y-119840754D01*
X152957398Y-119840752D01*
X152749940Y-119760382D01*
X152531243Y-119719500D01*
X152308757Y-119719500D01*
X152090060Y-119760382D01*
X151962420Y-119809830D01*
X151882601Y-119840752D01*
X151882595Y-119840754D01*
X151693439Y-119957874D01*
X151693437Y-119957876D01*
X151529020Y-120107761D01*
X151394943Y-120285308D01*
X151394938Y-120285316D01*
X151295775Y-120484461D01*
X151295769Y-120484476D01*
X151234885Y-120698462D01*
X151234884Y-120698464D01*
X151214357Y-120919999D01*
X138000500Y-120919999D01*
X138000500Y-112619999D01*
X148606881Y-112619999D01*
X148606881Y-112620000D01*
X148626514Y-112831884D01*
X148684750Y-113036559D01*
X148684750Y-113036560D01*
X148779596Y-113227037D01*
X148907836Y-113396852D01*
X149065090Y-113540208D01*
X149065092Y-113540210D01*
X149246007Y-113652228D01*
X149246013Y-113652231D01*
X149288048Y-113668515D01*
X149444434Y-113729099D01*
X149653604Y-113768200D01*
X149653606Y-113768200D01*
X149866394Y-113768200D01*
X149866396Y-113768200D01*
X150075566Y-113729099D01*
X150273989Y-113652230D01*
X150454909Y-113540209D01*
X150612165Y-113396851D01*
X150740402Y-113227039D01*
X150835251Y-113036555D01*
X150893485Y-112831885D01*
X150906529Y-112691118D01*
X150932315Y-112626181D01*
X150939384Y-112621117D01*
X150938224Y-112618882D01*
X151120616Y-112618882D01*
X151151693Y-112678751D01*
X151153471Y-112691118D01*
X151166514Y-112831884D01*
X151224750Y-113036559D01*
X151224750Y-113036560D01*
X151319596Y-113227037D01*
X151447836Y-113396852D01*
X151605090Y-113540208D01*
X151605092Y-113540210D01*
X151786007Y-113652228D01*
X151786013Y-113652231D01*
X151828048Y-113668515D01*
X151984434Y-113729099D01*
X152193604Y-113768200D01*
X152193606Y-113768200D01*
X152406394Y-113768200D01*
X152406396Y-113768200D01*
X152615566Y-113729099D01*
X152813989Y-113652230D01*
X152994909Y-113540209D01*
X153152165Y-113396851D01*
X153280402Y-113227039D01*
X153375251Y-113036555D01*
X153433485Y-112831885D01*
X153446780Y-112688407D01*
X153472565Y-112623473D01*
X153529365Y-112582785D01*
X153599146Y-112579265D01*
X153659753Y-112614030D01*
X153691943Y-112676042D01*
X153693721Y-112688409D01*
X153707008Y-112831793D01*
X153765217Y-113036372D01*
X153860025Y-113226775D01*
X153868477Y-113237968D01*
X154446300Y-112660146D01*
X154446300Y-112671832D01*
X154473130Y-112771962D01*
X154524962Y-112861737D01*
X154598263Y-112935038D01*
X154688038Y-112986870D01*
X154788168Y-113013700D01*
X154799853Y-113013700D01*
X154224662Y-113588889D01*
X154326235Y-113651780D01*
X154326236Y-113651781D01*
X154524563Y-113728613D01*
X154524573Y-113728616D01*
X154733653Y-113767700D01*
X154946347Y-113767700D01*
X155155426Y-113728616D01*
X155155436Y-113728613D01*
X155353765Y-113651780D01*
X155353767Y-113651779D01*
X155455336Y-113588889D01*
X154880148Y-113013700D01*
X154891832Y-113013700D01*
X154991962Y-112986870D01*
X155081737Y-112935038D01*
X155155038Y-112861737D01*
X155206870Y-112771962D01*
X155233700Y-112671832D01*
X155233700Y-112660146D01*
X155811521Y-113237967D01*
X155819974Y-113226775D01*
X155914782Y-113036372D01*
X155972991Y-112831793D01*
X155986278Y-112688410D01*
X156012064Y-112623473D01*
X156017083Y-112619877D01*
X155988056Y-112563956D01*
X155986278Y-112551589D01*
X155972991Y-112408206D01*
X155914781Y-112203623D01*
X155914781Y-112203621D01*
X155819976Y-112013226D01*
X155819975Y-112013224D01*
X155811522Y-112002031D01*
X155811521Y-112002031D01*
X155233700Y-112579852D01*
X155233700Y-112568168D01*
X155206870Y-112468038D01*
X155155038Y-112378263D01*
X155081737Y-112304962D01*
X154991962Y-112253130D01*
X154891832Y-112226300D01*
X154880147Y-112226300D01*
X155455336Y-111651109D01*
X155455335Y-111651108D01*
X155353769Y-111588221D01*
X155353763Y-111588218D01*
X155155427Y-111511383D01*
X154946347Y-111472300D01*
X154733653Y-111472300D01*
X154590144Y-111499126D01*
X154520629Y-111492095D01*
X154465950Y-111448597D01*
X154443468Y-111382443D01*
X154460321Y-111314636D01*
X154479678Y-111289556D01*
X156421968Y-109347267D01*
X159184716Y-106584519D01*
X159246039Y-106551034D01*
X159272397Y-106548200D01*
X168841249Y-106548200D01*
X168908288Y-106567885D01*
X168954043Y-106620689D01*
X168963987Y-106689847D01*
X168942823Y-106743324D01*
X168869870Y-106847510D01*
X168869866Y-106847516D01*
X168773734Y-107053673D01*
X168773730Y-107053682D01*
X168714860Y-107273389D01*
X168714858Y-107273400D01*
X168695034Y-107499997D01*
X168695034Y-107500002D01*
X168714858Y-107726599D01*
X168714860Y-107726610D01*
X168773730Y-107946317D01*
X168773735Y-107946331D01*
X168869863Y-108152478D01*
X168920974Y-108225472D01*
X169600000Y-107546446D01*
X169600000Y-107552661D01*
X169627259Y-107654394D01*
X169679920Y-107745606D01*
X169754394Y-107820080D01*
X169845606Y-107872741D01*
X169947339Y-107900000D01*
X169953553Y-107900000D01*
X169274526Y-108579025D01*
X169347513Y-108630132D01*
X169347515Y-108630133D01*
X169362973Y-108637341D01*
X169415413Y-108683513D01*
X169434566Y-108750706D01*
X169414351Y-108817587D01*
X169362979Y-108862104D01*
X169347270Y-108869429D01*
X169347265Y-108869432D01*
X169160858Y-108999954D01*
X168999954Y-109160858D01*
X168869432Y-109347265D01*
X168869431Y-109347267D01*
X168773261Y-109553502D01*
X168773258Y-109553511D01*
X168714366Y-109773302D01*
X168714364Y-109773313D01*
X168694532Y-109999998D01*
X168694532Y-110000001D01*
X168714364Y-110226686D01*
X168714366Y-110226697D01*
X168773258Y-110446488D01*
X168773261Y-110446497D01*
X168869431Y-110652732D01*
X168869432Y-110652734D01*
X168999954Y-110839141D01*
X169160858Y-111000045D01*
X169160861Y-111000047D01*
X169347266Y-111130568D01*
X169553504Y-111226739D01*
X169773308Y-111285635D01*
X169935230Y-111299801D01*
X169999998Y-111305468D01*
X170000000Y-111305468D01*
X170000002Y-111305468D01*
X170056673Y-111300509D01*
X170226692Y-111285635D01*
X170446496Y-111226739D01*
X170652734Y-111130568D01*
X170839139Y-111000047D01*
X171000047Y-110839139D01*
X171130568Y-110652734D01*
X171226739Y-110446496D01*
X171285635Y-110226692D01*
X171305468Y-110000000D01*
X171285635Y-109773308D01*
X171226739Y-109553504D01*
X171130568Y-109347266D01*
X171000047Y-109160861D01*
X171000045Y-109160858D01*
X170839141Y-108999954D01*
X170652734Y-108869432D01*
X170652730Y-108869430D01*
X170637022Y-108862105D01*
X170584583Y-108815931D01*
X170565433Y-108748737D01*
X170585650Y-108681857D01*
X170637028Y-108637340D01*
X170652481Y-108630134D01*
X170725471Y-108579024D01*
X170046447Y-107900000D01*
X170052661Y-107900000D01*
X170154394Y-107872741D01*
X170245606Y-107820080D01*
X170320080Y-107745606D01*
X170372741Y-107654394D01*
X170400000Y-107552661D01*
X170400000Y-107546447D01*
X171079024Y-108225471D01*
X171130136Y-108152478D01*
X171226264Y-107946331D01*
X171226269Y-107946317D01*
X171285139Y-107726610D01*
X171285141Y-107726599D01*
X171304966Y-107500002D01*
X171304966Y-107499997D01*
X171285141Y-107273400D01*
X171285139Y-107273389D01*
X171226269Y-107053682D01*
X171226265Y-107053673D01*
X171130133Y-106847516D01*
X171130129Y-106847510D01*
X171057177Y-106743324D01*
X171034849Y-106677118D01*
X171051859Y-106609351D01*
X171102806Y-106561537D01*
X171158751Y-106548200D01*
X172739631Y-106548200D01*
X172739647Y-106548201D01*
X172747243Y-106548201D01*
X172905354Y-106548201D01*
X172905357Y-106548201D01*
X173058085Y-106507277D01*
X173108204Y-106478339D01*
X173195016Y-106428220D01*
X173306820Y-106316416D01*
X173306820Y-106316414D01*
X173317028Y-106306207D01*
X173317030Y-106306204D01*
X176974819Y-102648414D01*
X177036140Y-102614931D01*
X177085281Y-102614208D01*
X177207203Y-102637000D01*
X177207206Y-102637000D01*
X177425795Y-102637000D01*
X177425797Y-102637000D01*
X177640668Y-102596833D01*
X177844501Y-102517868D01*
X177961178Y-102445624D01*
X178028538Y-102427070D01*
X178095238Y-102447878D01*
X178114136Y-102463371D01*
X178451639Y-102800874D01*
X178451649Y-102800885D01*
X178455979Y-102805215D01*
X178455980Y-102805216D01*
X178567784Y-102917020D01*
X178654595Y-102967139D01*
X178654597Y-102967141D01*
X178692651Y-102989111D01*
X178704715Y-102996077D01*
X178857443Y-103037001D01*
X178857446Y-103037001D01*
X179023153Y-103037001D01*
X179023169Y-103037000D01*
X183870831Y-103037000D01*
X183870847Y-103037001D01*
X183878443Y-103037001D01*
X184036554Y-103037001D01*
X184036557Y-103037001D01*
X184189285Y-102996077D01*
X184239404Y-102967139D01*
X184326216Y-102917020D01*
X184438020Y-102805216D01*
X184438020Y-102805214D01*
X184448228Y-102795007D01*
X184448230Y-102795004D01*
X184594819Y-102648414D01*
X184656140Y-102614931D01*
X184705281Y-102614208D01*
X184827203Y-102637000D01*
X184827206Y-102637000D01*
X185045795Y-102637000D01*
X185045797Y-102637000D01*
X185260668Y-102596833D01*
X185464501Y-102517868D01*
X185650353Y-102402794D01*
X185811895Y-102255528D01*
X185943627Y-102081087D01*
X186041063Y-101885410D01*
X186087234Y-101723136D01*
X186124513Y-101664042D01*
X186187823Y-101634485D01*
X186257062Y-101643847D01*
X186310249Y-101689157D01*
X186325766Y-101723136D01*
X186371935Y-101885405D01*
X186371941Y-101885420D01*
X186469369Y-102081081D01*
X186469374Y-102081089D01*
X186601104Y-102255527D01*
X186601105Y-102255528D01*
X186762647Y-102402794D01*
X186762649Y-102402795D01*
X186762650Y-102402796D01*
X186948495Y-102517866D01*
X186948501Y-102517869D01*
X186991682Y-102534597D01*
X187152332Y-102596833D01*
X187367203Y-102637000D01*
X187367205Y-102637000D01*
X187585795Y-102637000D01*
X187585797Y-102637000D01*
X187800668Y-102596833D01*
X188004501Y-102517868D01*
X188190353Y-102402794D01*
X188351895Y-102255528D01*
X188483627Y-102081087D01*
X188581063Y-101885410D01*
X188627234Y-101723136D01*
X188664513Y-101664042D01*
X188727823Y-101634485D01*
X188797062Y-101643847D01*
X188850249Y-101689157D01*
X188865766Y-101723136D01*
X188911935Y-101885405D01*
X188911941Y-101885420D01*
X189009369Y-102081081D01*
X189009374Y-102081089D01*
X189141104Y-102255527D01*
X189141105Y-102255528D01*
X189302647Y-102402794D01*
X189302649Y-102402795D01*
X189302650Y-102402796D01*
X189488495Y-102517866D01*
X189488501Y-102517869D01*
X189531682Y-102534597D01*
X189692332Y-102596833D01*
X189907203Y-102637000D01*
X189907205Y-102637000D01*
X190125795Y-102637000D01*
X190125797Y-102637000D01*
X190340668Y-102596833D01*
X190544501Y-102517868D01*
X190730353Y-102402794D01*
X190891895Y-102255528D01*
X191023627Y-102081087D01*
X191121063Y-101885410D01*
X191133735Y-101840869D01*
X191171012Y-101781781D01*
X191234321Y-101752222D01*
X191303561Y-101761583D01*
X191356748Y-101806892D01*
X191376996Y-101873764D01*
X191377000Y-101874807D01*
X191377000Y-102184369D01*
X191377001Y-102184376D01*
X191383408Y-102243983D01*
X191433702Y-102378828D01*
X191433706Y-102378835D01*
X191519952Y-102494044D01*
X191519955Y-102494047D01*
X191635164Y-102580293D01*
X191635171Y-102580297D01*
X191770017Y-102630591D01*
X191770016Y-102630591D01*
X191776944Y-102631335D01*
X191829627Y-102637000D01*
X192811000Y-102636999D01*
X192878039Y-102656683D01*
X192923794Y-102709487D01*
X192935000Y-102760999D01*
X192935000Y-115418995D01*
X192915315Y-115486034D01*
X192862511Y-115531789D01*
X192793353Y-115541733D01*
X192788215Y-115540884D01*
X192738013Y-115531499D01*
X192665797Y-115518000D01*
X192447203Y-115518000D01*
X192232332Y-115558167D01*
X192232329Y-115558167D01*
X192232329Y-115558168D01*
X192028501Y-115637130D01*
X192028495Y-115637133D01*
X191842650Y-115752203D01*
X191681104Y-115899472D01*
X191549374Y-116073910D01*
X191549369Y-116073918D01*
X191451941Y-116269579D01*
X191451935Y-116269594D01*
X191405506Y-116432777D01*
X191368227Y-116491871D01*
X191304917Y-116521428D01*
X191235678Y-116512066D01*
X191182491Y-116466756D01*
X191166973Y-116432777D01*
X191120593Y-116269767D01*
X191023199Y-116074175D01*
X191010368Y-116057184D01*
X191010367Y-116057184D01*
X190438225Y-116629325D01*
X190412537Y-116533456D01*
X190356584Y-116436544D01*
X190277456Y-116357416D01*
X190180544Y-116301463D01*
X190084673Y-116275774D01*
X190654573Y-115705873D01*
X190654572Y-115705872D01*
X190544280Y-115637582D01*
X190544274Y-115637580D01*
X190340529Y-115558649D01*
X190125747Y-115518500D01*
X189907253Y-115518500D01*
X189692471Y-115558649D01*
X189692470Y-115558649D01*
X189488726Y-115637579D01*
X189378425Y-115705873D01*
X189948327Y-116275774D01*
X189852456Y-116301463D01*
X189755544Y-116357416D01*
X189676416Y-116436544D01*
X189620463Y-116533456D01*
X189594774Y-116629327D01*
X189022631Y-116057184D01*
X189009797Y-116074181D01*
X188912405Y-116269769D01*
X188912402Y-116269775D01*
X188866025Y-116432777D01*
X188828746Y-116491871D01*
X188765436Y-116521428D01*
X188696197Y-116512066D01*
X188643010Y-116466756D01*
X188627494Y-116432781D01*
X188581063Y-116269590D01*
X188581058Y-116269579D01*
X188483630Y-116073918D01*
X188483625Y-116073910D01*
X188351895Y-115899472D01*
X188190353Y-115752206D01*
X188190350Y-115752204D01*
X188190349Y-115752203D01*
X188004504Y-115637133D01*
X188004498Y-115637130D01*
X187801912Y-115558649D01*
X187800668Y-115558167D01*
X187585797Y-115518000D01*
X187367203Y-115518000D01*
X187152332Y-115558167D01*
X187152329Y-115558167D01*
X187152329Y-115558168D01*
X186948501Y-115637130D01*
X186948495Y-115637133D01*
X186762650Y-115752203D01*
X186601104Y-115899472D01*
X186469374Y-116073910D01*
X186469369Y-116073918D01*
X186371941Y-116269579D01*
X186371936Y-116269592D01*
X186325766Y-116431864D01*
X186288487Y-116490957D01*
X186225177Y-116520514D01*
X186155938Y-116511152D01*
X186102751Y-116465842D01*
X186087234Y-116431864D01*
X186082513Y-116415273D01*
X186041063Y-116269590D01*
X186041058Y-116269579D01*
X185943630Y-116073918D01*
X185943625Y-116073910D01*
X185811895Y-115899472D01*
X185650353Y-115752206D01*
X185650350Y-115752204D01*
X185650349Y-115752203D01*
X185464504Y-115637133D01*
X185464498Y-115637130D01*
X185261912Y-115558649D01*
X185260668Y-115558167D01*
X185045797Y-115518000D01*
X184827203Y-115518000D01*
X184612332Y-115558167D01*
X184612329Y-115558167D01*
X184612329Y-115558168D01*
X184408501Y-115637130D01*
X184408495Y-115637133D01*
X184222650Y-115752203D01*
X184061104Y-115899472D01*
X183929374Y-116073910D01*
X183929369Y-116073918D01*
X183831941Y-116269579D01*
X183831936Y-116269592D01*
X183785766Y-116431864D01*
X183748487Y-116490957D01*
X183685177Y-116520514D01*
X183615938Y-116511152D01*
X183562751Y-116465842D01*
X183547234Y-116431864D01*
X183542513Y-116415273D01*
X183501063Y-116269590D01*
X183501058Y-116269579D01*
X183403630Y-116073918D01*
X183403625Y-116073910D01*
X183271895Y-115899472D01*
X183110353Y-115752206D01*
X183110350Y-115752204D01*
X183110349Y-115752203D01*
X182924504Y-115637133D01*
X182924498Y-115637130D01*
X182721912Y-115558649D01*
X182720668Y-115558167D01*
X182505797Y-115518000D01*
X182287203Y-115518000D01*
X182072332Y-115558167D01*
X182072329Y-115558167D01*
X182072329Y-115558168D01*
X181868501Y-115637130D01*
X181868495Y-115637133D01*
X181682650Y-115752203D01*
X181521104Y-115899472D01*
X181389374Y-116073910D01*
X181389369Y-116073918D01*
X181291941Y-116269579D01*
X181291936Y-116269592D01*
X181245766Y-116431864D01*
X181208487Y-116490957D01*
X181145177Y-116520514D01*
X181075938Y-116511152D01*
X181022751Y-116465842D01*
X181007234Y-116431864D01*
X181002513Y-116415273D01*
X180961063Y-116269590D01*
X180961058Y-116269579D01*
X180863630Y-116073918D01*
X180863625Y-116073910D01*
X180731895Y-115899472D01*
X180570353Y-115752206D01*
X180570350Y-115752204D01*
X180570349Y-115752203D01*
X180384504Y-115637133D01*
X180384498Y-115637130D01*
X180181912Y-115558649D01*
X180180668Y-115558167D01*
X179965797Y-115518000D01*
X179747203Y-115518000D01*
X179532332Y-115558167D01*
X179532329Y-115558167D01*
X179532329Y-115558168D01*
X179328501Y-115637130D01*
X179328495Y-115637133D01*
X179142650Y-115752203D01*
X178981104Y-115899472D01*
X178849374Y-116073910D01*
X178849369Y-116073918D01*
X178751941Y-116269579D01*
X178751936Y-116269592D01*
X178705766Y-116431864D01*
X178668487Y-116490957D01*
X178605177Y-116520514D01*
X178535938Y-116511152D01*
X178482751Y-116465842D01*
X178467234Y-116431864D01*
X178462513Y-116415273D01*
X178421063Y-116269590D01*
X178421058Y-116269579D01*
X178323630Y-116073918D01*
X178323625Y-116073910D01*
X178191895Y-115899472D01*
X178030353Y-115752206D01*
X178030350Y-115752204D01*
X178030349Y-115752203D01*
X177844504Y-115637133D01*
X177844498Y-115637130D01*
X177641912Y-115558649D01*
X177640668Y-115558167D01*
X177425797Y-115518000D01*
X177207203Y-115518000D01*
X176992332Y-115558167D01*
X176992329Y-115558167D01*
X176992329Y-115558168D01*
X176788501Y-115637130D01*
X176788495Y-115637133D01*
X176602650Y-115752203D01*
X176441104Y-115899472D01*
X176329148Y-116047727D01*
X176273039Y-116089363D01*
X176230194Y-116097000D01*
X164297598Y-116097000D01*
X164230559Y-116077315D01*
X164209917Y-116060681D01*
X162099679Y-113950444D01*
X162066194Y-113889121D01*
X162071178Y-113819429D01*
X162113050Y-113763496D01*
X162178514Y-113739079D01*
X162210145Y-113740874D01*
X162353653Y-113767700D01*
X162566347Y-113767700D01*
X162775426Y-113728616D01*
X162775436Y-113728613D01*
X162973765Y-113651780D01*
X162973767Y-113651779D01*
X163075336Y-113588889D01*
X162500147Y-113013700D01*
X162511832Y-113013700D01*
X162611962Y-112986870D01*
X162701737Y-112935038D01*
X162775038Y-112861737D01*
X162826870Y-112771962D01*
X162853700Y-112671832D01*
X162853700Y-112660146D01*
X163431521Y-113237967D01*
X163439974Y-113226775D01*
X163534782Y-113036372D01*
X163592991Y-112831793D01*
X163606278Y-112688410D01*
X163632064Y-112623473D01*
X163636741Y-112620122D01*
X163822414Y-112620122D01*
X163851442Y-112676043D01*
X163853220Y-112688410D01*
X163866514Y-112831884D01*
X163924750Y-113036559D01*
X163924750Y-113036560D01*
X164019596Y-113227037D01*
X164147836Y-113396852D01*
X164305090Y-113540208D01*
X164305092Y-113540210D01*
X164486007Y-113652228D01*
X164486013Y-113652231D01*
X164528048Y-113668515D01*
X164684434Y-113729099D01*
X164893604Y-113768200D01*
X164893606Y-113768200D01*
X165106394Y-113768200D01*
X165106396Y-113768200D01*
X165315566Y-113729099D01*
X165513989Y-113652230D01*
X165694909Y-113540209D01*
X165852165Y-113396851D01*
X165980402Y-113227039D01*
X166075251Y-113036555D01*
X166133485Y-112831885D01*
X166153119Y-112620000D01*
X166133485Y-112408115D01*
X166075251Y-112203445D01*
X166075249Y-112203440D01*
X166075249Y-112203439D01*
X165980403Y-112012962D01*
X165852163Y-111843147D01*
X165694909Y-111699791D01*
X165694907Y-111699789D01*
X165513992Y-111587771D01*
X165513986Y-111587768D01*
X165316810Y-111511383D01*
X165315566Y-111510901D01*
X165106396Y-111471800D01*
X164893604Y-111471800D01*
X164684434Y-111510901D01*
X164684431Y-111510901D01*
X164684431Y-111510902D01*
X164486013Y-111587768D01*
X164486007Y-111587771D01*
X164305092Y-111699789D01*
X164305090Y-111699791D01*
X164147836Y-111843147D01*
X164019596Y-112012962D01*
X163924750Y-112203439D01*
X163924750Y-112203440D01*
X163866514Y-112408115D01*
X163853220Y-112551589D01*
X163827434Y-112616527D01*
X163822414Y-112620122D01*
X163636741Y-112620122D01*
X163637083Y-112619877D01*
X163608056Y-112563956D01*
X163606278Y-112551589D01*
X163592991Y-112408206D01*
X163534781Y-112203623D01*
X163534781Y-112203621D01*
X163439976Y-112013226D01*
X163439975Y-112013224D01*
X163431522Y-112002031D01*
X163431521Y-112002031D01*
X162853700Y-112579852D01*
X162853700Y-112568168D01*
X162826870Y-112468038D01*
X162775038Y-112378263D01*
X162701737Y-112304962D01*
X162611962Y-112253130D01*
X162511832Y-112226300D01*
X162500147Y-112226300D01*
X163075336Y-111651109D01*
X163075335Y-111651108D01*
X162973769Y-111588221D01*
X162973763Y-111588218D01*
X162775427Y-111511383D01*
X162566347Y-111472300D01*
X162353653Y-111472300D01*
X162144573Y-111511383D01*
X162144572Y-111511383D01*
X161946237Y-111588218D01*
X161844662Y-111651109D01*
X162419854Y-112226300D01*
X162408168Y-112226300D01*
X162308038Y-112253130D01*
X162218263Y-112304962D01*
X162144962Y-112378263D01*
X162093130Y-112468038D01*
X162066300Y-112568168D01*
X162066300Y-112579853D01*
X161488478Y-112002031D01*
X161488476Y-112002031D01*
X161480025Y-112013224D01*
X161480023Y-112013228D01*
X161385218Y-112203621D01*
X161385218Y-112203623D01*
X161327008Y-112408206D01*
X161313721Y-112551590D01*
X161287934Y-112616527D01*
X161231134Y-112657214D01*
X161161353Y-112660734D01*
X161100747Y-112625968D01*
X161068557Y-112563955D01*
X161066781Y-112551604D01*
X161053485Y-112408115D01*
X160995251Y-112203445D01*
X160995249Y-112203440D01*
X160995249Y-112203439D01*
X160900403Y-112012962D01*
X160772163Y-111843147D01*
X160614909Y-111699791D01*
X160614907Y-111699789D01*
X160433992Y-111587771D01*
X160433986Y-111587768D01*
X160236810Y-111511383D01*
X160235566Y-111510901D01*
X160026396Y-111471800D01*
X159813604Y-111471800D01*
X159604434Y-111510901D01*
X159604431Y-111510901D01*
X159604431Y-111510902D01*
X159406013Y-111587768D01*
X159406007Y-111587771D01*
X159225092Y-111699789D01*
X159225090Y-111699791D01*
X159067836Y-111843147D01*
X158939596Y-112012962D01*
X158844750Y-112203439D01*
X158844750Y-112203440D01*
X158786514Y-112408115D01*
X158773471Y-112548881D01*
X158747685Y-112613819D01*
X158690884Y-112654506D01*
X158621103Y-112658026D01*
X158560497Y-112623261D01*
X158528307Y-112561248D01*
X158526529Y-112548881D01*
X158513485Y-112408115D01*
X158484135Y-112304962D01*
X158455251Y-112203445D01*
X158455249Y-112203440D01*
X158455249Y-112203439D01*
X158360403Y-112012962D01*
X158232163Y-111843147D01*
X158074909Y-111699791D01*
X158074907Y-111699789D01*
X157893992Y-111587771D01*
X157893986Y-111587768D01*
X157696810Y-111511383D01*
X157695566Y-111510901D01*
X157486396Y-111471800D01*
X157273604Y-111471800D01*
X157064434Y-111510901D01*
X157064431Y-111510901D01*
X157064431Y-111510902D01*
X156866013Y-111587768D01*
X156866007Y-111587771D01*
X156685092Y-111699789D01*
X156685090Y-111699791D01*
X156527836Y-111843147D01*
X156399596Y-112012962D01*
X156304750Y-112203439D01*
X156304750Y-112203440D01*
X156246514Y-112408115D01*
X156233220Y-112551589D01*
X156207434Y-112616527D01*
X156202414Y-112620122D01*
X156231442Y-112676043D01*
X156233220Y-112688410D01*
X156246514Y-112831884D01*
X156304750Y-113036559D01*
X156304750Y-113036560D01*
X156399596Y-113227037D01*
X156527836Y-113396852D01*
X156685090Y-113540208D01*
X156685092Y-113540210D01*
X156866007Y-113652228D01*
X156866013Y-113652231D01*
X156908048Y-113668515D01*
X157064434Y-113729099D01*
X157273604Y-113768200D01*
X157273606Y-113768200D01*
X157486393Y-113768200D01*
X157486396Y-113768200D01*
X157584389Y-113749881D01*
X157653902Y-113756912D01*
X157694853Y-113784088D01*
X165311284Y-121400520D01*
X165311286Y-121400521D01*
X165311290Y-121400524D01*
X165448209Y-121479573D01*
X165448216Y-121479577D01*
X165600943Y-121520501D01*
X165600945Y-121520501D01*
X165766654Y-121520501D01*
X165766670Y-121520500D01*
X168887379Y-121520500D01*
X168954418Y-121540185D01*
X168986333Y-121569773D01*
X169109020Y-121732238D01*
X169273437Y-121882123D01*
X169273439Y-121882125D01*
X169462595Y-121999245D01*
X169462596Y-121999245D01*
X169462599Y-121999247D01*
X169670060Y-122079618D01*
X169888757Y-122120500D01*
X169888759Y-122120500D01*
X170111241Y-122120500D01*
X170111243Y-122120500D01*
X170329940Y-122079618D01*
X170537401Y-121999247D01*
X170726562Y-121882124D01*
X170890981Y-121732236D01*
X171025058Y-121554689D01*
X171124229Y-121355528D01*
X171185115Y-121141536D01*
X171205643Y-120920000D01*
X171185115Y-120698464D01*
X171124229Y-120484472D01*
X171124224Y-120484461D01*
X171025061Y-120285316D01*
X171025056Y-120285308D01*
X170890979Y-120107761D01*
X170726562Y-119957876D01*
X170726560Y-119957874D01*
X170537404Y-119840754D01*
X170537398Y-119840752D01*
X170329940Y-119760382D01*
X170111243Y-119719500D01*
X169888757Y-119719500D01*
X169670060Y-119760382D01*
X169542420Y-119809830D01*
X169462601Y-119840752D01*
X169462595Y-119840754D01*
X169273439Y-119957874D01*
X169273437Y-119957876D01*
X169109020Y-120107761D01*
X168986333Y-120270227D01*
X168930224Y-120311863D01*
X168887379Y-120319500D01*
X165980098Y-120319500D01*
X165913059Y-120299815D01*
X165892417Y-120283181D01*
X159560304Y-113951068D01*
X159526819Y-113889745D01*
X159531803Y-113820053D01*
X159573675Y-113764120D01*
X159639139Y-113739703D01*
X159670766Y-113741498D01*
X159813604Y-113768200D01*
X159813605Y-113768200D01*
X160026393Y-113768200D01*
X160026396Y-113768200D01*
X160124389Y-113749881D01*
X160193902Y-113756912D01*
X160234853Y-113784088D01*
X163628784Y-117178020D01*
X163765715Y-117257077D01*
X163918443Y-117298001D01*
X163918446Y-117298001D01*
X164084154Y-117298001D01*
X164084170Y-117298000D01*
X176230194Y-117298000D01*
X176297233Y-117317685D01*
X176329147Y-117347272D01*
X176441105Y-117495528D01*
X176602647Y-117642794D01*
X176602649Y-117642795D01*
X176602650Y-117642796D01*
X176788495Y-117757866D01*
X176788501Y-117757869D01*
X176831682Y-117774597D01*
X176992332Y-117836833D01*
X177207203Y-117877000D01*
X177207205Y-117877000D01*
X177425795Y-117877000D01*
X177425797Y-117877000D01*
X177640668Y-117836833D01*
X177844501Y-117757868D01*
X178030353Y-117642794D01*
X178191895Y-117495528D01*
X178323627Y-117321087D01*
X178421063Y-117125410D01*
X178467234Y-116963136D01*
X178504513Y-116904042D01*
X178567823Y-116874485D01*
X178637062Y-116883847D01*
X178690249Y-116929157D01*
X178705766Y-116963136D01*
X178751935Y-117125405D01*
X178751941Y-117125420D01*
X178849369Y-117321081D01*
X178849374Y-117321089D01*
X178893847Y-117379980D01*
X178981105Y-117495528D01*
X179142647Y-117642794D01*
X179197278Y-117676619D01*
X179243912Y-117728644D01*
X179256000Y-117782045D01*
X179256000Y-119809830D01*
X179255999Y-119809848D01*
X179255999Y-119975554D01*
X179255998Y-119975554D01*
X179296923Y-120128285D01*
X179325858Y-120178400D01*
X179325859Y-120178404D01*
X179325860Y-120178404D01*
X179375979Y-120265214D01*
X179375981Y-120265217D01*
X179494849Y-120384085D01*
X179494855Y-120384090D01*
X188627233Y-129516469D01*
X188660718Y-129577792D01*
X188659327Y-129636243D01*
X188624938Y-129764586D01*
X188624936Y-129764596D01*
X188604341Y-129999999D01*
X188604341Y-130000000D01*
X188624936Y-130235403D01*
X188624938Y-130235413D01*
X188686094Y-130463655D01*
X188686096Y-130463659D01*
X188686097Y-130463663D01*
X188690000Y-130472032D01*
X188785965Y-130677830D01*
X188785967Y-130677834D01*
X188894281Y-130832521D01*
X188921501Y-130871396D01*
X188921506Y-130871402D01*
X189043818Y-130993714D01*
X189077303Y-131055037D01*
X189072319Y-131124729D01*
X189030447Y-131180662D01*
X188999471Y-131197577D01*
X188867912Y-131246646D01*
X188867906Y-131246649D01*
X188752812Y-131332809D01*
X188752809Y-131332812D01*
X188666649Y-131447906D01*
X188666645Y-131447913D01*
X188616403Y-131582620D01*
X188616401Y-131582627D01*
X188610000Y-131642155D01*
X188610000Y-132290000D01*
X189526988Y-132290000D01*
X189494075Y-132347007D01*
X189460000Y-132474174D01*
X189460000Y-132605826D01*
X189494075Y-132732993D01*
X189526988Y-132790000D01*
X188610000Y-132790000D01*
X188610000Y-133437844D01*
X188616401Y-133497372D01*
X188616403Y-133497379D01*
X188666645Y-133632086D01*
X188666649Y-133632093D01*
X188752809Y-133747187D01*
X188752812Y-133747190D01*
X188867906Y-133833350D01*
X188867913Y-133833354D01*
X189002620Y-133883596D01*
X189002627Y-133883598D01*
X189062155Y-133889999D01*
X189062172Y-133890000D01*
X189710000Y-133890000D01*
X189710000Y-132973012D01*
X189767007Y-133005925D01*
X189894174Y-133040000D01*
X190025826Y-133040000D01*
X190152993Y-133005925D01*
X190210000Y-132973012D01*
X190210000Y-133890000D01*
X190857828Y-133890000D01*
X190857844Y-133889999D01*
X190917372Y-133883598D01*
X190917379Y-133883596D01*
X191052086Y-133833354D01*
X191052093Y-133833350D01*
X191167187Y-133747190D01*
X191167190Y-133747187D01*
X191253350Y-133632093D01*
X191253354Y-133632086D01*
X191302614Y-133500013D01*
X191344485Y-133444079D01*
X191409949Y-133419662D01*
X191478222Y-133434513D01*
X191506477Y-133455665D01*
X191628917Y-133578105D01*
X191822421Y-133713600D01*
X192036507Y-133813429D01*
X192036516Y-133813433D01*
X192250000Y-133870634D01*
X192250000Y-132973012D01*
X192307007Y-133005925D01*
X192434174Y-133040000D01*
X192565826Y-133040000D01*
X192692993Y-133005925D01*
X192750000Y-132973012D01*
X192750000Y-133870633D01*
X192963483Y-133813433D01*
X192963492Y-133813429D01*
X193177578Y-133713600D01*
X193371082Y-133578105D01*
X193538105Y-133411082D01*
X193673600Y-133217578D01*
X193773429Y-133003492D01*
X193773432Y-133003486D01*
X193830636Y-132790000D01*
X192933012Y-132790000D01*
X192965925Y-132732993D01*
X193000000Y-132605826D01*
X193000000Y-132474174D01*
X192965925Y-132347007D01*
X192933012Y-132290000D01*
X193830636Y-132290000D01*
X193830635Y-132289999D01*
X193773432Y-132076513D01*
X193773429Y-132076507D01*
X193673600Y-131862422D01*
X193673599Y-131862420D01*
X193538113Y-131668926D01*
X193538108Y-131668920D01*
X193371078Y-131501890D01*
X193185405Y-131371879D01*
X193141780Y-131317302D01*
X193134588Y-131247804D01*
X193166110Y-131185449D01*
X193185406Y-131168730D01*
X193297500Y-131090241D01*
X193371401Y-131038495D01*
X193538495Y-130871401D01*
X193674035Y-130677830D01*
X193773903Y-130463663D01*
X193835063Y-130235408D01*
X193855659Y-130000000D01*
X193835063Y-129764592D01*
X193800672Y-129636243D01*
X193802335Y-129566394D01*
X193832766Y-129516469D01*
X194130520Y-129218716D01*
X194209577Y-129081784D01*
X194250501Y-128929057D01*
X194250501Y-128770942D01*
X194250501Y-128763347D01*
X194250500Y-128763329D01*
X194250500Y-122791945D01*
X194250500Y-122791943D01*
X194209577Y-122639216D01*
X194182615Y-122592516D01*
X194130524Y-122502290D01*
X194130521Y-122502286D01*
X194130520Y-122502284D01*
X194018716Y-122390480D01*
X194018715Y-122390479D01*
X194014385Y-122386149D01*
X194014374Y-122386139D01*
X190300916Y-118672681D01*
X190267431Y-118611358D01*
X190272415Y-118541666D01*
X190314287Y-118485733D01*
X190379751Y-118461316D01*
X190388597Y-118461000D01*
X192691347Y-118461000D01*
X192691363Y-118461001D01*
X192698959Y-118461001D01*
X192857070Y-118461001D01*
X192857073Y-118461001D01*
X193009801Y-118420077D01*
X193059920Y-118391139D01*
X193146732Y-118341020D01*
X193258536Y-118229216D01*
X193258536Y-118229214D01*
X193268744Y-118219007D01*
X193268746Y-118219004D01*
X193894006Y-117593744D01*
X193894011Y-117593740D01*
X193904214Y-117583536D01*
X193904216Y-117583536D01*
X194016020Y-117471732D01*
X194068993Y-117379980D01*
X194095077Y-117334801D01*
X194136000Y-117182073D01*
X194136000Y-117023959D01*
X194136000Y-95946443D01*
X194130120Y-95924500D01*
X194105791Y-95833703D01*
X194095077Y-95793716D01*
X194095076Y-95793715D01*
X194095076Y-95793713D01*
X194016024Y-95656790D01*
X194016021Y-95656786D01*
X194016020Y-95656784D01*
X193904216Y-95544980D01*
X193904215Y-95544979D01*
X193899885Y-95540649D01*
X193899874Y-95540639D01*
X192686818Y-94327583D01*
X192653333Y-94266260D01*
X192650499Y-94239902D01*
X192650499Y-92892129D01*
X192650498Y-92892123D01*
X192644091Y-92832516D01*
X192593797Y-92697671D01*
X192593793Y-92697664D01*
X192507547Y-92582455D01*
X192507544Y-92582452D01*
X192392335Y-92496206D01*
X192392328Y-92496202D01*
X192260401Y-92446997D01*
X192204467Y-92405126D01*
X192180050Y-92339662D01*
X192194902Y-92271389D01*
X192216053Y-92243133D01*
X192338108Y-92121078D01*
X192473600Y-91927578D01*
X192573429Y-91713492D01*
X192573432Y-91713486D01*
X192630636Y-91500000D01*
X191733012Y-91500000D01*
X191765925Y-91442993D01*
X191800000Y-91315826D01*
X191800000Y-91184174D01*
X191765925Y-91057007D01*
X191733012Y-91000000D01*
X192630636Y-91000000D01*
X192630635Y-90999999D01*
X192573432Y-90786513D01*
X192573429Y-90786507D01*
X192473600Y-90572422D01*
X192473599Y-90572420D01*
X192338113Y-90378926D01*
X192338108Y-90378920D01*
X192171082Y-90211894D01*
X191977578Y-90076399D01*
X191763492Y-89976570D01*
X191763486Y-89976567D01*
X191550000Y-89919364D01*
X191550000Y-90816988D01*
X191492993Y-90784075D01*
X191365826Y-90750000D01*
X191234174Y-90750000D01*
X191107007Y-90784075D01*
X191050000Y-90816988D01*
X191050000Y-89919364D01*
X191049999Y-89919364D01*
X190836513Y-89976567D01*
X190836507Y-89976570D01*
X190622422Y-90076399D01*
X190622420Y-90076400D01*
X190428926Y-90211886D01*
X190428920Y-90211891D01*
X190261891Y-90378920D01*
X190261890Y-90378922D01*
X190131575Y-90565031D01*
X190076998Y-90608655D01*
X190007499Y-90615848D01*
X189945145Y-90584326D01*
X189928425Y-90565031D01*
X189798109Y-90378922D01*
X189798108Y-90378920D01*
X189631082Y-90211894D01*
X189437578Y-90076399D01*
X189223492Y-89976570D01*
X189223486Y-89976567D01*
X189010000Y-89919364D01*
X189010000Y-90816988D01*
X188952993Y-90784075D01*
X188825826Y-90750000D01*
X188694174Y-90750000D01*
X188567007Y-90784075D01*
X188510000Y-90816988D01*
X188510000Y-89919364D01*
X188509999Y-89919364D01*
X188296513Y-89976567D01*
X188296507Y-89976570D01*
X188082422Y-90076399D01*
X188082420Y-90076400D01*
X187888926Y-90211886D01*
X187888920Y-90211891D01*
X187721891Y-90378920D01*
X187721890Y-90378922D01*
X187591575Y-90565031D01*
X187536998Y-90608655D01*
X187467499Y-90615848D01*
X187405145Y-90584326D01*
X187388425Y-90565031D01*
X187258109Y-90378922D01*
X187258108Y-90378920D01*
X187091082Y-90211894D01*
X186897578Y-90076399D01*
X186683492Y-89976570D01*
X186683486Y-89976567D01*
X186470000Y-89919364D01*
X186470000Y-90816988D01*
X186412993Y-90784075D01*
X186285826Y-90750000D01*
X186154174Y-90750000D01*
X186027007Y-90784075D01*
X185970000Y-90816988D01*
X185970000Y-89919364D01*
X185969999Y-89919364D01*
X185756513Y-89976567D01*
X185756507Y-89976570D01*
X185542422Y-90076399D01*
X185542420Y-90076400D01*
X185348926Y-90211886D01*
X185348920Y-90211891D01*
X185181891Y-90378920D01*
X185181890Y-90378922D01*
X185051575Y-90565031D01*
X184996998Y-90608655D01*
X184927499Y-90615848D01*
X184865145Y-90584326D01*
X184848425Y-90565031D01*
X184718109Y-90378922D01*
X184718108Y-90378920D01*
X184551082Y-90211894D01*
X184357578Y-90076399D01*
X184143492Y-89976570D01*
X184143486Y-89976567D01*
X183930000Y-89919364D01*
X183930000Y-90816988D01*
X183872993Y-90784075D01*
X183745826Y-90750000D01*
X183614174Y-90750000D01*
X183487007Y-90784075D01*
X183430000Y-90816988D01*
X183430000Y-89919364D01*
X183429999Y-89919364D01*
X183216513Y-89976567D01*
X183216507Y-89976570D01*
X183002422Y-90076399D01*
X183002420Y-90076400D01*
X182808926Y-90211886D01*
X182808920Y-90211891D01*
X182641891Y-90378920D01*
X182641886Y-90378926D01*
X182506400Y-90572420D01*
X182506399Y-90572422D01*
X182406570Y-90786507D01*
X182406567Y-90786513D01*
X182349364Y-90999999D01*
X182349364Y-91000000D01*
X183246988Y-91000000D01*
X183214075Y-91057007D01*
X183180000Y-91184174D01*
X183180000Y-91315826D01*
X183214075Y-91442993D01*
X183246988Y-91500000D01*
X182349364Y-91500000D01*
X182406567Y-91713486D01*
X182406570Y-91713492D01*
X182506399Y-91927578D01*
X182641894Y-92121082D01*
X182808917Y-92288105D01*
X182994595Y-92418119D01*
X183038219Y-92472696D01*
X183045412Y-92542195D01*
X183013890Y-92604549D01*
X182994595Y-92621269D01*
X182808594Y-92751508D01*
X182641505Y-92918597D01*
X182505965Y-93112169D01*
X182505964Y-93112171D01*
X182406098Y-93326335D01*
X182406094Y-93326344D01*
X182344938Y-93554586D01*
X182344936Y-93554596D01*
X182324341Y-93789999D01*
X182324341Y-93790000D01*
X182344936Y-94025403D01*
X182344938Y-94025413D01*
X182406094Y-94253655D01*
X182406096Y-94253659D01*
X182406097Y-94253663D01*
X182486004Y-94425023D01*
X182505965Y-94467830D01*
X182505967Y-94467834D01*
X182614281Y-94622521D01*
X182641505Y-94661401D01*
X182808599Y-94828495D01*
X182905384Y-94896265D01*
X183002165Y-94964032D01*
X183002167Y-94964033D01*
X183002170Y-94964035D01*
X183119365Y-95018684D01*
X183176052Y-95045118D01*
X183228491Y-95091291D01*
X183247643Y-95158484D01*
X183227427Y-95225365D01*
X183176052Y-95269882D01*
X183002171Y-95350964D01*
X183002169Y-95350965D01*
X182808597Y-95486505D01*
X182641505Y-95653597D01*
X182505965Y-95847169D01*
X182505964Y-95847171D01*
X182406098Y-96061335D01*
X182406094Y-96061344D01*
X182344938Y-96289586D01*
X182344936Y-96289596D01*
X182324341Y-96524999D01*
X182324341Y-96525000D01*
X182344936Y-96760403D01*
X182344938Y-96760413D01*
X182379327Y-96888755D01*
X182377664Y-96958605D01*
X182347233Y-97008529D01*
X179487786Y-99867978D01*
X179375981Y-99979782D01*
X179375979Y-99979785D01*
X179325861Y-100066594D01*
X179325859Y-100066596D01*
X179296925Y-100116709D01*
X179296924Y-100116710D01*
X179296923Y-100116715D01*
X179255999Y-100269443D01*
X179255999Y-100269445D01*
X179255999Y-100372954D01*
X179236314Y-100439993D01*
X179197276Y-100478381D01*
X179142648Y-100512204D01*
X179142645Y-100512206D01*
X179048633Y-100597910D01*
X178985829Y-100628527D01*
X178916442Y-100620329D01*
X178862502Y-100575919D01*
X178857708Y-100568272D01*
X178776024Y-100426790D01*
X178776018Y-100426782D01*
X178347217Y-99997981D01*
X178347216Y-99997980D01*
X178260404Y-99947860D01*
X178260404Y-99947859D01*
X178260400Y-99947858D01*
X178210285Y-99918923D01*
X178057557Y-99877999D01*
X177899443Y-99877999D01*
X177891847Y-99877999D01*
X177891831Y-99878000D01*
X159448170Y-99878000D01*
X159448154Y-99877999D01*
X159440558Y-99877999D01*
X159282443Y-99877999D01*
X159206079Y-99898461D01*
X159129714Y-99918923D01*
X159129709Y-99918926D01*
X158992790Y-99997975D01*
X158992782Y-99997981D01*
X155154853Y-103835910D01*
X155093530Y-103869395D01*
X155044388Y-103870117D01*
X154946396Y-103851800D01*
X154733604Y-103851800D01*
X154524434Y-103890901D01*
X154524431Y-103890901D01*
X154524431Y-103890902D01*
X154326013Y-103967768D01*
X154326007Y-103967771D01*
X154145092Y-104079789D01*
X154145090Y-104079791D01*
X153987836Y-104223147D01*
X153859596Y-104392962D01*
X153764750Y-104583439D01*
X153764750Y-104583440D01*
X153706514Y-104788115D01*
X153693471Y-104928881D01*
X153667685Y-104993819D01*
X153660616Y-104998882D01*
X153691693Y-105058751D01*
X153693471Y-105071118D01*
X153706514Y-105211884D01*
X153764750Y-105416559D01*
X153764750Y-105416560D01*
X153859596Y-105607037D01*
X153987836Y-105776852D01*
X154145090Y-105920208D01*
X154145092Y-105920210D01*
X154326007Y-106032228D01*
X154326013Y-106032231D01*
X154368048Y-106048515D01*
X154524434Y-106109099D01*
X154733604Y-106148200D01*
X154733606Y-106148200D01*
X154946394Y-106148200D01*
X154946396Y-106148200D01*
X155155566Y-106109099D01*
X155353989Y-106032230D01*
X155534909Y-105920209D01*
X155692165Y-105776851D01*
X155820402Y-105607039D01*
X155915251Y-105416555D01*
X155973485Y-105211885D01*
X155986780Y-105068407D01*
X156012565Y-105003473D01*
X156069365Y-104962785D01*
X156139146Y-104959265D01*
X156199753Y-104994030D01*
X156231943Y-105056042D01*
X156233721Y-105068409D01*
X156247008Y-105211793D01*
X156305217Y-105416372D01*
X156400025Y-105606775D01*
X156408477Y-105617968D01*
X156986300Y-105040146D01*
X156986300Y-105051832D01*
X157013130Y-105151962D01*
X157064962Y-105241737D01*
X157138263Y-105315038D01*
X157228038Y-105366870D01*
X157328168Y-105393700D01*
X157339853Y-105393700D01*
X156764662Y-105968889D01*
X156866235Y-106031780D01*
X156866236Y-106031781D01*
X157064563Y-106108613D01*
X157064573Y-106108616D01*
X157273653Y-106147700D01*
X157486347Y-106147700D01*
X157629853Y-106120874D01*
X157699368Y-106127905D01*
X157754047Y-106171403D01*
X157776529Y-106237556D01*
X157759676Y-106305363D01*
X157740319Y-106330444D01*
X152614853Y-111455910D01*
X152553530Y-111489395D01*
X152504388Y-111490117D01*
X152406396Y-111471800D01*
X152193604Y-111471800D01*
X151984434Y-111510901D01*
X151984431Y-111510901D01*
X151984431Y-111510902D01*
X151786013Y-111587768D01*
X151786007Y-111587771D01*
X151605092Y-111699789D01*
X151605090Y-111699791D01*
X151447836Y-111843147D01*
X151319596Y-112012962D01*
X151224750Y-112203439D01*
X151224750Y-112203440D01*
X151166514Y-112408115D01*
X151153471Y-112548881D01*
X151127685Y-112613819D01*
X151120616Y-112618882D01*
X150938224Y-112618882D01*
X150908307Y-112561248D01*
X150906529Y-112548881D01*
X150893485Y-112408115D01*
X150864135Y-112304962D01*
X150835251Y-112203445D01*
X150835249Y-112203440D01*
X150835249Y-112203439D01*
X150740403Y-112012962D01*
X150612163Y-111843147D01*
X150454909Y-111699791D01*
X150454907Y-111699789D01*
X150273992Y-111587771D01*
X150273986Y-111587768D01*
X150076810Y-111511383D01*
X150075566Y-111510901D01*
X149866396Y-111471800D01*
X149653604Y-111471800D01*
X149444434Y-111510901D01*
X149444431Y-111510901D01*
X149444431Y-111510902D01*
X149246013Y-111587768D01*
X149246007Y-111587771D01*
X149065092Y-111699789D01*
X149065090Y-111699791D01*
X148907836Y-111843147D01*
X148779596Y-112012962D01*
X148684750Y-112203439D01*
X148684750Y-112203440D01*
X148626514Y-112408115D01*
X148606881Y-112619999D01*
X138000500Y-112619999D01*
X138000500Y-104999999D01*
X148607383Y-104999999D01*
X148607383Y-105000000D01*
X148627008Y-105211793D01*
X148685217Y-105416372D01*
X148780025Y-105606775D01*
X148788477Y-105617968D01*
X149366300Y-105040145D01*
X149366300Y-105051832D01*
X149393130Y-105151962D01*
X149444962Y-105241737D01*
X149518263Y-105315038D01*
X149608038Y-105366870D01*
X149708168Y-105393700D01*
X149719853Y-105393700D01*
X149144662Y-105968889D01*
X149246235Y-106031780D01*
X149246236Y-106031781D01*
X149444563Y-106108613D01*
X149444573Y-106108616D01*
X149653653Y-106147700D01*
X149866347Y-106147700D01*
X150075426Y-106108616D01*
X150075436Y-106108613D01*
X150273765Y-106031780D01*
X150273767Y-106031779D01*
X150375336Y-105968889D01*
X149800148Y-105393700D01*
X149811832Y-105393700D01*
X149911962Y-105366870D01*
X150001737Y-105315038D01*
X150075038Y-105241737D01*
X150126870Y-105151962D01*
X150153700Y-105051832D01*
X150153700Y-105040146D01*
X150731521Y-105617967D01*
X150739974Y-105606775D01*
X150834782Y-105416372D01*
X150892991Y-105211793D01*
X150906278Y-105068410D01*
X150932064Y-105003473D01*
X150936741Y-105000122D01*
X151122414Y-105000122D01*
X151151442Y-105056043D01*
X151153220Y-105068410D01*
X151166514Y-105211884D01*
X151224750Y-105416559D01*
X151224750Y-105416560D01*
X151319596Y-105607037D01*
X151447836Y-105776852D01*
X151605090Y-105920208D01*
X151605092Y-105920210D01*
X151786007Y-106032228D01*
X151786013Y-106032231D01*
X151828048Y-106048515D01*
X151984434Y-106109099D01*
X152193604Y-106148200D01*
X152193606Y-106148200D01*
X152406394Y-106148200D01*
X152406396Y-106148200D01*
X152615566Y-106109099D01*
X152813989Y-106032230D01*
X152994909Y-105920209D01*
X153152165Y-105776851D01*
X153280402Y-105607039D01*
X153375251Y-105416555D01*
X153433485Y-105211885D01*
X153446529Y-105071118D01*
X153472315Y-105006181D01*
X153479384Y-105001117D01*
X153448307Y-104941248D01*
X153446529Y-104928881D01*
X153433485Y-104788115D01*
X153404135Y-104684962D01*
X153375251Y-104583445D01*
X153375249Y-104583440D01*
X153375249Y-104583439D01*
X153280403Y-104392962D01*
X153168611Y-104244927D01*
X153152165Y-104223149D01*
X152994909Y-104079791D01*
X152994907Y-104079789D01*
X152813992Y-103967771D01*
X152813986Y-103967768D01*
X152616810Y-103891383D01*
X152615566Y-103890901D01*
X152406396Y-103851800D01*
X152193604Y-103851800D01*
X151984434Y-103890901D01*
X151984431Y-103890901D01*
X151984431Y-103890902D01*
X151786013Y-103967768D01*
X151786007Y-103967771D01*
X151605092Y-104079789D01*
X151605090Y-104079791D01*
X151447836Y-104223147D01*
X151319596Y-104392962D01*
X151224750Y-104583439D01*
X151224750Y-104583440D01*
X151166514Y-104788115D01*
X151153220Y-104931589D01*
X151127434Y-104996527D01*
X151122414Y-105000122D01*
X150936741Y-105000122D01*
X150937083Y-104999877D01*
X150908056Y-104943956D01*
X150906278Y-104931589D01*
X150892991Y-104788206D01*
X150834781Y-104583623D01*
X150834781Y-104583621D01*
X150739976Y-104393226D01*
X150739975Y-104393224D01*
X150731522Y-104382031D01*
X150731521Y-104382031D01*
X150153700Y-104959852D01*
X150153700Y-104948168D01*
X150126870Y-104848038D01*
X150075038Y-104758263D01*
X150001737Y-104684962D01*
X149911962Y-104633130D01*
X149811832Y-104606300D01*
X149800147Y-104606300D01*
X150375336Y-104031109D01*
X150375335Y-104031108D01*
X150273769Y-103968221D01*
X150273763Y-103968218D01*
X150075427Y-103891383D01*
X149866347Y-103852300D01*
X149653653Y-103852300D01*
X149444573Y-103891383D01*
X149444572Y-103891383D01*
X149246237Y-103968218D01*
X149144662Y-104031109D01*
X149719854Y-104606300D01*
X149708168Y-104606300D01*
X149608038Y-104633130D01*
X149518263Y-104684962D01*
X149444962Y-104758263D01*
X149393130Y-104848038D01*
X149366300Y-104948168D01*
X149366300Y-104959853D01*
X148788477Y-104382031D01*
X148788476Y-104382031D01*
X148780025Y-104393224D01*
X148780023Y-104393228D01*
X148685218Y-104583621D01*
X148685218Y-104583623D01*
X148627008Y-104788206D01*
X148607383Y-104999999D01*
X138000500Y-104999999D01*
X138000500Y-95079999D01*
X151374357Y-95079999D01*
X151374357Y-95080000D01*
X151394884Y-95301535D01*
X151394885Y-95301537D01*
X151455769Y-95515523D01*
X151455775Y-95515538D01*
X151554938Y-95714683D01*
X151554943Y-95714691D01*
X151689020Y-95892238D01*
X151853437Y-96042123D01*
X151853439Y-96042125D01*
X152042595Y-96159245D01*
X152042596Y-96159245D01*
X152042599Y-96159247D01*
X152250060Y-96239618D01*
X152468757Y-96280500D01*
X152468759Y-96280500D01*
X152691241Y-96280500D01*
X152691243Y-96280500D01*
X152909940Y-96239618D01*
X153117401Y-96159247D01*
X153306562Y-96042124D01*
X153470981Y-95892236D01*
X153605058Y-95714689D01*
X153704229Y-95515528D01*
X153765115Y-95301536D01*
X153785643Y-95080000D01*
X153785643Y-95079999D01*
X168874357Y-95079999D01*
X168874357Y-95080000D01*
X168894884Y-95301535D01*
X168894885Y-95301537D01*
X168955769Y-95515523D01*
X168955775Y-95515538D01*
X169054938Y-95714683D01*
X169054943Y-95714691D01*
X169189020Y-95892238D01*
X169353437Y-96042123D01*
X169353439Y-96042125D01*
X169542595Y-96159245D01*
X169542596Y-96159245D01*
X169542599Y-96159247D01*
X169750060Y-96239618D01*
X169968757Y-96280500D01*
X169968759Y-96280500D01*
X170191241Y-96280500D01*
X170191243Y-96280500D01*
X170409940Y-96239618D01*
X170617401Y-96159247D01*
X170806562Y-96042124D01*
X170970981Y-95892236D01*
X171105058Y-95714689D01*
X171204229Y-95515528D01*
X171265115Y-95301536D01*
X171285643Y-95080000D01*
X171284151Y-95063903D01*
X171265115Y-94858464D01*
X171265114Y-94858462D01*
X171256587Y-94828493D01*
X171204229Y-94644472D01*
X171120261Y-94475842D01*
X171105061Y-94445316D01*
X171105056Y-94445308D01*
X170970979Y-94267761D01*
X170806562Y-94117876D01*
X170806560Y-94117874D01*
X170617404Y-94000754D01*
X170617398Y-94000752D01*
X170409940Y-93920382D01*
X170191243Y-93879500D01*
X169968757Y-93879500D01*
X169750060Y-93920382D01*
X169618864Y-93971207D01*
X169542601Y-94000752D01*
X169542595Y-94000754D01*
X169353439Y-94117874D01*
X169353437Y-94117876D01*
X169189020Y-94267761D01*
X169054943Y-94445308D01*
X169054938Y-94445316D01*
X168955775Y-94644461D01*
X168955769Y-94644476D01*
X168894885Y-94858462D01*
X168894884Y-94858464D01*
X168874357Y-95079999D01*
X153785643Y-95079999D01*
X153784151Y-95063903D01*
X153765115Y-94858464D01*
X153765114Y-94858462D01*
X153756587Y-94828493D01*
X153704229Y-94644472D01*
X153620261Y-94475842D01*
X153605061Y-94445316D01*
X153605056Y-94445308D01*
X153470979Y-94267761D01*
X153306562Y-94117876D01*
X153306560Y-94117874D01*
X153117404Y-94000754D01*
X153117398Y-94000752D01*
X152909940Y-93920382D01*
X152691243Y-93879500D01*
X152468757Y-93879500D01*
X152250060Y-93920382D01*
X152118864Y-93971207D01*
X152042601Y-94000752D01*
X152042595Y-94000754D01*
X151853439Y-94117874D01*
X151853437Y-94117876D01*
X151689020Y-94267761D01*
X151554943Y-94445308D01*
X151554938Y-94445316D01*
X151455775Y-94644461D01*
X151455769Y-94644476D01*
X151394885Y-94858462D01*
X151394884Y-94858464D01*
X151374357Y-95079999D01*
X138000500Y-95079999D01*
X138000500Y-91652135D01*
X156199500Y-91652135D01*
X156199500Y-93347870D01*
X156199501Y-93347876D01*
X156205908Y-93407483D01*
X156256202Y-93542328D01*
X156256206Y-93542335D01*
X156342452Y-93657544D01*
X156342455Y-93657547D01*
X156457664Y-93743793D01*
X156457671Y-93743797D01*
X156592517Y-93794091D01*
X156592516Y-93794091D01*
X156599444Y-93794835D01*
X156652127Y-93800500D01*
X158347872Y-93800499D01*
X158407483Y-93794091D01*
X158542331Y-93743796D01*
X158657546Y-93657546D01*
X158743796Y-93542331D01*
X158794091Y-93407483D01*
X158800500Y-93347873D01*
X158800499Y-93347845D01*
X158800678Y-93344547D01*
X158802183Y-93344627D01*
X158820112Y-93283326D01*
X158872868Y-93237514D01*
X158916465Y-93229981D01*
X159600000Y-92546446D01*
X159600000Y-92552661D01*
X159627259Y-92654394D01*
X159679920Y-92745606D01*
X159754394Y-92820080D01*
X159845606Y-92872741D01*
X159947339Y-92900000D01*
X159953553Y-92900000D01*
X159274526Y-93579025D01*
X159347513Y-93630132D01*
X159347521Y-93630136D01*
X159553668Y-93726264D01*
X159553682Y-93726269D01*
X159773389Y-93785139D01*
X159773400Y-93785141D01*
X159999998Y-93804966D01*
X160000002Y-93804966D01*
X160226599Y-93785141D01*
X160226610Y-93785139D01*
X160446317Y-93726269D01*
X160446331Y-93726264D01*
X160652478Y-93630136D01*
X160725471Y-93579024D01*
X160046447Y-92900000D01*
X160052661Y-92900000D01*
X160154394Y-92872741D01*
X160245606Y-92820080D01*
X160320080Y-92745606D01*
X160372741Y-92654394D01*
X160400000Y-92552661D01*
X160400000Y-92546447D01*
X161079024Y-93225471D01*
X161130136Y-93152478D01*
X161226264Y-92946331D01*
X161226269Y-92946317D01*
X161285139Y-92726610D01*
X161285141Y-92726599D01*
X161304966Y-92500002D01*
X161304966Y-92499997D01*
X161285141Y-92273400D01*
X161285139Y-92273389D01*
X161226269Y-92053682D01*
X161226264Y-92053668D01*
X161130136Y-91847521D01*
X161130132Y-91847513D01*
X161079025Y-91774526D01*
X160400000Y-92453551D01*
X160400000Y-92447339D01*
X160372741Y-92345606D01*
X160320080Y-92254394D01*
X160245606Y-92179920D01*
X160154394Y-92127259D01*
X160052661Y-92100000D01*
X160046448Y-92100000D01*
X160494312Y-91652135D01*
X173779500Y-91652135D01*
X173779500Y-93347870D01*
X173779501Y-93347876D01*
X173785908Y-93407483D01*
X173836202Y-93542328D01*
X173836206Y-93542335D01*
X173922452Y-93657544D01*
X173922455Y-93657547D01*
X174037664Y-93743793D01*
X174037671Y-93743797D01*
X174172517Y-93794091D01*
X174172516Y-93794091D01*
X174179444Y-93794835D01*
X174232127Y-93800500D01*
X175927872Y-93800499D01*
X175987483Y-93794091D01*
X176122331Y-93743796D01*
X176237546Y-93657546D01*
X176323796Y-93542331D01*
X176374091Y-93407483D01*
X176380500Y-93347873D01*
X176380499Y-93347845D01*
X176380678Y-93344547D01*
X176382183Y-93344627D01*
X176400112Y-93283326D01*
X176452868Y-93237514D01*
X176496465Y-93229981D01*
X177180000Y-92546446D01*
X177180000Y-92552661D01*
X177207259Y-92654394D01*
X177259920Y-92745606D01*
X177334394Y-92820080D01*
X177425606Y-92872741D01*
X177527339Y-92900000D01*
X177533553Y-92900000D01*
X176854526Y-93579025D01*
X176927513Y-93630132D01*
X176927521Y-93630136D01*
X177133668Y-93726264D01*
X177133682Y-93726269D01*
X177353389Y-93785139D01*
X177353400Y-93785141D01*
X177579998Y-93804966D01*
X177580002Y-93804966D01*
X177806599Y-93785141D01*
X177806610Y-93785139D01*
X178026317Y-93726269D01*
X178026331Y-93726264D01*
X178232478Y-93630136D01*
X178305471Y-93579024D01*
X177626447Y-92900000D01*
X177632661Y-92900000D01*
X177734394Y-92872741D01*
X177825606Y-92820080D01*
X177900080Y-92745606D01*
X177952741Y-92654394D01*
X177980000Y-92552661D01*
X177980000Y-92546447D01*
X178659024Y-93225471D01*
X178710136Y-93152478D01*
X178806264Y-92946331D01*
X178806269Y-92946317D01*
X178865139Y-92726610D01*
X178865141Y-92726599D01*
X178884966Y-92500002D01*
X178884966Y-92499997D01*
X178865141Y-92273400D01*
X178865139Y-92273389D01*
X178806269Y-92053682D01*
X178806264Y-92053668D01*
X178710136Y-91847521D01*
X178710132Y-91847513D01*
X178659025Y-91774526D01*
X177980000Y-92453551D01*
X177980000Y-92447339D01*
X177952741Y-92345606D01*
X177900080Y-92254394D01*
X177825606Y-92179920D01*
X177734394Y-92127259D01*
X177632661Y-92100000D01*
X177626448Y-92100000D01*
X178305472Y-91420974D01*
X178232478Y-91369863D01*
X178026331Y-91273735D01*
X178026317Y-91273730D01*
X177806610Y-91214860D01*
X177806599Y-91214858D01*
X177580002Y-91195034D01*
X177579998Y-91195034D01*
X177353400Y-91214858D01*
X177353389Y-91214860D01*
X177133682Y-91273730D01*
X177133673Y-91273734D01*
X176927516Y-91369866D01*
X176927512Y-91369868D01*
X176854526Y-91420973D01*
X176854526Y-91420974D01*
X177533553Y-92100000D01*
X177527339Y-92100000D01*
X177425606Y-92127259D01*
X177334394Y-92179920D01*
X177259920Y-92254394D01*
X177207259Y-92345606D01*
X177180000Y-92447339D01*
X177180000Y-92453552D01*
X176495799Y-91769351D01*
X176446805Y-91759505D01*
X176396622Y-91710889D01*
X176381981Y-91655366D01*
X176380900Y-91655423D01*
X176380854Y-91655429D01*
X176380853Y-91655426D01*
X176380676Y-91655436D01*
X176380499Y-91652135D01*
X176380499Y-91652128D01*
X176374091Y-91592517D01*
X176339584Y-91500000D01*
X176323797Y-91457671D01*
X176323793Y-91457664D01*
X176237547Y-91342455D01*
X176237544Y-91342452D01*
X176122335Y-91256206D01*
X176122328Y-91256202D01*
X175987482Y-91205908D01*
X175987483Y-91205908D01*
X175927883Y-91199501D01*
X175927881Y-91199500D01*
X175927873Y-91199500D01*
X175927864Y-91199500D01*
X174232129Y-91199500D01*
X174232123Y-91199501D01*
X174172516Y-91205908D01*
X174037671Y-91256202D01*
X174037664Y-91256206D01*
X173922455Y-91342452D01*
X173922452Y-91342455D01*
X173836206Y-91457664D01*
X173836202Y-91457671D01*
X173785908Y-91592517D01*
X173779718Y-91650099D01*
X173779501Y-91652123D01*
X173779500Y-91652135D01*
X160494312Y-91652135D01*
X160725472Y-91420974D01*
X160652478Y-91369863D01*
X160446331Y-91273735D01*
X160446317Y-91273730D01*
X160226610Y-91214860D01*
X160226599Y-91214858D01*
X160000002Y-91195034D01*
X159999998Y-91195034D01*
X159773400Y-91214858D01*
X159773389Y-91214860D01*
X159553682Y-91273730D01*
X159553673Y-91273734D01*
X159347516Y-91369866D01*
X159347512Y-91369868D01*
X159274526Y-91420973D01*
X159274526Y-91420974D01*
X159953553Y-92100000D01*
X159947339Y-92100000D01*
X159845606Y-92127259D01*
X159754394Y-92179920D01*
X159679920Y-92254394D01*
X159627259Y-92345606D01*
X159600000Y-92447339D01*
X159600000Y-92453552D01*
X158915799Y-91769351D01*
X158866805Y-91759505D01*
X158816622Y-91710889D01*
X158801981Y-91655366D01*
X158800900Y-91655423D01*
X158800854Y-91655429D01*
X158800853Y-91655426D01*
X158800676Y-91655436D01*
X158800499Y-91652135D01*
X158800499Y-91652128D01*
X158794091Y-91592517D01*
X158759584Y-91500000D01*
X158743797Y-91457671D01*
X158743793Y-91457664D01*
X158657547Y-91342455D01*
X158657544Y-91342452D01*
X158542335Y-91256206D01*
X158542328Y-91256202D01*
X158407482Y-91205908D01*
X158407483Y-91205908D01*
X158347883Y-91199501D01*
X158347881Y-91199500D01*
X158347873Y-91199500D01*
X158347864Y-91199500D01*
X156652129Y-91199500D01*
X156652123Y-91199501D01*
X156592516Y-91205908D01*
X156457671Y-91256202D01*
X156457664Y-91256206D01*
X156342455Y-91342452D01*
X156342452Y-91342455D01*
X156256206Y-91457664D01*
X156256202Y-91457671D01*
X156205908Y-91592517D01*
X156199718Y-91650099D01*
X156199501Y-91652123D01*
X156199500Y-91652135D01*
X138000500Y-91652135D01*
X138000500Y-89999999D01*
X151374357Y-89999999D01*
X151374357Y-90000000D01*
X151394884Y-90221535D01*
X151394885Y-90221537D01*
X151455769Y-90435523D01*
X151455775Y-90435538D01*
X151554938Y-90634683D01*
X151554943Y-90634691D01*
X151689020Y-90812238D01*
X151853437Y-90962123D01*
X151853439Y-90962125D01*
X152042595Y-91079245D01*
X152042596Y-91079245D01*
X152042599Y-91079247D01*
X152250060Y-91159618D01*
X152468757Y-91200500D01*
X152468759Y-91200500D01*
X152691241Y-91200500D01*
X152691243Y-91200500D01*
X152909940Y-91159618D01*
X153117401Y-91079247D01*
X153306562Y-90962124D01*
X153470981Y-90812236D01*
X153605058Y-90634689D01*
X153704229Y-90435528D01*
X153765115Y-90221536D01*
X153785643Y-90000000D01*
X153785643Y-89999999D01*
X168874357Y-89999999D01*
X168874357Y-90000000D01*
X168894884Y-90221535D01*
X168894885Y-90221537D01*
X168955769Y-90435523D01*
X168955775Y-90435538D01*
X169054938Y-90634683D01*
X169054943Y-90634691D01*
X169189020Y-90812238D01*
X169353437Y-90962123D01*
X169353439Y-90962125D01*
X169542595Y-91079245D01*
X169542596Y-91079245D01*
X169542599Y-91079247D01*
X169750060Y-91159618D01*
X169968757Y-91200500D01*
X169968759Y-91200500D01*
X170191241Y-91200500D01*
X170191243Y-91200500D01*
X170409940Y-91159618D01*
X170617401Y-91079247D01*
X170806562Y-90962124D01*
X170970981Y-90812236D01*
X171105058Y-90634689D01*
X171204229Y-90435528D01*
X171265115Y-90221536D01*
X171285643Y-90000000D01*
X171265115Y-89778464D01*
X171204229Y-89564472D01*
X171204224Y-89564461D01*
X171105061Y-89365316D01*
X171105056Y-89365308D01*
X170970979Y-89187761D01*
X170806562Y-89037876D01*
X170806560Y-89037874D01*
X170617404Y-88920754D01*
X170617398Y-88920752D01*
X170409940Y-88840382D01*
X170191243Y-88799500D01*
X169968757Y-88799500D01*
X169750060Y-88840382D01*
X169618864Y-88891207D01*
X169542601Y-88920752D01*
X169542595Y-88920754D01*
X169353439Y-89037874D01*
X169353437Y-89037876D01*
X169189020Y-89187761D01*
X169054943Y-89365308D01*
X169054938Y-89365316D01*
X168955775Y-89564461D01*
X168955769Y-89564476D01*
X168894885Y-89778462D01*
X168894884Y-89778464D01*
X168874357Y-89999999D01*
X153785643Y-89999999D01*
X153765115Y-89778464D01*
X153704229Y-89564472D01*
X153704224Y-89564461D01*
X153605061Y-89365316D01*
X153605056Y-89365308D01*
X153470979Y-89187761D01*
X153306562Y-89037876D01*
X153306560Y-89037874D01*
X153117404Y-88920754D01*
X153117398Y-88920752D01*
X152909940Y-88840382D01*
X152691243Y-88799500D01*
X152468757Y-88799500D01*
X152250060Y-88840382D01*
X152118864Y-88891207D01*
X152042601Y-88920752D01*
X152042595Y-88920754D01*
X151853439Y-89037874D01*
X151853437Y-89037876D01*
X151689020Y-89187761D01*
X151554943Y-89365308D01*
X151554938Y-89365316D01*
X151455775Y-89564461D01*
X151455769Y-89564476D01*
X151394885Y-89778462D01*
X151394884Y-89778464D01*
X151374357Y-89999999D01*
X138000500Y-89999999D01*
X138000500Y-82499998D01*
X145414891Y-82499998D01*
X145414891Y-82500001D01*
X145435300Y-82785362D01*
X145496109Y-83064895D01*
X145596091Y-83332958D01*
X145733191Y-83584038D01*
X145733196Y-83584046D01*
X145839882Y-83726561D01*
X145839883Y-83726562D01*
X146734767Y-82831677D01*
X146746497Y-82859995D01*
X146829670Y-82984472D01*
X146935528Y-83090330D01*
X147060005Y-83173503D01*
X147088320Y-83185231D01*
X146193436Y-84080115D01*
X146335960Y-84186807D01*
X146335961Y-84186808D01*
X146587042Y-84323908D01*
X146587041Y-84323908D01*
X146855104Y-84423890D01*
X147134637Y-84484699D01*
X147419999Y-84505109D01*
X147420001Y-84505109D01*
X147705362Y-84484699D01*
X147984895Y-84423890D01*
X148252958Y-84323908D01*
X148504047Y-84186803D01*
X148646561Y-84080116D01*
X148646562Y-84080115D01*
X147751679Y-83185231D01*
X147779995Y-83173503D01*
X147904472Y-83090330D01*
X148010330Y-82984472D01*
X148093503Y-82859995D01*
X148105231Y-82831678D01*
X149000115Y-83726562D01*
X149000116Y-83726561D01*
X149106803Y-83584047D01*
X149243908Y-83332958D01*
X149343890Y-83064895D01*
X149404699Y-82785362D01*
X149425109Y-82500001D01*
X149425109Y-82499998D01*
X150494390Y-82499998D01*
X150494390Y-82500001D01*
X150514804Y-82785433D01*
X150575628Y-83065037D01*
X150575630Y-83065043D01*
X150575631Y-83065046D01*
X150637452Y-83230793D01*
X150675635Y-83333166D01*
X150812770Y-83584309D01*
X150812775Y-83584317D01*
X150984254Y-83813387D01*
X150984270Y-83813405D01*
X151186594Y-84015729D01*
X151186612Y-84015745D01*
X151415682Y-84187224D01*
X151415690Y-84187229D01*
X151666833Y-84324364D01*
X151666832Y-84324364D01*
X151666836Y-84324365D01*
X151666839Y-84324367D01*
X151934954Y-84424369D01*
X151934960Y-84424370D01*
X151934962Y-84424371D01*
X152214566Y-84485195D01*
X152214568Y-84485195D01*
X152214572Y-84485196D01*
X152468220Y-84503337D01*
X152499999Y-84505610D01*
X152500000Y-84505610D01*
X152500001Y-84505610D01*
X152528595Y-84503564D01*
X152785428Y-84485196D01*
X152975742Y-84443796D01*
X153065037Y-84424371D01*
X153065037Y-84424370D01*
X153065046Y-84424369D01*
X153333161Y-84324367D01*
X153584315Y-84187226D01*
X153813395Y-84015739D01*
X154015739Y-83813395D01*
X154187226Y-83584315D01*
X154324367Y-83333161D01*
X154424369Y-83065046D01*
X154485196Y-82785428D01*
X154505610Y-82500000D01*
X154485196Y-82214572D01*
X154424369Y-81934954D01*
X154324367Y-81666839D01*
X154187372Y-81415953D01*
X154187229Y-81415690D01*
X154187224Y-81415682D01*
X154015745Y-81186612D01*
X154015729Y-81186594D01*
X153813405Y-80984270D01*
X153813387Y-80984254D01*
X153770481Y-80952135D01*
X155579500Y-80952135D01*
X155579500Y-84047870D01*
X155579501Y-84047876D01*
X155585908Y-84107483D01*
X155636202Y-84242328D01*
X155636206Y-84242335D01*
X155722452Y-84357544D01*
X155722455Y-84357547D01*
X155837664Y-84443793D01*
X155837671Y-84443797D01*
X155972517Y-84494091D01*
X155972516Y-84494091D01*
X155979444Y-84494835D01*
X156032127Y-84500500D01*
X159127872Y-84500499D01*
X159187483Y-84494091D01*
X159322331Y-84443796D01*
X159437546Y-84357546D01*
X159523796Y-84242331D01*
X159574091Y-84107483D01*
X159580500Y-84047873D01*
X159580499Y-82499998D01*
X162914891Y-82499998D01*
X162914891Y-82500001D01*
X162935300Y-82785362D01*
X162996109Y-83064895D01*
X163096091Y-83332958D01*
X163233191Y-83584038D01*
X163233196Y-83584046D01*
X163339882Y-83726561D01*
X163339883Y-83726562D01*
X164234767Y-82831677D01*
X164246497Y-82859995D01*
X164329670Y-82984472D01*
X164435528Y-83090330D01*
X164560005Y-83173503D01*
X164588320Y-83185231D01*
X163693436Y-84080115D01*
X163835960Y-84186807D01*
X163835961Y-84186808D01*
X164087042Y-84323908D01*
X164087041Y-84323908D01*
X164355104Y-84423890D01*
X164634637Y-84484699D01*
X164919999Y-84505109D01*
X164920001Y-84505109D01*
X165205362Y-84484699D01*
X165484895Y-84423890D01*
X165752958Y-84323908D01*
X166004047Y-84186803D01*
X166146561Y-84080116D01*
X166146562Y-84080115D01*
X165251679Y-83185231D01*
X165279995Y-83173503D01*
X165404472Y-83090330D01*
X165510330Y-82984472D01*
X165593503Y-82859995D01*
X165605231Y-82831678D01*
X166500115Y-83726562D01*
X166500116Y-83726561D01*
X166606803Y-83584047D01*
X166743908Y-83332958D01*
X166843890Y-83064895D01*
X166904699Y-82785362D01*
X166925109Y-82500001D01*
X166925109Y-82499998D01*
X167994390Y-82499998D01*
X167994390Y-82500001D01*
X168014804Y-82785433D01*
X168075628Y-83065037D01*
X168075630Y-83065043D01*
X168075631Y-83065046D01*
X168137452Y-83230793D01*
X168175635Y-83333166D01*
X168312770Y-83584309D01*
X168312775Y-83584317D01*
X168484254Y-83813387D01*
X168484270Y-83813405D01*
X168686594Y-84015729D01*
X168686612Y-84015745D01*
X168915682Y-84187224D01*
X168915690Y-84187229D01*
X169166833Y-84324364D01*
X169166832Y-84324364D01*
X169166836Y-84324365D01*
X169166839Y-84324367D01*
X169434954Y-84424369D01*
X169434960Y-84424370D01*
X169434962Y-84424371D01*
X169714566Y-84485195D01*
X169714568Y-84485195D01*
X169714572Y-84485196D01*
X169968220Y-84503337D01*
X169999999Y-84505610D01*
X170000000Y-84505610D01*
X170000001Y-84505610D01*
X170028595Y-84503564D01*
X170285428Y-84485196D01*
X170475742Y-84443796D01*
X170565037Y-84424371D01*
X170565037Y-84424370D01*
X170565046Y-84424369D01*
X170833161Y-84324367D01*
X171084315Y-84187226D01*
X171313395Y-84015739D01*
X171515739Y-83813395D01*
X171687226Y-83584315D01*
X171824367Y-83333161D01*
X171924369Y-83065046D01*
X171985196Y-82785428D01*
X172005610Y-82500000D01*
X171985196Y-82214572D01*
X171924369Y-81934954D01*
X171824367Y-81666839D01*
X171687372Y-81415953D01*
X171687229Y-81415690D01*
X171687224Y-81415682D01*
X171515745Y-81186612D01*
X171515729Y-81186594D01*
X171313405Y-80984270D01*
X171313387Y-80984254D01*
X171270481Y-80952135D01*
X173079500Y-80952135D01*
X173079500Y-84047870D01*
X173079501Y-84047876D01*
X173085908Y-84107483D01*
X173136202Y-84242328D01*
X173136206Y-84242335D01*
X173222452Y-84357544D01*
X173222455Y-84357547D01*
X173337664Y-84443793D01*
X173337671Y-84443797D01*
X173472517Y-84494091D01*
X173472516Y-84494091D01*
X173479444Y-84494835D01*
X173532127Y-84500500D01*
X176627872Y-84500499D01*
X176687483Y-84494091D01*
X176822331Y-84443796D01*
X176937546Y-84357546D01*
X177023796Y-84242331D01*
X177074091Y-84107483D01*
X177080500Y-84047873D01*
X177080499Y-82499998D01*
X182914891Y-82499998D01*
X182914891Y-82500001D01*
X182935300Y-82785362D01*
X182996109Y-83064895D01*
X183096091Y-83332958D01*
X183233191Y-83584038D01*
X183233196Y-83584046D01*
X183339882Y-83726561D01*
X183339883Y-83726562D01*
X184234767Y-82831677D01*
X184246497Y-82859995D01*
X184329670Y-82984472D01*
X184435528Y-83090330D01*
X184560005Y-83173503D01*
X184588320Y-83185231D01*
X183693436Y-84080115D01*
X183835960Y-84186807D01*
X183835961Y-84186808D01*
X184087042Y-84323908D01*
X184087041Y-84323908D01*
X184355104Y-84423890D01*
X184634637Y-84484699D01*
X184919999Y-84505109D01*
X184920001Y-84505109D01*
X185205362Y-84484699D01*
X185484895Y-84423890D01*
X185752958Y-84323908D01*
X186004047Y-84186803D01*
X186146561Y-84080116D01*
X186146562Y-84080115D01*
X185251679Y-83185231D01*
X185279995Y-83173503D01*
X185404472Y-83090330D01*
X185510330Y-82984472D01*
X185593503Y-82859995D01*
X185605231Y-82831678D01*
X186500115Y-83726562D01*
X186500116Y-83726561D01*
X186606803Y-83584047D01*
X186743908Y-83332958D01*
X186843890Y-83064895D01*
X186904699Y-82785362D01*
X186925109Y-82500001D01*
X186925109Y-82499998D01*
X186904699Y-82214637D01*
X186843890Y-81935104D01*
X186743908Y-81667041D01*
X186606808Y-81415961D01*
X186606807Y-81415960D01*
X186500115Y-81273436D01*
X185605231Y-82168320D01*
X185593503Y-82140005D01*
X185510330Y-82015528D01*
X185404472Y-81909670D01*
X185279995Y-81826497D01*
X185251678Y-81814767D01*
X186114310Y-80952135D01*
X187999500Y-80952135D01*
X187999500Y-84047870D01*
X187999501Y-84047876D01*
X188005908Y-84107483D01*
X188056202Y-84242328D01*
X188056206Y-84242335D01*
X188142452Y-84357544D01*
X188142455Y-84357547D01*
X188257664Y-84443793D01*
X188257671Y-84443797D01*
X188392517Y-84494091D01*
X188392516Y-84494091D01*
X188399444Y-84494835D01*
X188452127Y-84500500D01*
X191547872Y-84500499D01*
X191607483Y-84494091D01*
X191742331Y-84443796D01*
X191857546Y-84357546D01*
X191943796Y-84242331D01*
X191994091Y-84107483D01*
X192000500Y-84047873D01*
X192000499Y-80952128D01*
X191994091Y-80892517D01*
X191993307Y-80890416D01*
X191943797Y-80757671D01*
X191943793Y-80757664D01*
X191857547Y-80642455D01*
X191857544Y-80642452D01*
X191742335Y-80556206D01*
X191742328Y-80556202D01*
X191607482Y-80505908D01*
X191607483Y-80505908D01*
X191547883Y-80499501D01*
X191547881Y-80499500D01*
X191547873Y-80499500D01*
X191547864Y-80499500D01*
X188452129Y-80499500D01*
X188452123Y-80499501D01*
X188392516Y-80505908D01*
X188257671Y-80556202D01*
X188257664Y-80556206D01*
X188142455Y-80642452D01*
X188142452Y-80642455D01*
X188056206Y-80757664D01*
X188056202Y-80757671D01*
X188005908Y-80892517D01*
X187999501Y-80952116D01*
X187999501Y-80952123D01*
X187999500Y-80952135D01*
X186114310Y-80952135D01*
X186146562Y-80919883D01*
X186146561Y-80919882D01*
X186004046Y-80813196D01*
X186004038Y-80813191D01*
X185752957Y-80676091D01*
X185752958Y-80676091D01*
X185484895Y-80576109D01*
X185205362Y-80515300D01*
X184920001Y-80494891D01*
X184919999Y-80494891D01*
X184634637Y-80515300D01*
X184355104Y-80576109D01*
X184087041Y-80676091D01*
X183835961Y-80813191D01*
X183835953Y-80813196D01*
X183693437Y-80919882D01*
X183693436Y-80919883D01*
X184588321Y-81814767D01*
X184560005Y-81826497D01*
X184435528Y-81909670D01*
X184329670Y-82015528D01*
X184246497Y-82140005D01*
X184234768Y-82168321D01*
X183339883Y-81273436D01*
X183339882Y-81273437D01*
X183233196Y-81415953D01*
X183233191Y-81415961D01*
X183096091Y-81667041D01*
X182996109Y-81935104D01*
X182935300Y-82214637D01*
X182914891Y-82499998D01*
X177080499Y-82499998D01*
X177080499Y-80952128D01*
X177074091Y-80892517D01*
X177073307Y-80890416D01*
X177023797Y-80757671D01*
X177023793Y-80757664D01*
X176937547Y-80642455D01*
X176937544Y-80642452D01*
X176822335Y-80556206D01*
X176822328Y-80556202D01*
X176687482Y-80505908D01*
X176687483Y-80505908D01*
X176627883Y-80499501D01*
X176627881Y-80499500D01*
X176627873Y-80499500D01*
X176627864Y-80499500D01*
X173532129Y-80499500D01*
X173532123Y-80499501D01*
X173472516Y-80505908D01*
X173337671Y-80556202D01*
X173337664Y-80556206D01*
X173222455Y-80642452D01*
X173222452Y-80642455D01*
X173136206Y-80757664D01*
X173136202Y-80757671D01*
X173085908Y-80892517D01*
X173079501Y-80952116D01*
X173079501Y-80952123D01*
X173079500Y-80952135D01*
X171270481Y-80952135D01*
X171084317Y-80812775D01*
X171084309Y-80812770D01*
X170833166Y-80675635D01*
X170833167Y-80675635D01*
X170725915Y-80635632D01*
X170565046Y-80575631D01*
X170565043Y-80575630D01*
X170565037Y-80575628D01*
X170285433Y-80514804D01*
X170000001Y-80494390D01*
X169999999Y-80494390D01*
X169714566Y-80514804D01*
X169434962Y-80575628D01*
X169166833Y-80675635D01*
X168915690Y-80812770D01*
X168915682Y-80812775D01*
X168686612Y-80984254D01*
X168686594Y-80984270D01*
X168484270Y-81186594D01*
X168484254Y-81186612D01*
X168312775Y-81415682D01*
X168312770Y-81415690D01*
X168175635Y-81666833D01*
X168075628Y-81934962D01*
X168014804Y-82214566D01*
X167994390Y-82499998D01*
X166925109Y-82499998D01*
X166904699Y-82214637D01*
X166843890Y-81935104D01*
X166743908Y-81667041D01*
X166606808Y-81415961D01*
X166606807Y-81415960D01*
X166500115Y-81273436D01*
X165605231Y-82168320D01*
X165593503Y-82140005D01*
X165510330Y-82015528D01*
X165404472Y-81909670D01*
X165279995Y-81826497D01*
X165251678Y-81814767D01*
X166146562Y-80919883D01*
X166146561Y-80919882D01*
X166004046Y-80813196D01*
X166004038Y-80813191D01*
X165752957Y-80676091D01*
X165752958Y-80676091D01*
X165484895Y-80576109D01*
X165205362Y-80515300D01*
X164920001Y-80494891D01*
X164919999Y-80494891D01*
X164634637Y-80515300D01*
X164355104Y-80576109D01*
X164087041Y-80676091D01*
X163835961Y-80813191D01*
X163835953Y-80813196D01*
X163693437Y-80919882D01*
X163693436Y-80919883D01*
X164588321Y-81814767D01*
X164560005Y-81826497D01*
X164435528Y-81909670D01*
X164329670Y-82015528D01*
X164246497Y-82140005D01*
X164234768Y-82168321D01*
X163339883Y-81273436D01*
X163339882Y-81273437D01*
X163233196Y-81415953D01*
X163233191Y-81415961D01*
X163096091Y-81667041D01*
X162996109Y-81935104D01*
X162935300Y-82214637D01*
X162914891Y-82499998D01*
X159580499Y-82499998D01*
X159580499Y-80952128D01*
X159574091Y-80892517D01*
X159573307Y-80890416D01*
X159523797Y-80757671D01*
X159523793Y-80757664D01*
X159437547Y-80642455D01*
X159437544Y-80642452D01*
X159322335Y-80556206D01*
X159322328Y-80556202D01*
X159187482Y-80505908D01*
X159187483Y-80505908D01*
X159127883Y-80499501D01*
X159127881Y-80499500D01*
X159127873Y-80499500D01*
X159127864Y-80499500D01*
X156032129Y-80499500D01*
X156032123Y-80499501D01*
X155972516Y-80505908D01*
X155837671Y-80556202D01*
X155837664Y-80556206D01*
X155722455Y-80642452D01*
X155722452Y-80642455D01*
X155636206Y-80757664D01*
X155636202Y-80757671D01*
X155585908Y-80892517D01*
X155579501Y-80952116D01*
X155579501Y-80952123D01*
X155579500Y-80952135D01*
X153770481Y-80952135D01*
X153584317Y-80812775D01*
X153584309Y-80812770D01*
X153333166Y-80675635D01*
X153333167Y-80675635D01*
X153225915Y-80635632D01*
X153065046Y-80575631D01*
X153065043Y-80575630D01*
X153065037Y-80575628D01*
X152785433Y-80514804D01*
X152500001Y-80494390D01*
X152499999Y-80494390D01*
X152214566Y-80514804D01*
X151934962Y-80575628D01*
X151666833Y-80675635D01*
X151415690Y-80812770D01*
X151415682Y-80812775D01*
X151186612Y-80984254D01*
X151186594Y-80984270D01*
X150984270Y-81186594D01*
X150984254Y-81186612D01*
X150812775Y-81415682D01*
X150812770Y-81415690D01*
X150675635Y-81666833D01*
X150575628Y-81934962D01*
X150514804Y-82214566D01*
X150494390Y-82499998D01*
X149425109Y-82499998D01*
X149404699Y-82214637D01*
X149343890Y-81935104D01*
X149243908Y-81667041D01*
X149106808Y-81415961D01*
X149106807Y-81415960D01*
X149000115Y-81273436D01*
X148105231Y-82168320D01*
X148093503Y-82140005D01*
X148010330Y-82015528D01*
X147904472Y-81909670D01*
X147779995Y-81826497D01*
X147751678Y-81814767D01*
X148646562Y-80919883D01*
X148646561Y-80919882D01*
X148504046Y-80813196D01*
X148504038Y-80813191D01*
X148252957Y-80676091D01*
X148252958Y-80676091D01*
X147984895Y-80576109D01*
X147705362Y-80515300D01*
X147420001Y-80494891D01*
X147419999Y-80494891D01*
X147134637Y-80515300D01*
X146855104Y-80576109D01*
X146587041Y-80676091D01*
X146335961Y-80813191D01*
X146335953Y-80813196D01*
X146193437Y-80919882D01*
X146193436Y-80919883D01*
X147088321Y-81814767D01*
X147060005Y-81826497D01*
X146935528Y-81909670D01*
X146829670Y-82015528D01*
X146746497Y-82140005D01*
X146734768Y-82168321D01*
X145839883Y-81273436D01*
X145839882Y-81273437D01*
X145733196Y-81415953D01*
X145733191Y-81415961D01*
X145596091Y-81667041D01*
X145496109Y-81935104D01*
X145435300Y-82214637D01*
X145414891Y-82499998D01*
X138000500Y-82499998D01*
X138000500Y-78813246D01*
X138000670Y-78806756D01*
X138002335Y-78774994D01*
X138769556Y-78774994D01*
X138769556Y-78775005D01*
X138789310Y-79089004D01*
X138789311Y-79089011D01*
X138848270Y-79398083D01*
X138945497Y-79697316D01*
X138945499Y-79697321D01*
X139079461Y-79982003D01*
X139079464Y-79982009D01*
X139248051Y-80247661D01*
X139248054Y-80247665D01*
X139448606Y-80490090D01*
X139448608Y-80490092D01*
X139448610Y-80490094D01*
X139646189Y-80675633D01*
X139677968Y-80705476D01*
X139677978Y-80705484D01*
X139932504Y-80890408D01*
X139932509Y-80890410D01*
X139932516Y-80890416D01*
X140208234Y-81041994D01*
X140208239Y-81041996D01*
X140208241Y-81041997D01*
X140208242Y-81041998D01*
X140500771Y-81157818D01*
X140500774Y-81157819D01*
X140612916Y-81186612D01*
X140805527Y-81236066D01*
X140871010Y-81244338D01*
X141117670Y-81275499D01*
X141117679Y-81275499D01*
X141117682Y-81275500D01*
X141117684Y-81275500D01*
X141432316Y-81275500D01*
X141432318Y-81275500D01*
X141432321Y-81275499D01*
X141432329Y-81275499D01*
X141618593Y-81251968D01*
X141744473Y-81236066D01*
X142049225Y-81157819D01*
X142049228Y-81157818D01*
X142341757Y-81041998D01*
X142341758Y-81041997D01*
X142341756Y-81041997D01*
X142341766Y-81041994D01*
X142617484Y-80890416D01*
X142872030Y-80705478D01*
X143101390Y-80490094D01*
X143301947Y-80247663D01*
X143470537Y-79982007D01*
X143604503Y-79697315D01*
X143701731Y-79398079D01*
X143760688Y-79089015D01*
X143780444Y-78775000D01*
X143780444Y-78774994D01*
X196219556Y-78774994D01*
X196219556Y-78775005D01*
X196239310Y-79089004D01*
X196239311Y-79089011D01*
X196298270Y-79398083D01*
X196395497Y-79697316D01*
X196395499Y-79697321D01*
X196529461Y-79982003D01*
X196529464Y-79982009D01*
X196698051Y-80247661D01*
X196698054Y-80247665D01*
X196898606Y-80490090D01*
X196898608Y-80490092D01*
X196898610Y-80490094D01*
X197096189Y-80675633D01*
X197127968Y-80705476D01*
X197127978Y-80705484D01*
X197382504Y-80890408D01*
X197382509Y-80890410D01*
X197382516Y-80890416D01*
X197658234Y-81041994D01*
X197658239Y-81041996D01*
X197658241Y-81041997D01*
X197658242Y-81041998D01*
X197950771Y-81157818D01*
X197950774Y-81157819D01*
X198062916Y-81186612D01*
X198255527Y-81236066D01*
X198321010Y-81244338D01*
X198567670Y-81275499D01*
X198567679Y-81275499D01*
X198567682Y-81275500D01*
X198567684Y-81275500D01*
X198882316Y-81275500D01*
X198882318Y-81275500D01*
X198882321Y-81275499D01*
X198882329Y-81275499D01*
X199068593Y-81251968D01*
X199194473Y-81236066D01*
X199499225Y-81157819D01*
X199499228Y-81157818D01*
X199791757Y-81041998D01*
X199791758Y-81041997D01*
X199791756Y-81041997D01*
X199791766Y-81041994D01*
X200067484Y-80890416D01*
X200322030Y-80705478D01*
X200551390Y-80490094D01*
X200751947Y-80247663D01*
X200920537Y-79982007D01*
X201054503Y-79697315D01*
X201151731Y-79398079D01*
X201210688Y-79089015D01*
X201230444Y-78775000D01*
X201228500Y-78744108D01*
X201210689Y-78460995D01*
X201210688Y-78460988D01*
X201210688Y-78460985D01*
X201151731Y-78151921D01*
X201054503Y-77852685D01*
X200920537Y-77567993D01*
X200854481Y-77463905D01*
X200751948Y-77302338D01*
X200751945Y-77302334D01*
X200551393Y-77059909D01*
X200551391Y-77059907D01*
X200322031Y-76844523D01*
X200322021Y-76844515D01*
X200067495Y-76659591D01*
X200067488Y-76659586D01*
X200067484Y-76659584D01*
X199791766Y-76508006D01*
X199791763Y-76508004D01*
X199791758Y-76508002D01*
X199791757Y-76508001D01*
X199499228Y-76392181D01*
X199499225Y-76392180D01*
X199194476Y-76313934D01*
X199194463Y-76313932D01*
X198882329Y-76274500D01*
X198882318Y-76274500D01*
X198567682Y-76274500D01*
X198567670Y-76274500D01*
X198255536Y-76313932D01*
X198255523Y-76313934D01*
X197950774Y-76392180D01*
X197950771Y-76392181D01*
X197658242Y-76508001D01*
X197658241Y-76508002D01*
X197382516Y-76659584D01*
X197382504Y-76659591D01*
X197127978Y-76844515D01*
X197127968Y-76844523D01*
X196898608Y-77059907D01*
X196898606Y-77059909D01*
X196698054Y-77302334D01*
X196698051Y-77302338D01*
X196529464Y-77567990D01*
X196529461Y-77567996D01*
X196395499Y-77852678D01*
X196395497Y-77852683D01*
X196298270Y-78151916D01*
X196239311Y-78460988D01*
X196239310Y-78460995D01*
X196219556Y-78774994D01*
X143780444Y-78774994D01*
X143778500Y-78744108D01*
X143760689Y-78460995D01*
X143760688Y-78460988D01*
X143760688Y-78460985D01*
X143701731Y-78151921D01*
X143604503Y-77852685D01*
X143470537Y-77567993D01*
X143404481Y-77463905D01*
X143301948Y-77302338D01*
X143301945Y-77302334D01*
X143101393Y-77059909D01*
X143101391Y-77059907D01*
X142872031Y-76844523D01*
X142872021Y-76844515D01*
X142617495Y-76659591D01*
X142617488Y-76659586D01*
X142617484Y-76659584D01*
X142341766Y-76508006D01*
X142341763Y-76508004D01*
X142341758Y-76508002D01*
X142341757Y-76508001D01*
X142049228Y-76392181D01*
X142049225Y-76392180D01*
X141744476Y-76313934D01*
X141744463Y-76313932D01*
X141432329Y-76274500D01*
X141432318Y-76274500D01*
X141117682Y-76274500D01*
X141117670Y-76274500D01*
X140805536Y-76313932D01*
X140805523Y-76313934D01*
X140500774Y-76392180D01*
X140500771Y-76392181D01*
X140208242Y-76508001D01*
X140208241Y-76508002D01*
X139932516Y-76659584D01*
X139932504Y-76659591D01*
X139677978Y-76844515D01*
X139677968Y-76844523D01*
X139448608Y-77059907D01*
X139448606Y-77059909D01*
X139248054Y-77302334D01*
X139248051Y-77302338D01*
X139079464Y-77567990D01*
X139079461Y-77567996D01*
X138945499Y-77852678D01*
X138945497Y-77852683D01*
X138848270Y-78151916D01*
X138789311Y-78460988D01*
X138789310Y-78460995D01*
X138769556Y-78774994D01*
X138002335Y-78774994D01*
X138018290Y-78470549D01*
X138019647Y-78457641D01*
X138071806Y-78128318D01*
X138074496Y-78115661D01*
X138160799Y-77793571D01*
X138164801Y-77781256D01*
X138284298Y-77469954D01*
X138289561Y-77458133D01*
X138440951Y-77161014D01*
X138447417Y-77149816D01*
X138629029Y-76870158D01*
X138636631Y-76859695D01*
X138846483Y-76600548D01*
X138855150Y-76590923D01*
X139090923Y-76355150D01*
X139100548Y-76346483D01*
X139359695Y-76136631D01*
X139370158Y-76129029D01*
X139649816Y-75947417D01*
X139661014Y-75940951D01*
X139958133Y-75789561D01*
X139969954Y-75784298D01*
X140281256Y-75664801D01*
X140293571Y-75660799D01*
X140615661Y-75574496D01*
X140628318Y-75571806D01*
X140957643Y-75519646D01*
X140970547Y-75518290D01*
X141306756Y-75500669D01*
X141313246Y-75500500D01*
X141375892Y-75500500D01*
X198624108Y-75500500D01*
X198686754Y-75500500D01*
X198693243Y-75500669D01*
G37*
%TD.AperFunction*%
%TD*%
M02*
