%TF.GenerationSoftware,KiCad,Pcbnew,8.0.2*%
%TF.CreationDate,2024-06-01T13:45:06-03:00*%
%TF.ProjectId,Porthole Controller,506f7274-686f-46c6-9520-436f6e74726f,1*%
%TF.SameCoordinates,Original*%
%TF.FileFunction,Copper,L1,Top*%
%TF.FilePolarity,Positive*%
%FSLAX46Y46*%
G04 Gerber Fmt 4.6, Leading zero omitted, Abs format (unit mm)*
G04 Created by KiCad (PCBNEW 8.0.2) date 2024-06-01 13:45:06*
%MOMM*%
%LPD*%
G01*
G04 APERTURE LIST*
%TA.AperFunction,ComponentPad*%
%ADD10R,3.000000X3.000000*%
%TD*%
%TA.AperFunction,ComponentPad*%
%ADD11C,3.000000*%
%TD*%
%TA.AperFunction,ComponentPad*%
%ADD12R,1.700000X1.700000*%
%TD*%
%TA.AperFunction,ComponentPad*%
%ADD13O,1.700000X1.700000*%
%TD*%
%TA.AperFunction,ComponentPad*%
%ADD14R,1.600000X1.600000*%
%TD*%
%TA.AperFunction,ComponentPad*%
%ADD15C,1.600000*%
%TD*%
%TA.AperFunction,ComponentPad*%
%ADD16C,1.400000*%
%TD*%
%TA.AperFunction,ComponentPad*%
%ADD17O,1.400000X1.400000*%
%TD*%
%TA.AperFunction,ComponentPad*%
%ADD18R,1.295400X1.295400*%
%TD*%
%TA.AperFunction,ComponentPad*%
%ADD19C,1.295400*%
%TD*%
%TA.AperFunction,ComponentPad*%
%ADD20R,1.358000X1.358000*%
%TD*%
%TA.AperFunction,ComponentPad*%
%ADD21C,1.358000*%
%TD*%
%TA.AperFunction,Conductor*%
%ADD22C,3.175000*%
%TD*%
%TA.AperFunction,Conductor*%
%ADD23C,0.200000*%
%TD*%
G04 APERTURE END LIST*
D10*
%TO.P,J4,1,Pin_1*%
%TO.N,5V*%
X164920000Y-133500000D03*
D11*
%TO.P,J4,2,Pin_2*%
%TO.N,STRIP4*%
X170000000Y-133500000D03*
%TO.P,J4,3,Pin_3*%
%TO.N,GND*%
X175080000Y-133500000D03*
%TD*%
D12*
%TO.P,J8,1,Pin_1*%
%TO.N,D0*%
X191300000Y-96525000D03*
D13*
%TO.P,J8,2,Pin_2*%
%TO.N,D1*%
X188760000Y-96525000D03*
%TO.P,J8,3,Pin_3*%
%TO.N,D4*%
X186220000Y-96525000D03*
%TO.P,J8,4,Pin_4*%
%TO.N,D5*%
X183680000Y-96525000D03*
%TD*%
D14*
%TO.P,C2,1*%
%TO.N,5V*%
X175080000Y-92500000D03*
D15*
%TO.P,C2,2*%
%TO.N,GND*%
X177580000Y-92500000D03*
%TD*%
D10*
%TO.P,J1,1,Pin_1*%
%TO.N,5V*%
X175080000Y-82500000D03*
D11*
%TO.P,J1,2,Pin_2*%
%TO.N,STRIP1*%
X170000000Y-82500000D03*
%TO.P,J1,3,Pin_3*%
%TO.N,GND*%
X164920000Y-82500000D03*
%TD*%
D10*
%TO.P,J3,1,Pin_1*%
%TO.N,5V*%
X147420000Y-133500000D03*
D11*
%TO.P,J3,2,Pin_2*%
%TO.N,STRIP3*%
X152500000Y-133500000D03*
%TO.P,J3,3,Pin_3*%
%TO.N,GND*%
X157580000Y-133500000D03*
%TD*%
D14*
%TO.P,C3,1*%
%TO.N,5V*%
X157500000Y-92500000D03*
D15*
%TO.P,C3,2*%
%TO.N,GND*%
X160000000Y-92500000D03*
%TD*%
D12*
%TO.P,J6,1,Pin_1*%
%TO.N,3.3V*%
X191300000Y-93790000D03*
D13*
%TO.P,J6,2,Pin_2*%
%TO.N,GND*%
X191300000Y-91250000D03*
%TO.P,J6,3,Pin_3*%
%TO.N,3.3V*%
X188760000Y-93790000D03*
%TO.P,J6,4,Pin_4*%
%TO.N,GND*%
X188760000Y-91250000D03*
%TO.P,J6,5,Pin_5*%
%TO.N,3.3V*%
X186220000Y-93790000D03*
%TO.P,J6,6,Pin_6*%
%TO.N,GND*%
X186220000Y-91250000D03*
%TO.P,J6,7,Pin_7*%
%TO.N,3.3V*%
X183680000Y-93790000D03*
%TO.P,J6,8,Pin_8*%
%TO.N,GND*%
X183680000Y-91250000D03*
%TD*%
D14*
%TO.P,C5,1*%
%TO.N,5V*%
X165000000Y-123500000D03*
D15*
%TO.P,C5,2*%
%TO.N,GND*%
X162500000Y-123500000D03*
%TD*%
D16*
%TO.P,R1,1*%
%TO.N,STRIP1*%
X170080000Y-90000000D03*
D17*
%TO.P,R1,2*%
%TO.N,Net-(U2-1Y)*%
X170080000Y-95080000D03*
%TD*%
D12*
%TO.P,J5,1,Pin_1*%
%TO.N,GND*%
X189960000Y-132540000D03*
D13*
%TO.P,J5,2,Pin_2*%
X192500000Y-132540000D03*
%TO.P,J5,3,Pin_3*%
%TO.N,WS*%
X189960000Y-130000000D03*
%TO.P,J5,4,Pin_4*%
%TO.N,3.3V*%
X192500000Y-130000000D03*
%TO.P,J5,5,Pin_5*%
%TO.N,SCK*%
X189960000Y-127460000D03*
%TO.P,J5,6,Pin_6*%
%TO.N,SD*%
X192500000Y-127460000D03*
%TD*%
D16*
%TO.P,R3,1*%
%TO.N,STRIP3*%
X152420000Y-126000000D03*
D17*
%TO.P,R3,2*%
%TO.N,Net-(U2-3Y)*%
X152420000Y-120920000D03*
%TD*%
D18*
%TO.P,U2,1,1~{OE}*%
%TO.N,GND*%
X165000000Y-105000000D03*
D19*
%TO.P,U2,2,1A*%
%TO.N,D2*%
X162460000Y-105000000D03*
%TO.P,U2,3,1Y*%
%TO.N,Net-(U2-1Y)*%
X159920000Y-105000000D03*
%TO.P,U2,4,2~{OE}*%
%TO.N,GND*%
X157380000Y-105000000D03*
%TO.P,U2,5,2A*%
%TO.N,D3*%
X154840000Y-105000000D03*
%TO.P,U2,6,2Y*%
%TO.N,Net-(U2-2Y)*%
X152300000Y-105000000D03*
%TO.P,U2,7,GND*%
%TO.N,GND*%
X149760000Y-105000000D03*
%TO.P,U2,8,3Y*%
%TO.N,Net-(U2-3Y)*%
X149760000Y-112620000D03*
%TO.P,U2,9,3A*%
%TO.N,D6*%
X152300000Y-112620000D03*
%TO.P,U2,10,3~{OE}*%
%TO.N,GND*%
X154840000Y-112620000D03*
%TO.P,U2,11,4Y*%
%TO.N,Net-(U2-4Y)*%
X157380000Y-112620000D03*
%TO.P,U2,12,4A*%
%TO.N,D7*%
X159920000Y-112620000D03*
%TO.P,U2,13,4~{OE}*%
%TO.N,GND*%
X162460000Y-112620000D03*
%TO.P,U2,14,VCC*%
%TO.N,5V*%
X165000000Y-112620000D03*
%TD*%
D10*
%TO.P,J7,1,Pin_1*%
%TO.N,5V*%
X190000000Y-82500000D03*
D11*
%TO.P,J7,2,Pin_2*%
%TO.N,GND*%
X184920000Y-82500000D03*
%TD*%
D15*
%TO.P,C1,1*%
%TO.N,5V*%
X170000000Y-110000000D03*
%TO.P,C1,2*%
%TO.N,GND*%
X170000000Y-107500000D03*
%TD*%
D14*
%TO.P,C4,1*%
%TO.N,5V*%
X147500000Y-123500000D03*
D15*
%TO.P,C4,2*%
%TO.N,GND*%
X145000000Y-123500000D03*
%TD*%
D16*
%TO.P,R4,1*%
%TO.N,STRIP4*%
X170000000Y-126000000D03*
D17*
%TO.P,R4,2*%
%TO.N,Net-(U2-4Y)*%
X170000000Y-120920000D03*
%TD*%
D16*
%TO.P,R2,1*%
%TO.N,STRIP2*%
X152580000Y-90000000D03*
D17*
%TO.P,R2,2*%
%TO.N,Net-(U2-2Y)*%
X152580000Y-95080000D03*
%TD*%
D20*
%TO.P,U1,1,D0*%
%TO.N,D0*%
X192556500Y-101457500D03*
D21*
%TO.P,U1,2,D1*%
%TO.N,D1*%
X190016500Y-101457500D03*
%TO.P,U1,3,D2*%
%TO.N,D2*%
X187476500Y-101457500D03*
%TO.P,U1,4,D3*%
%TO.N,D3*%
X184936500Y-101457500D03*
%TO.P,U1,5,D4*%
%TO.N,D4*%
X182396500Y-101457500D03*
%TO.P,U1,6,D5*%
%TO.N,D5*%
X179856500Y-101457500D03*
%TO.P,U1,7,TX_D6*%
%TO.N,D6*%
X177316500Y-101457500D03*
%TO.P,U1,8,RX_D7*%
%TO.N,D7*%
X177316500Y-116697500D03*
%TO.P,U1,9,D8*%
%TO.N,WS*%
X179856500Y-116697500D03*
%TO.P,U1,10,D9*%
%TO.N,SCK*%
X182396500Y-116697500D03*
%TO.P,U1,11,D10*%
%TO.N,SD*%
X184936500Y-116697500D03*
%TO.P,U1,12,VCC_3V3*%
%TO.N,3.3V*%
X187476500Y-116697500D03*
%TO.P,U1,13,GND*%
%TO.N,GND*%
X190016500Y-116697500D03*
%TO.P,U1,14,VUSB*%
%TO.N,5V*%
X192556500Y-116697500D03*
%TD*%
D10*
%TO.P,J2,1,Pin_1*%
%TO.N,5V*%
X157580000Y-82500000D03*
D11*
%TO.P,J2,2,Pin_2*%
%TO.N,STRIP2*%
X152500000Y-82500000D03*
%TO.P,J2,3,Pin_3*%
%TO.N,GND*%
X147420000Y-82500000D03*
%TD*%
D22*
%TO.N,5V*%
X195137500Y-87637500D02*
X195137500Y-114116500D01*
X147420000Y-133500000D02*
X147587500Y-133332500D01*
X174992500Y-82587500D02*
X174992500Y-92500000D01*
X192556500Y-116697500D02*
X192556500Y-120672728D01*
X190000000Y-82500000D02*
X195137500Y-87637500D01*
X147587500Y-133332500D02*
X147587500Y-123500000D01*
X157580000Y-82500000D02*
X157580000Y-84920000D01*
X178367500Y-79212500D02*
X175080000Y-82500000D01*
X165087500Y-112707500D02*
X165087500Y-133332500D01*
X190000000Y-82500000D02*
X186712500Y-79212500D01*
X186712500Y-79212500D02*
X178367500Y-79212500D01*
X167707500Y-110087500D02*
X170000000Y-110087500D01*
X164920000Y-133500000D02*
X161632500Y-136787500D01*
X175080000Y-82500000D02*
X171792500Y-79212500D01*
X171792500Y-79212500D02*
X160867500Y-79212500D01*
X165087500Y-133332500D02*
X164920000Y-133500000D01*
X165087500Y-112707500D02*
X167707500Y-110087500D01*
X157412500Y-85087500D02*
X157412500Y-92500000D01*
X195137500Y-114116500D02*
X192556500Y-116697500D01*
X160867500Y-79212500D02*
X157580000Y-82500000D01*
X176441728Y-136787500D02*
X168207500Y-136787500D01*
X192556500Y-120672728D02*
X176441728Y-136787500D01*
X175080000Y-82500000D02*
X174992500Y-82587500D01*
X150707500Y-136787500D02*
X147420000Y-133500000D01*
X161632500Y-136787500D02*
X150707500Y-136787500D01*
X168207500Y-136787500D02*
X164920000Y-133500000D01*
X165000000Y-112620000D02*
X165087500Y-112707500D01*
X157580000Y-84920000D02*
X157412500Y-85087500D01*
D23*
%TO.N,STRIP1*%
X170000000Y-82500000D02*
X170000000Y-89920000D01*
X170000000Y-89920000D02*
X170080000Y-90000000D01*
%TO.N,STRIP2*%
X152500000Y-82500000D02*
X152500000Y-85000000D01*
X152580000Y-85080000D02*
X152580000Y-90000000D01*
X152500000Y-85000000D02*
X152580000Y-85080000D01*
%TO.N,STRIP3*%
X152420000Y-133420000D02*
X152500000Y-133500000D01*
X152420000Y-126000000D02*
X152420000Y-133420000D01*
%TO.N,STRIP4*%
X170000000Y-126000000D02*
X170000000Y-133500000D01*
%TO.N,Net-(U2-1Y)*%
X170080000Y-95080000D02*
X160160000Y-105000000D01*
X160160000Y-105000000D02*
X159920000Y-105000000D01*
%TO.N,Net-(U2-2Y)*%
X152580000Y-104720000D02*
X152300000Y-105000000D01*
X152580000Y-95080000D02*
X152580000Y-104720000D01*
%TO.N,Net-(U2-3Y)*%
X152420000Y-120920000D02*
X152420000Y-115280000D01*
X152420000Y-115280000D02*
X149760000Y-112620000D01*
%TO.N,D2*%
X163407700Y-104052300D02*
X184881700Y-104052300D01*
X162460000Y-105000000D02*
X163407700Y-104052300D01*
X184881700Y-104052300D02*
X187476500Y-101457500D01*
%TD*%
M02*
