<?xml version="1.0" encoding="UTF-8"?>
<!DOCTYPE svg PUBLIC "-//W3C//DTD SVG 1.1//EN" "http://www.w3.org/Graphics/SVG/1.1/DTD/svg11.dtd">
<svg version="1.2" width="215.9mm" height="279.4mm" viewBox="0 0 21590 27940" preserveAspectRatio="xMidYMid" fill-rule="evenodd" stroke-width="28.222" stroke-linejoin="round" xmlns="http://www.w3.org/2000/svg" xmlns:ooo="http://xml.openoffice.org/svg/export" xmlns:xlink="http://www.w3.org/1999/xlink" xmlns:presentation="http://sun.com/xmlns/staroffice/presentation" xmlns:smil="http://www.w3.org/2001/SMIL20/" xmlns:anim="urn:oasis:names:tc:opendocument:xmlns:animation:1.0" xmlns:svg="urn:oasis:names:tc:opendocument:xmlns:svg-compatible:1.0" xml:space="preserve">
 <defs class="ClipPathGroup">
  <clipPath id="presentation_clip_path" clipPathUnits="userSpaceOnUse">
   <rect x="0" y="0" width="21590" height="27940"/>
  </clipPath>
  <clipPath id="presentation_clip_path_shrink" clipPathUnits="userSpaceOnUse">
   <rect x="21" y="27" width="21547" height="27885"/>
  </clipPath>
 </defs>
 <defs class="TextShapeIndex">
  <g ooo:slide="id1" ooo:id-list="id3"/>
 </defs>
 <defs class="EmbeddedBulletChars">
  <g id="bullet-char-template-57356" transform="scale(0.00048828125,-0.00048828125)">
   <path d="M 580,1141 L 1163,571 580,0 -4,571 580,1141 Z"/>
  </g>
  <g id="bullet-char-template-57354" transform="scale(0.00048828125,-0.00048828125)">
   <path d="M 8,1128 L 1137,1128 1137,0 8,0 8,1128 Z"/>
  </g>
  <g id="bullet-char-template-10146" transform="scale(0.00048828125,-0.00048828125)">
   <path d="M 174,0 L 602,739 174,1481 1456,739 174,0 Z M 1358,739 L 309,1346 659,739 1358,739 Z"/>
  </g>
  <g id="bullet-char-template-10132" transform="scale(0.00048828125,-0.00048828125)">
   <path d="M 2015,739 L 1276,0 717,0 1260,543 174,543 174,936 1260,936 717,1481 1274,1481 2015,739 Z"/>
  </g>
  <g id="bullet-char-template-10007" transform="scale(0.00048828125,-0.00048828125)">
   <path d="M 0,-2 C -7,14 -16,27 -25,37 L 356,567 C 262,823 215,952 215,954 215,979 228,992 255,992 264,992 276,990 289,987 310,991 331,999 354,1012 L 381,999 492,748 772,1049 836,1024 860,1049 C 881,1039 901,1025 922,1006 886,937 835,863 770,784 769,783 710,716 594,584 L 774,223 C 774,196 753,168 711,139 L 727,119 C 717,90 699,76 672,76 641,76 570,178 457,381 L 164,-76 C 142,-110 111,-127 72,-127 30,-127 9,-110 8,-76 1,-67 -2,-52 -2,-32 -2,-23 -1,-13 0,-2 Z"/>
  </g>
  <g id="bullet-char-template-10004" transform="scale(0.00048828125,-0.00048828125)">
   <path d="M 285,-33 C 182,-33 111,30 74,156 52,228 41,333 41,471 41,549 55,616 82,672 116,743 169,778 240,778 293,778 328,747 346,684 L 369,508 C 377,444 397,411 428,410 L 1163,1116 C 1174,1127 1196,1133 1229,1133 1271,1133 1292,1118 1292,1087 L 1292,965 C 1292,929 1282,901 1262,881 L 442,47 C 390,-6 338,-33 285,-33 Z"/>
  </g>
  <g id="bullet-char-template-9679" transform="scale(0.00048828125,-0.00048828125)">
   <path d="M 813,0 C 632,0 489,54 383,161 276,268 223,411 223,592 223,773 276,916 383,1023 489,1130 632,1184 813,1184 992,1184 1136,1130 1245,1023 1353,916 1407,772 1407,592 1407,412 1353,268 1245,161 1136,54 992,0 813,0 Z"/>
  </g>
  <g id="bullet-char-template-8226" transform="scale(0.00048828125,-0.00048828125)">
   <path d="M 346,457 C 273,457 209,483 155,535 101,586 74,649 74,723 74,796 101,859 155,911 209,963 273,989 346,989 419,989 480,963 531,910 582,859 608,796 608,723 608,648 583,586 532,535 482,483 420,457 346,457 Z"/>
  </g>
  <g id="bullet-char-template-8211" transform="scale(0.00048828125,-0.00048828125)">
   <path d="M -4,459 L 1135,459 1135,606 -4,606 -4,459 Z"/>
  </g>
  <g id="bullet-char-template-61548" transform="scale(0.00048828125,-0.00048828125)">
   <path d="M 173,740 C 173,903 231,1043 346,1159 462,1274 601,1332 765,1332 928,1332 1067,1274 1183,1159 1299,1043 1357,903 1357,740 1357,577 1299,437 1183,322 1067,206 928,148 765,148 601,148 462,206 346,322 231,437 173,577 173,740 Z"/>
  </g>
 </defs>
 <g>
  <g id="id2" class="Master_Slide">
   <g id="bg-id2" class="Background"/>
   <g id="bo-id2" class="BackgroundObjects"/>
  </g>
 </g>
 <g class="SlideGroup">
  <g>
   <g id="container-id1">
    <g id="id1" class="Slide" clip-path="url(#presentation_clip_path)">
     <g class="Page">
      <g class="com.sun.star.drawing.ClosedBezierShape">
       <g id="id3">
        <rect class="BoundingBox" stroke="none" fill="none" x="6732" y="2992" width="5037" height="4277"/>
        <path fill="rgb(180,141,88)" stroke="none" d="M 11156,3401 C 11164,3358 11197,3326 11235,3322 11275,3319 11303,3349 11306,3353 11309,3358 11344,3420 11313,3485 11312,3487 11311,3488 11310,3490 11284,3538 11230,3563 11176,3555 11150,3551 11118,3542 11086,3522 11040,3495 11014,3459 10999,3434 10991,3419 10986,3404 10983,3387 10977,3348 10974,3291 10989,3224 10999,3177 11016,3138 11033,3108 11046,3083 11067,3062 11093,3049 11121,3036 11157,3022 11200,3015 11310,2997 11398,3034 11432,3050 11474,3073 11538,3113 11598,3182 11648,3240 11677,3298 11694,3339 11722,3409 11775,3570 11736,3767 11714,3878 11671,3962 11636,4017 11662,4015 11686,4025 11699,4045 11713,4065 11710,4086 11709,4091 11708,4103 11704,4119 11692,4128 11679,4137 11665,4131 11647,4136 11635,4140 11617,4149 11600,4177 11570,4231 11527,4297 11464,4362 11434,4393 11404,4420 11376,4442 11380,4443 11446,4453 11470,4511 11481,4541 11476,4567 11473,4579 11472,4576 11460,4558 11437,4555 11421,4552 11409,4558 11404,4561 11379,4583 11338,4610 11284,4620 11252,4626 11228,4623 11203,4621 11157,4618 11091,4615 11006,4619 11077,4649 11117,4718 11107,4781 11098,4840 11048,4873 11039,4878 11038,4870 11033,4848 11016,4829 10996,4807 10972,4800 10964,4798 10916,4798 10885,4784 10866,4772 10824,4746 10814,4710 10763,4682 10741,4670 10722,4665 10709,4662 10692,4656 10644,4641 10587,4659 10514,4681 10480,4741 10473,4753 10461,4781 10442,4817 10413,4854 10386,4889 10359,4915 10336,4934 10388,4926 10440,4945 10468,4984 10491,5016 10492,5051 10491,5064 10481,5062 10452,5057 10419,5070 10387,5083 10370,5107 10365,5115 10341,5128 10312,5140 10277,5150 10213,5168 10156,5166 10118,5162 10133,5166 10265,5205 10303,5324 10315,5361 10314,5395 10310,5420 10297,5409 10274,5395 10243,5387 10192,5375 10150,5388 10133,5394 10120,5394 10101,5394 10077,5391 10038,5386 10011,5377 9994,5373 9964,5364 9920,5356 9861,5354 9815,5374 9763,5394 9706,5412 9635,5434 9569,5449 9510,5460 9524,5467 9730,5574 9747,5790 9756,5895 9716,5977 9694,6014 9681,6036 9633,6108 9543,6132 9521,6139 9477,6150 9426,6132 9380,6117 9352,6087 9341,6072 9313,6025 9310,5972 9334,5932 9337,5927 9367,5880 9410,5882 9452,5884 9493,5932 9495,6000 9584,5944 9630,5845 9612,5750 9592,5644 9501,5593 9488,5586 9488,5594 9486,5654 9435,5693 9389,5730 9337,5722 9328,5721 9333,5707 9359,5621 9310,5544 9262,5467 9161,5429 9060,5456 9134,5480 9163,5512 9175,5537 9180,5548 9188,5570 9202,5571 9217,5571 9223,5542 9237,5542 9256,5542 9280,5591 9265,5616 9254,5634 9227,5631 9225,5644 9223,5657 9253,5661 9267,5685 9284,5712 9269,5749 9255,5785 9245,5808 9227,5846 9191,5884 9184,5867 9164,5826 9117,5795 9077,5770 9039,5765 9020,5764 9020,5772 9017,5783 9012,5795 9006,5809 8998,5819 8992,5826 8987,5814 8979,5799 8963,5786 8945,5771 8926,5768 8914,5764 8891,5757 8861,5737 8833,5677 8825,5665 8808,5645 8781,5629 8744,5608 8708,5607 8693,5608 8672,5611 8646,5617 8616,5629 8588,5641 8566,5654 8549,5666 8594,5660 8647,5658 8704,5663 8717,5664 8730,5666 8743,5668 8753,5671 8760,5671 8764,5669 8771,5667 8774,5663 8781,5663 8785,5663 8789,5666 8791,5668 8788,5672 8783,5677 8777,5681 8758,5693 8739,5693 8731,5692 8747,5697 8758,5697 8765,5695 8774,5693 8779,5690 8788,5690 8798,5691 8805,5696 8810,5700 8811,5708 8812,5719 8810,5732 8806,5752 8798,5766 8793,5774 8801,5778 8880,5816 8894,5900 8902,5946 8887,5982 8880,5998 8870,5981 8853,5960 8829,5955 8805,5949 8790,5961 8762,5962 8743,5962 8715,5957 8682,5932 8674,5943 8657,5965 8626,5979 8582,5998 8541,5987 8530,5983 8536,5977 8544,5968 8550,5954 8554,5944 8556,5935 8557,5929 8551,5920 8531,5897 8495,5887 8457,5876 8426,5886 8416,5890 8407,5897 8397,5905 8388,5915 8372,5931 8359,5947 8350,5961 8355,5960 8418,5947 8465,5993 8502,6030 8501,6079 8501,6087 8481,6081 8441,6073 8394,6083 8365,6090 8342,6101 8327,6111 8311,6132 8289,6163 8268,6201 8253,6229 8230,6271 8216,6323 8206,6359 8194,6428 8213,6518 8222,6516 8279,6503 8333,6538 8382,6571 8395,6620 8398,6631 8381,6630 8342,6630 8299,6654 8262,6675 8241,6704 8232,6718 8223,6733 8211,6749 8199,6764 8173,6796 8147,6822 8123,6842 8151,6841 8185,6844 8221,6856 8245,6863 8254,6870 8273,6874 8298,6880 8332,6879 8376,6858 8379,6864 8400,6900 8386,6941 8378,6966 8362,6980 8354,6987 8362,6991 8459,7044 8464,7140 8465,7169 8458,7193 8450,7211 8428,7216 8396,7222 8357,7219 8322,7217 8293,7209 8272,7201 8262,7198 8248,7192 8234,7182 8213,7167 8201,7149 8195,7138 8194,7146 8190,7160 8181,7173 8169,7190 8155,7199 8147,7203 8141,7192 8132,7176 8119,7159 8103,7141 8091,7131 8082,7123 8066,7108 8047,7081 8037,7031 8018,7021 7988,7009 7950,7003 7908,6997 7872,7002 7850,7006 7920,7006 7977,7035 7991,7079 7995,7088 7997,7102 7994,7121 7994,7128 7994,7140 7988,7155 7981,7173 7967,7183 7962,7187 7954,7174 7930,7139 7884,7119 7840,7101 7802,7106 7787,7109 7767,7120 7742,7132 7713,7143 7666,7159 7625,7165 7593,7167 7526,7197 7424,7235 7295,7246 7196,7255 7113,7246 7050,7235 7019,7233 6961,7223 6899,7186 6832,7146 6795,7094 6779,7066 6768,7045 6750,7003 6750,6947 6750,6890 6767,6847 6778,6826 6784,6821 6824,6792 6879,6802 6934,6812 6961,6853 6965,6860 6967,6864 6981,6903 6958,6938 6939,6967 6904,6982 6868,6976 6873,6992 6895,7054 6959,7094 7012,7127 7064,7127 7083,7126 7112,7125 7162,7119 7216,7093 7263,7070 7294,7042 7313,7022 7316,7015 7319,7007 7321,6998 7326,6976 7325,6957 7322,6944 7327,6944 7397,6947 7431,7005 7453,7041 7448,7078 7446,7089 7462,7080 7505,7054 7527,7002 7536,6981 7539,6962 7540,6947 7539,6939 7537,6929 7533,6919 7518,6880 7482,6861 7470,6855 7471,6852 7486,6815 7525,6807 7559,6799 7584,6818 7588,6821 7599,6803 7611,6778 7619,6747 7630,6705 7629,6669 7627,6645 7726,6632 7818,6682 7851,6762 7883,6840 7846,6915 7839,6928 7874,6907 7931,6866 7967,6792 7975,6774 7982,6756 7986,6740 8005,6708 8004,6693 7999,6685 7988,6668 7958,6677 7937,6656 7922,6642 7919,6621 7919,6606 7943,6567 7988,6550 8027,6561 8071,6574 8087,6619 8088,6623 8095,6594 8106,6524 8078,6443 8051,6369 8004,6323 7982,6304 7972,6300 7943,6291 7908,6300 7871,6310 7850,6335 7844,6343 7893,6341 7935,6369 7948,6410 7962,6452 7937,6490 7934,6495 7922,6503 7876,6533 7815,6526 7729,6515 7688,6439 7685,6432 7682,6412 7670,6312 7737,6227 7772,6182 7815,6160 7839,6149 7871,6147 8017,6141 8108,6242 8126,6261 8139,6282 8148,6302 8151,6288 8153,6271 8153,6251 8152,6223 8147,6199 8142,6182 8131,6166 8111,6133 8105,6086 8099,6031 8116,5989 8124,5972 8132,5958 8145,5931 8146,5895 8147,5867 8141,5845 8136,5832 8122,5819 8107,5806 8093,5793 8110,5742 8158,5712 8205,5719 8259,5726 8283,5781 8284,5783 8279,5753 8276,5709 8286,5658 8291,5635 8297,5614 8304,5597 8308,5595 8319,5588 8324,5573 8330,5553 8320,5536 8319,5534 8320,5528 8321,5518 8318,5507 8311,5484 8294,5472 8289,5469 8300,5459 8324,5441 8359,5433 8379,5429 8396,5429 8408,5431 8423,5439 8457,5461 8479,5504 8493,5531 8497,5557 8498,5573 8514,5534 8530,5495 8546,5457 8566,5427 8597,5389 8645,5356 8661,5344 8677,5335 8693,5328 8697,5320 8703,5308 8706,5292 8710,5260 8697,5236 8692,5228 8753,5212 8812,5232 8840,5275 8861,5307 8857,5343 8855,5356 8942,5347 9042,5327 9147,5284 9168,5276 9187,5267 9206,5258 9209,5253 9212,5247 9214,5239 9217,5227 9217,5217 9216,5209 9275,5210 9326,5245 9343,5295 9361,5345 9336,5390 9332,5398 9361,5393 9423,5377 9475,5326 9497,5306 9512,5284 9522,5266 9527,5248 9532,5223 9533,5193 9533,5139 9516,5098 9505,5074 9519,5061 9552,5034 9600,5026 9618,5023 9635,5023 9648,5025 9671,5017 9682,4994 9677,4978 9672,4959 9643,4945 9617,4959 9618,4952 9628,4894 9681,4866 9713,4850 9744,4853 9756,4854 9810,4888 9831,4922 9839,4949 9847,4974 9844,4993 9862,5019 9880,5043 9904,5056 9900,5069 9898,5075 9893,5075 9886,5080 9866,5095 9866,5126 9863,5150 9861,5171 9855,5201 9836,5236 9854,5223 9899,5188 9924,5124 9946,5067 9941,5017 9937,4994 9936,4979 9930,4957 9913,4942 9894,4925 9873,4930 9842,4916 9827,4909 9807,4897 9788,4874 9784,4867 9769,4837 9779,4801 9786,4772 9805,4755 9812,4750 9813,4748 9819,4734 9834,4731 9844,4729 9851,4732 9854,4734 9876,4702 9875,4685 9871,4676 9863,4661 9846,4662 9830,4645 9814,4629 9811,4607 9810,4590 9866,4544 9940,4534 9995,4566 10042,4592 10058,4640 10063,4654 10104,4639 10146,4658 10158,4689 10171,4720 10147,4752 10146,4754 10141,4765 10136,4776 10132,4787 L 10152,4958 C 10167,4927 10197,4855 10187,4761 10180,4699 10158,4652 10142,4624 10141,4616 10137,4607 10129,4600 10112,4586 10090,4598 10069,4589 10057,4584 10043,4570 10035,4534 10037,4527 10043,4501 10068,4484 10082,4474 10096,4471 10104,4470 10100,4462 10093,4449 10086,4433 10055,4368 10052,4357 10040,4343 10028,4330 10005,4312 9960,4306 9987,4235 10047,4186 10116,4181 10180,4177 10227,4213 10239,4223 10249,4212 10267,4196 10292,4186 10332,4171 10385,4170 10395,4191 10402,4206 10378,4218 10380,4252 10382,4273 10395,4300 10395,4300 10411,4323 10443,4375 10449,4450 10454,4514 10437,4565 10427,4590 10451,4554 10495,4475 10501,4365 10505,4289 10489,4228 10475,4191 10473,4184 10463,4157 10434,4143 10406,4129 10372,4134 10345,4154 10341,4146 10325,4111 10337,4070 10352,4018 10400,3998 10406,3996 10414,3992 10437,3982 10466,3989 10480,3992 10491,3999 10497,4004 10491,3968 10480,3921 10456,3870 10429,3810 10396,3766 10369,3737 10357,3721 10327,3685 10274,3666 10230,3649 10192,3651 10173,3654 10162,3656 10145,3662 10128,3675 10102,3695 10092,3721 10088,3732 10093,3730 10155,3702 10209,3736 10236,3753 10248,3777 10254,3789 10255,3799 10262,3852 10226,3900 10197,3938 10159,3950 10146,3953 10131,3955 10072,3960 10016,3922 9944,3872 9936,3790 9935,3779 9934,3763 9927,3658 10007,3581 10055,3535 10109,3522 10133,3518 10183,3517 10296,3521 10408,3593 10461,3627 10497,3666 10522,3697 10558,3756 10609,3856 10629,3988 10643,4078 10639,4155 10632,4212 10633,4245 10631,4285 10625,4330 10618,4379 10607,4421 10595,4456 10615,4461 10649,4472 10680,4501 10692,4512 10702,4524 10708,4535 10718,4529 10735,4518 10749,4500 10765,4479 10772,4458 10774,4447 10775,4445 10780,4434 10774,4423 10768,4413 10755,4408 10743,4411 10736,4416 10730,4421 10723,4425 10702,4379 10711,4327 10743,4296 10772,4268 10810,4268 10819,4268 10830,4260 10851,4243 10865,4214 10873,4197 10876,4181 10877,4169 10879,4149 10881,4129 10883,4108 10889,4109 10976,4114 11016,4186 11036,4223 11033,4259 11031,4275 11043,4274 11062,4275 11082,4283 11092,4286 11100,4290 11107,4295 11111,4300 11118,4309 11123,4322 11129,4336 11130,4347 11130,4355 11127,4350 11122,4346 11116,4345 11110,4345 11105,4348 11102,4353 11103,4365 11103,4380 11102,4396 11099,4427 11092,4452 11085,4471 L 11135,4410 C 11140,4402 11160,4364 11149,4317 11139,4275 11111,4252 11102,4245 11102,4237 11101,4228 11100,4218 11095,4180 11082,4150 11069,4127 11072,4124 11085,4109 11107,4107 11123,4106 11135,4112 11140,4114 11149,4094 11161,4061 11163,4018 11165,3964 11150,3923 11140,3901 11152,3893 11188,3872 11237,3874 11279,3876 11310,3894 11322,3902 11332,3908 11347,3920 11359,3939 11366,3948 11369,3958 11372,3965 11381,3964 11398,3963 11418,3972 11431,3977 11440,3984 11445,3989 11436,4001 11422,4020 11419,4046 11415,4076 11427,4093 11431,4131 11433,4148 11433,4174 11425,4207 11436,4186 11449,4156 11457,4117 11465,4073 11462,4036 11459,4011 11459,3997 11458,3970 11443,3941 11436,3928 11424,3905 11396,3891 11368,3877 11342,3881 11332,3883 11331,3876 11323,3813 11369,3768 11398,3741 11432,3735 11444,3733 11452,3734 11520,3738 11558,3796 11581,3831 11580,3867 11579,3881 11586,3866 11597,3836 11593,3797 11588,3747 11562,3715 11552,3703 11539,3696 11518,3681 11501,3656 11491,3641 11485,3626 11482,3615 11482,3598 11481,3576 11474,3550 11462,3508 11440,3480 11426,3465 11434,3459 11472,3431 11525,3437 11575,3442 11606,3473 11613,3481 11607,3445 11592,3392 11557,3335 11505,3251 11436,3206 11400,3186 11384,3177 11329,3150 11258,3165 11215,3174 11183,3194 11162,3214 11123,3248 11107,3301 11124,3350 11125,3351 11125,3353 11126,3355 11134,3377 11147,3392 11156,3401 Z"/>
        <path fill="none" stroke="rgb(247,246,245)" stroke-width="35" stroke-linejoin="miter" d="M 11156,3401 C 11164,3358 11197,3326 11235,3322 11275,3319 11303,3349 11306,3353 11309,3358 11344,3420 11313,3485 11312,3487 11311,3488 11310,3490 11284,3538 11230,3563 11176,3555 11150,3551 11118,3542 11086,3522 11040,3495 11014,3459 10999,3434 10991,3419 10986,3404 10983,3387 10977,3348 10974,3291 10989,3224 10999,3177 11016,3138 11033,3108 11046,3083 11067,3062 11093,3049 11121,3036 11157,3022 11200,3015 11310,2997 11398,3034 11432,3050 11474,3073 11538,3113 11598,3182 11648,3240 11677,3298 11694,3339 11722,3409 11775,3570 11736,3767 11714,3878 11671,3962 11636,4017 11662,4015 11686,4025 11699,4045 11713,4065 11710,4086 11709,4091 11708,4103 11704,4119 11692,4128 11679,4137 11665,4131 11647,4136 11635,4140 11617,4149 11600,4177 11570,4231 11527,4297 11464,4362 11434,4393 11404,4420 11376,4442 11380,4443 11446,4453 11470,4511 11481,4541 11476,4567 11473,4579 11472,4576 11460,4558 11437,4555 11421,4552 11409,4558 11404,4561 11379,4583 11338,4610 11284,4620 11252,4626 11228,4623 11203,4621 11157,4618 11091,4615 11006,4619 11077,4649 11117,4718 11107,4781 11098,4840 11048,4873 11039,4878 11038,4870 11033,4848 11016,4829 10996,4807 10972,4800 10964,4798 10916,4798 10885,4784 10866,4772 10824,4746 10814,4710 10763,4682 10741,4670 10722,4665 10709,4662 10692,4656 10644,4641 10587,4659 10514,4681 10480,4741 10473,4753 10461,4781 10442,4817 10413,4854 10386,4889 10359,4915 10336,4934 10388,4926 10440,4945 10468,4984 10491,5016 10492,5051 10491,5064 10481,5062 10452,5057 10419,5070 10387,5083 10370,5107 10365,5115 10341,5128 10312,5140 10277,5150 10213,5168 10156,5166 10118,5162 10133,5166 10265,5205 10303,5324 10315,5361 10314,5395 10310,5420 10297,5409 10274,5395 10243,5387 10192,5375 10150,5388 10133,5394 10120,5394 10101,5394 10077,5391 10038,5386 10011,5377 9994,5373 9964,5364 9920,5356 9861,5354 9815,5374 9763,5394 9706,5412 9635,5434 9569,5449 9510,5460 9524,5467 9730,5574 9747,5790 9756,5895 9716,5977 9694,6014 9681,6036 9633,6108 9543,6132 9521,6139 9477,6150 9426,6132 9380,6117 9352,6087 9341,6072 9313,6025 9310,5972 9334,5932 9337,5927 9367,5880 9410,5882 9452,5884 9493,5932 9495,6000 9584,5944 9630,5845 9612,5750 9592,5644 9501,5593 9488,5586 9488,5594 9486,5654 9435,5693 9389,5730 9337,5722 9328,5721 9333,5707 9359,5621 9310,5544 9262,5467 9161,5429 9060,5456 9134,5480 9163,5512 9175,5537 9180,5548 9188,5570 9202,5571 9217,5571 9223,5542 9237,5542 9256,5542 9280,5591 9265,5616 9254,5634 9227,5631 9225,5644 9223,5657 9253,5661 9267,5685 9284,5712 9269,5749 9255,5785 9245,5808 9227,5846 9191,5884 9184,5867 9164,5826 9117,5795 9077,5770 9039,5765 9020,5764 9020,5772 9017,5783 9012,5795 9006,5809 8998,5819 8992,5826 8987,5814 8979,5799 8963,5786 8945,5771 8926,5768 8914,5764 8891,5757 8861,5737 8833,5677 8825,5665 8808,5645 8781,5629 8744,5608 8708,5607 8693,5608 8672,5611 8646,5617 8616,5629 8588,5641 8566,5654 8549,5666 8594,5660 8647,5658 8704,5663 8717,5664 8730,5666 8743,5668 8753,5671 8760,5671 8764,5669 8771,5667 8774,5663 8781,5663 8785,5663 8789,5666 8791,5668 8788,5672 8783,5677 8777,5681 8758,5693 8739,5693 8731,5692 8747,5697 8758,5697 8765,5695 8774,5693 8779,5690 8788,5690 8798,5691 8805,5696 8810,5700 8811,5708 8812,5719 8810,5732 8806,5752 8798,5766 8793,5774 8801,5778 8880,5816 8894,5900 8902,5946 8887,5982 8880,5998 8870,5981 8853,5960 8829,5955 8805,5949 8790,5961 8762,5962 8743,5962 8715,5957 8682,5932 8674,5943 8657,5965 8626,5979 8582,5998 8541,5987 8530,5983 8536,5977 8544,5968 8550,5954 8554,5944 8556,5935 8557,5929 8551,5920 8531,5897 8495,5887 8457,5876 8426,5886 8416,5890 8407,5897 8397,5905 8388,5915 8372,5931 8359,5947 8350,5961 8355,5960 8418,5947 8465,5993 8502,6030 8501,6079 8501,6087 8481,6081 8441,6073 8394,6083 8365,6090 8342,6101 8327,6111 8311,6132 8289,6163 8268,6201 8253,6229 8230,6271 8216,6323 8206,6359 8194,6428 8213,6518 8222,6516 8279,6503 8333,6538 8382,6571 8395,6620 8398,6631 8381,6630 8342,6630 8299,6654 8262,6675 8241,6704 8232,6718 8223,6733 8211,6749 8199,6764 8173,6796 8147,6822 8123,6842 8151,6841 8185,6844 8221,6856 8245,6863 8254,6870 8273,6874 8298,6880 8332,6879 8376,6858 8379,6864 8400,6900 8386,6941 8378,6966 8362,6980 8354,6987 8362,6991 8459,7044 8464,7140 8465,7169 8458,7193 8450,7211 8428,7216 8396,7222 8357,7219 8322,7217 8293,7209 8272,7201 8262,7198 8248,7192 8234,7182 8213,7167 8201,7149 8195,7138 8194,7146 8190,7160 8181,7173 8169,7190 8155,7199 8147,7203 8141,7192 8132,7176 8119,7159 8103,7141 8091,7131 8082,7123 8066,7108 8047,7081 8037,7031 8018,7021 7988,7009 7950,7003 7908,6997 7872,7002 7850,7006 7920,7006 7977,7035 7991,7079 7995,7088 7997,7102 7994,7121 7994,7128 7994,7140 7988,7155 7981,7173 7967,7183 7962,7187 7954,7174 7930,7139 7884,7119 7840,7101 7802,7106 7787,7109 7767,7120 7742,7132 7713,7143 7666,7159 7625,7165 7593,7167 7526,7197 7424,7235 7295,7246 7196,7255 7113,7246 7050,7235 7019,7233 6961,7223 6899,7186 6832,7146 6795,7094 6779,7066 6768,7045 6750,7003 6750,6947 6750,6890 6767,6847 6778,6826 6784,6821 6824,6792 6879,6802 6934,6812 6961,6853 6965,6860 6967,6864 6981,6903 6958,6938 6939,6967 6904,6982 6868,6976 6873,6992 6895,7054 6959,7094 7012,7127 7064,7127 7083,7126 7112,7125 7162,7119 7216,7093 7263,7070 7294,7042 7313,7022 7316,7015 7319,7007 7321,6998 7326,6976 7325,6957 7322,6944 7327,6944 7397,6947 7431,7005 7453,7041 7448,7078 7446,7089 7462,7080 7505,7054 7527,7002 7536,6981 7539,6962 7540,6947 7539,6939 7537,6929 7533,6919 7518,6880 7482,6861 7470,6855 7471,6852 7486,6815 7525,6807 7559,6799 7584,6818 7588,6821 7599,6803 7611,6778 7619,6747 7630,6705 7629,6669 7627,6645 7726,6632 7818,6682 7851,6762 7883,6840 7846,6915 7839,6928 7874,6907 7931,6866 7967,6792 7975,6774 7982,6756 7986,6740 8005,6708 8004,6693 7999,6685 7988,6668 7958,6677 7937,6656 7922,6642 7919,6621 7919,6606 7943,6567 7988,6550 8027,6561 8071,6574 8087,6619 8088,6623 8095,6594 8106,6524 8078,6443 8051,6369 8004,6323 7982,6304 7972,6300 7943,6291 7908,6300 7871,6310 7850,6335 7844,6343 7893,6341 7935,6369 7948,6410 7962,6452 7937,6490 7934,6495 7922,6503 7876,6533 7815,6526 7729,6515 7688,6439 7685,6432 7682,6412 7670,6312 7737,6227 7772,6182 7815,6160 7839,6149 7871,6147 8017,6141 8108,6242 8126,6261 8139,6282 8148,6302 8151,6288 8153,6271 8153,6251 8152,6223 8147,6199 8142,6182 8131,6166 8111,6133 8105,6086 8099,6031 8116,5989 8124,5972 8132,5958 8145,5931 8146,5895 8147,5867 8141,5845 8136,5832 L 8093,5793 C 8110,5742 8158,5712 8205,5719 8259,5726 8283,5781 8284,5783 8279,5753 8276,5709 8286,5658 8291,5635 8297,5614 8304,5597 8308,5595 8319,5588 8324,5573 8330,5553 8320,5536 8319,5534 8320,5528 8321,5518 8318,5507 8311,5484 8294,5472 8289,5469 8300,5459 8324,5441 8359,5433 8379,5429 8396,5429 8408,5431 8423,5439 8457,5461 8479,5504 8493,5531 8497,5557 8498,5573 L 8546,5457 C 8566,5427 8597,5389 8645,5356 8661,5344 8677,5335 8693,5328 8697,5320 8703,5308 8706,5292 8710,5260 8697,5236 8692,5228 8753,5212 8812,5232 8840,5275 8861,5307 8857,5343 8855,5356 8942,5347 9042,5327 9147,5284 9168,5276 9187,5267 9206,5258 9209,5253 9212,5247 9214,5239 9217,5227 9217,5217 9216,5209 9275,5210 9326,5245 9343,5295 9361,5345 9336,5390 9332,5398 9361,5393 9423,5377 9475,5326 9497,5306 9512,5284 9522,5266 9527,5248 9532,5223 9533,5193 9533,5139 9516,5098 9505,5074 9519,5061 9552,5034 9600,5026 9618,5023 9635,5023 9648,5025 9671,5017 9682,4994 9677,4978 9672,4959 9643,4945 9617,4959 9618,4952 9628,4894 9681,4866 9713,4850 9744,4853 9756,4854 9810,4888 9831,4922 9839,4949 9847,4974 9844,4993 9862,5019 9880,5043 9904,5056 9900,5069 9898,5075 9893,5075 9886,5080 9866,5095 9866,5126 9863,5150 9861,5171 9855,5201 9836,5236 9854,5223 9899,5188 9924,5124 9946,5067 9941,5017 9937,4994 9936,4979 9930,4957 9913,4942 9894,4925 9873,4930 9842,4916 9827,4909 9807,4897 9788,4874 9784,4867 9769,4837 9779,4801 9786,4772 9805,4755 9812,4750 9813,4748 9819,4734 9834,4731 9844,4729 9851,4732 9854,4734 9876,4702 9875,4685 9871,4676 9863,4661 9846,4662 9830,4645 9814,4629 9811,4607 9810,4590 9866,4544 9940,4534 9995,4566 10042,4592 10058,4640 10063,4654 10104,4639 10146,4658 10158,4689 10171,4720 10147,4752 10146,4754 10141,4765 10136,4776 10132,4787 L 10152,4958 C 10167,4927 10197,4855 10187,4761 10180,4699 10158,4652 10142,4624 10141,4616 10137,4607 10129,4600 10112,4586 10090,4598 10069,4589 10057,4584 10043,4570 10035,4534 10037,4527 10043,4501 10068,4484 10082,4474 10096,4471 10104,4470 10100,4462 10093,4449 10086,4433 10055,4368 10052,4357 10040,4343 10028,4330 10005,4312 9960,4306 9987,4235 10047,4186 10116,4181 10180,4177 10227,4213 10239,4223 10249,4212 10267,4196 10292,4186 10332,4171 10385,4170 10395,4191 10402,4206 10378,4218 10380,4252 10382,4273 10395,4300 10395,4300 10411,4323 10443,4375 10449,4450 10454,4514 10437,4565 10427,4590 10451,4554 10495,4475 10501,4365 10505,4289 10489,4228 10475,4191 10473,4184 10463,4157 10434,4143 10406,4129 10372,4134 10345,4154 10341,4146 10325,4111 10337,4070 10352,4018 10400,3998 10406,3996 10414,3992 10437,3982 10466,3989 10480,3992 10491,3999 10497,4004 10491,3968 10480,3921 10456,3870 10429,3810 10396,3766 10369,3737 10357,3721 10327,3685 10274,3666 10230,3649 10192,3651 10173,3654 10162,3656 10145,3662 10128,3675 10102,3695 10092,3721 10088,3732 10093,3730 10155,3702 10209,3736 10236,3753 10248,3777 10254,3789 10255,3799 10262,3852 10226,3900 10197,3938 10159,3950 10146,3953 10131,3955 10072,3960 10016,3922 9944,3872 9936,3790 9935,3779 9934,3763 9927,3658 10007,3581 10055,3535 10109,3522 10133,3518 10183,3517 10296,3521 10408,3593 10461,3627 10497,3666 10522,3697 10558,3756 10609,3856 10629,3988 10643,4078 10639,4155 10632,4212 10633,4245 10631,4285 10625,4330 10618,4379 10607,4421 10595,4456 10615,4461 10649,4472 10680,4501 10692,4512 10702,4524 10708,4535 10718,4529 10735,4518 10749,4500 10765,4479 10772,4458 10774,4447 10775,4445 10780,4434 10774,4423 10768,4413 10755,4408 10743,4411 10736,4416 10730,4421 10723,4425 10702,4379 10711,4327 10743,4296 10772,4268 10810,4268 10819,4268 10830,4260 10851,4243 10865,4214 10873,4197 10876,4181 10877,4169 L 10883,4108 C 10889,4109 10976,4114 11016,4186 11036,4223 11033,4259 11031,4275 11043,4274 11062,4275 11082,4283 11092,4286 11100,4290 11107,4295 11111,4300 11118,4309 11123,4322 11129,4336 11130,4347 11130,4355 11127,4350 11122,4346 11116,4345 11110,4345 11105,4348 11102,4353 11103,4365 11103,4380 11102,4396 11099,4427 11092,4452 11085,4471 L 11135,4410 C 11140,4402 11160,4364 11149,4317 11139,4275 11111,4252 11102,4245 11102,4237 11101,4228 11100,4218 11095,4180 11082,4150 11069,4127 11072,4124 11085,4109 11107,4107 11123,4106 11135,4112 11140,4114 11149,4094 11161,4061 11163,4018 11165,3964 11150,3923 11140,3901 11152,3893 11188,3872 11237,3874 11279,3876 11310,3894 11322,3902 11332,3908 11347,3920 11359,3939 11366,3948 11369,3958 11372,3965 11381,3964 11398,3963 11418,3972 11431,3977 11440,3984 11445,3989 11436,4001 11422,4020 11419,4046 11415,4076 11427,4093 11431,4131 11433,4148 11433,4174 11425,4207 11436,4186 11449,4156 11457,4117 11465,4073 11462,4036 11459,4011 11459,3997 11458,3970 11443,3941 11436,3928 11424,3905 11396,3891 11368,3877 11342,3881 11332,3883 11331,3876 11323,3813 11369,3768 11398,3741 11432,3735 11444,3733 11452,3734 11520,3738 11558,3796 11581,3831 11580,3867 11579,3881 11586,3866 11597,3836 11593,3797 11588,3747 11562,3715 11552,3703 11539,3696 11518,3681 11501,3656 11491,3641 11485,3626 11482,3615 11482,3598 11481,3576 11474,3550 11462,3508 11440,3480 11426,3465 11434,3459 11472,3431 11525,3437 11575,3442 11606,3473 11613,3481 11607,3445 11592,3392 11557,3335 11505,3251 11436,3206 11400,3186 11384,3177 11329,3150 11258,3165 11215,3174 11183,3194 11162,3214 11123,3248 11107,3301 11124,3350 11125,3351 11125,3353 11126,3355 11134,3377 11147,3392 11156,3401 Z"/>
       </g>
      </g>
     </g>
    </g>
   </g>
  </g>
 </g>
</svg>